<svg id="Layer_1" xmlns="http://www.w3.org/2000/svg" xmlns:xlink="http://www.w3.org/1999/xlink" width="1.32in" height="1.06in"
	 viewBox="0 0 95 76.3">
<style>
	.muw-svg {
		fill:#9296C5;
		stroke-miterlimit:10;
	}
</style>
<title>Icon_Artboard 18 copy 9</title>
<path id="Icon_BasicNeeds" class="muw-svg" d="M71.3,44.8L71,43.9l8.4-3l0.3,0.9L71.3,44.8z M78.4,47.5L78,46.6l-8.4,3l0.3,0.9
L78.4,47.5z M76.6,53.2l-0.3-0.9l-8.5,3l0.3,0.9L76.6,53.2z M54.1,40.7l7.1-1.5c0.8-0.2,1.5,0.3,1.7,1.1l0,0l0.2,0.8
c0.1,0.4,0,0.7-0.2,1.1c-0.2,0.3-0.5,0.5-0.8,0.6c0.1,0.4,0.4,0.7,0.7,1c0.3,0.2,0.6,0.4,1,0.5c0.8,0.3,1.6,0.7,2.2,1.4
c0.1,0.1,0.3,0.3,0.7,2c1.4-4.1,3.3-8,5.6-11.6c2.7-4.1,5.4-6,7.5-5.4s3.3,3.7,3.4,8.6c-0.1,5.7-1,11.4-2.7,16.8
C77.6,66,74.2,68.3,71,68.3c-1,0-2-0.2-2.9-0.5l0,0c-1.2,0.7-2.5,1.3-3.9,1.7C63.1,69.8,62,70,60.8,70c-1.3,0-2.6-0.2-3.8-0.6
l-0.3-0.1L56.6,69c0,0-0.7-3.8-1.5-7.9c-0.1,0.2-0.3,0.5-0.4,0.7c-0.4,0.6-1,0.9-1.7,1c-0.2,0-0.4,0-0.6,0c-0.4-0.1-0.8,0-1.1,0.1
c-0.3,0.2-0.6,0.4-0.8,0.8c-0.1,0.2-0.2,0.3-0.4,0.5c-0.4,0.4-1,0.7-1.6,0.7H48c-3.4-0.5-6.4-2.5-8.2-5.3l-0.3-0.7
c-0.3-0.8-0.5-1.6-0.6-2.4c0-1,0.2-1.9,0.6-2.8c0.3-0.6,0.7-1.2,1.2-1.6c0.7-0.7,1.7-1.2,2.7-1.3c0.3,0,0.6,0,0.8,0h0.1
c0.1,0,0.3-0.1,0.4-0.1c-0.1-0.7-0.4-1.4-0.9-1.8c-0.8-0.6-2.6-0.3-3.2-0.2l-0.2-1c0.3-0.1,2.7-0.7,4,0.3c0.7,0.6,1.1,1.3,1.2,2.2
c0.1-0.1,0.2-0.2,0.3-0.3l0.1-0.1c0.2-0.2,0.4-0.4,0.6-0.6c0.8-0.7,1.7-1.1,2.8-1.2c0.6-0.1,1.3-0.1,1.9,0.1
c0.6,0.2,1.1,0.4,1.7,0.7c0-0.1,0-0.3,0-0.4c0.2-0.9,0.7-1.7,1.4-2.3c0.2-0.2,0.4-0.4,0.5-0.6c0.2-0.4,0.4-0.8,0.5-1.2L55,44.4
c-0.1,0-0.2,0-0.3,0c-0.6,0-1.2-0.4-1.4-1l-0.3-1C52.8,41.6,53.3,40.9,54.1,40.7L54.1,40.7z M54.6,52.3l-0.3-0.7
C54,51,53.5,50.5,53,50c-0.6-0.5-1.3-0.8-2.1-1c-0.5-0.1-1-0.2-1.5-0.1c-0.8,0.1-1.6,0.4-2.2,1c-0.2,0.2-0.3,0.3-0.5,0.5l-0.2,0.2
c-0.6,0.6-1.4,1-2.3,1h-0.1c-0.2,0-0.5,0-0.7,0c-0.8,0.1-1.5,0.5-2.1,1c-0.4,0.3-0.7,0.8-0.9,1.3c-0.3,0.7-0.5,1.5-0.5,2.3
c0.1,0.7,0.2,1.4,0.5,2l0.3,0.7c1.7,2.7,4.4,4.5,7.5,5c0.4,0,0.7-0.1,1-0.4c0.1-0.1,0.2-0.2,0.2-0.3c0.3-0.5,0.7-0.9,1.2-1.2
c0.5-0.2,1.1-0.3,1.6-0.2c0.1,0,0.3,0,0.4,0c0.4,0,0.8-0.2,1-0.6C55.2,58.4,55.5,55.3,54.6,52.3z M66.2,51.8
c-1.7,5.8-2.3,9.5-1.7,11.8c0.5,1.9,1.7,2.6,3.7,3.2c3.7,1.1,7.6,1.1,11.2-11c1.7-5.3,2.6-10.9,2.7-16.5c0-4.4-1-7.2-2.7-7.6
c-0.2,0-0.4-0.1-0.5-0.1c-1.6,0-3.7,1.8-5.8,5C70,41.3,67.7,46.4,66.2,51.8z M62.1,44.5c-0.5-0.4-0.9-0.9-1.1-1.5l-4.7,1.2
c-0.1,0.6-0.3,1.3-0.7,1.8c-0.2,0.3-0.4,0.5-0.6,0.7c-0.5,0.4-0.9,1-1.1,1.7c0,0.3,0,0.7,0.1,1v0.2c0.5,0.5,0.9,1,1.2,1.6l0.3,0.7
c0.8,2.4,0.8,4.9,0.1,7.3l0,0c0.8,4,1.5,8,1.8,9.1c2.1,0.6,4.3,0.6,6.3,0c1-0.3,1.9-0.7,2.9-1.2c-1.5-0.6-2.6-1.8-3-3.4
c-0.6-2.4-0.1-6.3,1.7-12.3c0.2-0.7,0.4-1.4,0.7-2.1l0,0c-0.1-1.1-0.4-2.2-0.8-3.2c-0.5-0.5-1.1-0.9-1.8-1.1
C62.9,45,62.4,44.8,62.1,44.5z M54,42.2l0.2,0.8c0,0.2,0.3,0.4,0.5,0.3l0,0l7.1-1.5c0.1,0,0.2-0.1,0.3-0.2c0.1-0.1,0.1-0.2,0.1-0.3
L62,40.5c0-0.1-0.1-0.2-0.2-0.3c-0.1,0-0.1-0.1-0.2-0.1h-0.1l-7.1,1.5C54.1,41.7,53.9,42,54,42.2z M89.2,30v45.7H17.8V64.1H4.1
V46.4l-3,0.9l-0.7-9.8l12.7-3.9l0.2,0.3c0,0,1.7,2.8,4.5,3.2v-6.8h-5.7l10.8-7.8V2.9h10v12.7L54.4,0.7L94.6,30H89.2z M15.2,29.3
h2.9L54.4,4.2l34,24.8h3.1L54.4,1.9L31.9,17.5V3.9h-8v19.2L15.2,29.3z M5.1,45.1v18h26.6v-18l3.4,0.9l0.3-7.8l-10.7-3.4
c-1.4,2-3.6,3.3-6,3.4h-0.1c-3.1,0-5.2-2.5-5.8-3.4L1.4,38.2L2,46L5.1,45.1z M88.2,30.1L54.4,5.4L18.8,30.1v7.1
c3.3-0.2,5.1-3.2,5.1-3.2l0.2-0.4l12.1,3.9l-0.3,9.8l-3.3-0.9v17.7H18.8v10.6h69.4V30.1z"/>
</svg>
