<svg id="Layer_1" data-name="Layer 1" xmlns="http://www.w3.org/2000/svg" width="1.32in" height="1.06in" viewBox="0 0 94.75 76.32">
  <defs>
    <style>
      .muw-svg {
        fill: #9296c5;
      }
    </style>
  </defs>
  <title>Icon_Artboard 18 copy 9</title>
  <path id="Icon_Communityservices" class="muw-svg" d="M75.12,52.4A9.48,9.48,0,0,0,72.67,54l.16-.24a2.67,2.67,0,0,0-.27-3.36,3.8,3.8,0,0,0-4.68-.24,6.79,6.79,0,0,0-1,.7,2.07,2.07,0,0,0-.24-2.63,3.46,3.46,0,0,0-4.29-.33,19,19,0,0,0-1.84,1.31,1.79,1.79,0,0,0-.36-1.43,2.78,2.78,0,0,0-3.5-.51A40.17,40.17,0,0,0,52,50.64c-1.66,1.28-3.37,2.6-4.85,3.55l0,.05a32.37,32.37,0,0,1-3.72-2.34,39,39,0,0,0-3.52-2.24c-4.49-2.43-8.71-3.24-12.91-2.47-3.3.59-7.89,3.18-11,5.07a3.11,3.11,0,0,0-1.6,2c-.25,1.16.25,2.56,1.55,4.43a38.36,38.36,0,0,0,64.05-1.86,3,3,0,0,0-.1-3.52A4.16,4.16,0,0,0,75.12,52.4Zm4,3.91a37.39,37.39,0,0,1-62.43,1.81c-1.13-1.6-1.58-2.8-1.4-3.67a2.18,2.18,0,0,1,1.15-1.36c3.09-1.85,7.57-4.38,10.72-5A16.32,16.32,0,0,1,30,47.88a19.64,19.64,0,0,1,9.4,2.63,37.54,37.54,0,0,1,3.42,2.19c2.18,1.5,4.43,3,7.25,3.59,1.6.31,7,1.52,8.43,4.13a2.89,2.89,0,0,1,.15,2.51,3.28,3.28,0,0,1-1.78,2c-2.51,1.09-6.89-.78-11.13-2.59-1.42-.61-2.9-1.24-4.25-1.73-2.77-1-4.54-1.27-5.27-.78a.86.86,0,0,0-.42.72l.95.09c.15-.13,1.28-.25,4.41.89,1.33.48,2.72,1.07,4.2,1.7,4.43,1.89,9,3.84,11.9,2.59a4.24,4.24,0,0,0,2.3-2.58,3.84,3.84,0,0,0-.22-3.33c-1.63-2.89-6.9-4.18-9.09-4.6a11.85,11.85,0,0,1-2.17-.65c1.39-.94,2.93-2.13,4.43-3.28a40.24,40.24,0,0,1,4.57-3.26,1.8,1.8,0,0,1,2.28.25,1,1,0,0,1-.15,1.28l-.52.58c-.4.46-.89,1-1.14,1.27L56.25,52.8l2-.52.18-.08c.48-.37,1-.78,1.44-1.19a23,23,0,0,1,3-2.26,2.52,2.52,0,0,1,3.08.17A1.12,1.12,0,0,1,66,50.43a41.1,41.1,0,0,1-2.51,3.26L62.28,54.9l2-.46.18-.09c.37-.28.87-.74,1.39-1.23A18.16,18.16,0,0,1,68.36,51c1.52-.87,2.85-.59,3.51.08A1.72,1.72,0,0,1,72,53.28c-.46.75-2.25,3-2.68,3.51l-.95,1.07,1.85-.35.1-.09.86-.78c1.28-1.17,3.21-2.94,4.27-3.33a3.22,3.22,0,0,1,3.63.6A2,2,0,0,1,79.12,56.31ZM47.64,32.57l-.27.27-.26-.27a5.76,5.76,0,0,0-4-2A5.07,5.07,0,0,0,38,35.67,4.72,4.72,0,0,0,39.38,39l8,8,7.37-7.37a5.26,5.26,0,0,0,2-4,5.07,5.07,0,0,0-5.06-5.07A5.8,5.8,0,0,0,47.64,32.57Zm8.1,3.1A4.36,4.36,0,0,1,54.05,39l-6.68,6.67L40.1,38.39A3.75,3.75,0,0,1,39,35.67a4.1,4.1,0,0,1,4.09-4.1,4.77,4.77,0,0,1,3.32,1.69l.95,1,1-1a4.77,4.77,0,0,1,3.32-1.69A4.1,4.1,0,0,1,55.74,35.67ZM19.63,23.16a9.83,9.83,0,0,0,2.45-1.63l-.16.25a2.67,2.67,0,0,0,.27,3.36,3.8,3.8,0,0,0,4.68.24,7.67,7.67,0,0,0,1-.7,2.07,2.07,0,0,0,.24,2.63,3.46,3.46,0,0,0,4.29.32,16.1,16.1,0,0,0,1.84-1.31,1.78,1.78,0,0,0,.36,1.43,2.49,2.49,0,0,0,2,.9,3.28,3.28,0,0,0,1.52-.38,41.42,41.42,0,0,0,4.71-3.35c1.66-1.28,3.37-2.6,4.85-3.55l0-.05a33.37,33.37,0,0,1,3.73,2.34,37.5,37.5,0,0,0,3.51,2.24c4.48,2.42,8.71,3.23,12.91,2.47,3.3-.6,7.89-3.18,11-5.07a3.15,3.15,0,0,0,1.6-2c.25-1.16-.25-2.57-1.55-4.43a38.35,38.35,0,0,0-64,1.86,3,3,0,0,0,.1,3.51A4.15,4.15,0,0,0,19.63,23.16Zm-4-3.91a37.39,37.39,0,0,1,62.43-1.82c1.13,1.61,1.58,2.81,1.4,3.67a2.15,2.15,0,0,1-1.15,1.36c-3.09,1.86-7.57,4.39-10.72,4.95-4,.72-8-.05-12.28-2.37a35.42,35.42,0,0,1-3.42-2.18c-2.18-1.5-4.43-3.06-7.25-3.6-1.6-.31-7-1.51-8.43-4.12a2.91,2.91,0,0,1-.15-2.52,3.26,3.26,0,0,1,1.78-2c2.51-1.09,6.89.78,11.13,2.59,1.42.6,2.9,1.23,4.25,1.72,1.9.69,4.36,1.39,5.27.79a.89.89,0,0,0,.42-.73L58,14.89c-.15.13-1.28.24-4.41-.89-1.33-.48-2.72-1.08-4.2-1.71-4.43-1.88-9-3.83-11.9-2.58a4.24,4.24,0,0,0-2.3,2.58,3.81,3.81,0,0,0,.22,3.32c1.63,2.9,6.9,4.19,9.09,4.61a11.12,11.12,0,0,1,2.17.65c-1.39.93-2.93,2.12-4.43,3.28a39.9,39.9,0,0,1-4.57,3.25,1.8,1.8,0,0,1-2.28-.24,1,1,0,0,1,.15-1.28l.52-.59c.4-.46.89-1,1.14-1.26l1.34-1.28-2,.52-.18.09c-.48.37-1,.77-1.44,1.18a22.68,22.68,0,0,1-3,2.26,2.54,2.54,0,0,1-3.09-.16,1.12,1.12,0,0,1-.08-1.51,39.34,39.34,0,0,1,2.51-3.26l1.25-1.21-2,.46-.18.09c-.37.28-.87.74-1.4,1.23a17.58,17.58,0,0,1-2.5,2.1c-1.52.87-2.85.59-3.51-.08a1.72,1.72,0,0,1-.13-2.18c.45-.74,2.25-3,2.68-3.52l.94-1.06-1.84.35-.1.09c-.24.2-.53.47-.86.77-1.28,1.18-3.21,2.95-4.27,3.34a3.22,3.22,0,0,1-3.63-.6A2,2,0,0,1,15.63,19.25Z"/>
</svg>
