<svg id="Layer_1" data-name="Layer 1" xmlns="http://www.w3.org/2000/svg" width="1.32in" height="1.06in" viewBox="0 0 94.75 76.32">
  <defs>
    <style>
      .muw-svg {
        fill: #9296c5;
      }
    </style>
  </defs>
  <title>Icon_Artboard 18 copy 2</title>
  <path id="Icon_Education" class="muw-svg" d="M91.3,30.87v-3H63.41l-2.61,1.4-2.6-1.4H50.66V25.41l12.45-5.19L31.57,5,0,20.22l4.64,1.93V36.36a3.43,3.43,0,1,0,1,0V22.56l6.82,2.85v9.2a.89.89,0,0,0-.11.43c0,.72.7,1.54,5.92,2.22,2.57.34,5.75.56,9.21.66V70.39H58l1.25.58a3.73,3.73,0,0,0,1.57.34A3.88,3.88,0,0,0,62.3,71l1.34-.6H94V30.87ZM58,28.83l2.85,1.53,2.86-1.53H90.3V66.35H63.41l-2.65,1.4-2.56-1.4h-27V38h.39a109.14,109.14,0,0,0,13.3-.72,31.06,31.06,0,0,0,3.35-.58v0h8.41v-1H50.49a.88.88,0,0,0,.32-.69.87.87,0,0,0-.15-.49V28.83ZM7.59,39.75a2.44,2.44,0,1,1-2.43-2.44A2.43,2.43,0,0,1,7.59,39.75ZM12.66,24.4,2.46,20.15,31.57,6.06,60.68,20.15,50.47,24.4c-1.16-2.49-8.4-5.7-18.9-5.7S13.82,21.91,12.66,24.4Zm37,.67v8.79a19.94,19.94,0,0,0-4.77-1,107.15,107.15,0,0,0-13.3-.72,107.15,107.15,0,0,0-13.3.72,18.93,18.93,0,0,0-4.81,1.05V25.07c0-1.38,6.22-5.37,18.09-5.37S49.66,23.69,49.66,25.07ZM13.41,35c.79-.81,7.5-1.93,18.18-1.93S49,34.23,49.77,35C49,35.86,42.27,37,31.59,37S14.2,35.86,13.41,35ZM93,69.39H63.53l-1.64.68a2.7,2.7,0,0,1-2.26,0l-1.45-.67H28.5V37.94c.56,0,1.13,0,1.7,0V67.35H57.94l2.81,1.53,2.91-1.53H91.3V31.87H93ZM83.22,36.73H65.39v-1H83.22Zm0,6.21H65.39v-1H83.22Zm0,6.21H65.39v-1H83.22Zm0,6.21H65.39v-1H83.22Zm-5.33,6.21H65.39v-1h12.5ZM38.83,41.94H56.65v1H38.83Zm0,6.21H56.65v1H38.83Zm0,6.21H56.65v1H38.83Zm0,6.21H56.65v1H38.83Z"/>
</svg>
