<svg id="Layer_1" data-name="Layer 1" xmlns="http://www.w3.org/2000/svg" width="1.32in" height="1.06in" viewBox="0 0 94.75 76.32">
  <defs>
    <style>
      .muw-svg {
        fill: #9296c5;
      }
    </style>
  </defs>
  <title>Icon_Artboard 18 copy 3</title>
  <path id="Icon_Employeement" class="muw-svg" d="M83.28,75.17l0-59.7L68.9,1.15H24.42V40.52A9.72,9.72,0,0,0,21.6,59.16H13.7v5.9h5.05v4.21H11.47v5.9H83.28ZM69.1,2.73,81.48,15.1H69.1Zm-43.7-.6H68.12v14H82.26l0,58.11H31.46V70.11h7.29V64.22H33.69V59.16H29.13A9.72,9.72,0,0,0,25.4,40.47ZM16.62,50.19a8.74,8.74,0,0,1,8.19-8.72,5.06,5.06,0,0,1,.55,0,8.75,8.75,0,1,1-8.74,8.74Zm.84,13.89V62.63h-1v1.45h-1.8V60.14h18v3.94h-1.9V62.63h-1v1.45H27.47V62.63h-1v1.45H24.13V62.63h-1v1.45H20.8V62.63h-1v1.45Zm13,10.11H28.61V72.57h-1v1.62H25.27V72.57h-1v1.62H21.93V72.57H21v1.62H18.6V72.57h-1v1.62H15.26V72.57h-1v1.62H12.45V70.25h18Zm-1.11-5.06V67.49h-1v1.64H26V67.49h-1v1.64H22.69V67.49h-1v1.64h-2V65.2h18v3.93H36V67.49h-1v1.64H32.7V67.49h-1v1.64ZM72,20.44H46.82v-1H72Zm0,3.85H46.82v-1H72Zm0,3.85H46.82v-1H72Zm-36,2.6L72,31v1l-36-.27ZM36,35l36,.27v1L36,36Zm-.16,4.25L72,39.51v1l-36.15-.27Zm.08,4.24L72,43.76v1l-36.07-.28ZM46.82,49.7H72v1H46.82Zm0,4.18H57.93v1H46.82ZM42.67,21.19a4.21,4.21,0,0,0-4.15-4.07v-.57a5.67,5.67,0,0,0,1.57-3.74l.38-.38V7.36a2,2,0,0,0-2-2H34.36a1.62,1.62,0,0,0-1.54,1.12,1.62,1.62,0,0,0-1.58,1.62v4.32l.38.38a5.63,5.63,0,0,0,1.63,3.79V17c-2,.15-4.16,1.85-4.16,4v7.9H42.67ZM32.22,8.11a.64.64,0,0,1,.64-.64h.86V7a.64.64,0,0,1,.64-.63h4.12a1,1,0,0,1,1,1v3.21a.26.26,0,0,1-.14-.21V9.61a1.24,1.24,0,0,0-.75-1.14V7.31L36.49,8.37H33.61a1.24,1.24,0,0,0-1.24,1.24v.73s-.07.08-.15.13Zm.38,4.5V12.4L32.22,12v-.5c.55-.15,1.13-.57,1.13-1.17V9.61a.26.26,0,0,1,.26-.26h3.11l.9-.45v.45h.49a.26.26,0,0,1,.26.26v.75a1.22,1.22,0,0,0,1.12,1.21V12l-.37.37v.21c0,1.55-.89,4-3.26,4S32.6,14.16,32.6,12.61Zm4.94,4.62v.68a2.27,2.27,0,0,1-1.61.9,2.67,2.67,0,0,1-1.7-.92v-.64a4,4,0,0,0,1.63.34A4,4,0,0,0,37.54,17.23Zm4.15,10.68H30.07V21c0-1.55,1.68-2.87,3.18-3v.29l.1.13a3.83,3.83,0,0,0,2.58,1.41,3.35,3.35,0,0,0,2.51-1.44l.08-.13V18.1a3.22,3.22,0,0,1,3.17,3.09ZM24.87,55v-.89A2.25,2.25,0,0,1,23.11,52h1a1.27,1.27,0,1,0,2.54,0c0-.44-.88-1-1.47-1.31-.21-.09-2.05-1-2.05-2.21a2.26,2.26,0,0,1,1.76-2.19v-.88h1v.88a2.25,2.25,0,0,1,1.76,2.19h-1a1.27,1.27,0,0,0-2.54,0c0,.45.88,1,1.47,1.32.21.09,2.05,1,2.05,2.2a2.24,2.24,0,0,1-1.76,2.19V55Z"/>
</svg>
