<svg version="1.1" class="star" id="Employee_Highlight" xmlns="http://www.w3.org/2000/svg" xmlns:xlink="http://www.w3.org/1999/xlink" x="0px"
	 y="0px" viewBox="0 0 59.8 59.8" style="enable-background:new 0 0 59.8 59.8;" xml:space="preserve">
<style type="text/css">
	.st0{fill:#FFFFFF;}
</style>
<title>Employee_Spotlight</title>
<path id="spotlight" class="st0" d="M39.9,44.7c-0.2,0-0.4-0.1-0.6-0.2l-9.5-7.1l-9.5,7.1c-0.4,0.3-0.8,0.3-1.2,0
	c-0.3-0.3-0.5-0.7-0.3-1.1l3.6-10.7l-8.2-7.1c-0.4-0.4-0.5-1-0.1-1.4c0.2-0.2,0.4-0.3,0.7-0.3h10.2l3.8-10.7
	c0.2-0.5,0.8-0.8,1.3-0.6c0.3,0.1,0.5,0.3,0.6,0.6l3.8,10.7h10.2c0.6,0,1,0.4,1,1c0,0.3-0.1,0.6-0.3,0.8l-8.2,7.1l3.5,10.7
	c0.1,0.4,0,0.9-0.4,1.1C40.3,44.6,40.1,44.7,39.9,44.7z M29.9,35.2c0.2,0,0.4,0.1,0.6,0.2L38,41l-2.8-8.3c-0.1-0.4,0-0.8,0.3-1.1
	l6.6-5.7h-8.3c-0.4,0-0.8-0.3-0.9-0.7l-3-8.7l-3,8.7c-0.1,0.4-0.5,0.7-0.9,0.7h-8.3l6.6,5.7c0.3,0.3,0.4,0.7,0.3,1.1L21.8,41
	l7.5-5.6C29.5,35.2,29.7,35.2,29.9,35.2z M29.9,59.8C13.4,59.8,0,46.4,0,29.9S13.4,0,29.9,0s29.9,13.4,29.9,29.9
	S46.4,59.8,29.9,59.8z M29.9,2C14.5,2,2,14.5,2,29.9s12.5,27.9,27.9,27.9s27.9-12.5,27.9-27.9S45.3,2,29.9,2z M29.9,52.2
	c-12.3,0-22.3-10-22.3-22.3s10-22.3,22.3-22.3s22.3,10,22.3,22.3l0,0C52.2,42.2,42.2,52.2,29.9,52.2z M29.9,9.5
	c-11.2,0-20.3,9.1-20.3,20.3s9.1,20.3,20.3,20.3s20.3-9.1,20.3-20.3l0,0C50.2,18.6,41.1,9.5,29.9,9.5z"/>
</svg>
