<svg id="Layer_1" data-name="Layer 1" xmlns="http://www.w3.org/2000/svg" width="1.32in" height="1.06in" viewBox="0 0 94.75 76.32">
  <defs>
    <style>
      .muw-svg {
        fill: #9296c5;
      }
    </style>
  </defs>
  <title>Icon_Artboard 18 copy 17</title>
  <path class="muw-svg" d="M64.84,27.76v1c-4.35-.12-8.32-.3-8.36-.3l-.95-.05.58-.75s2.56-3.37,2.43-6.22c0-.46-.06-1-.11-1.63-.33-4-.88-10.76,3.22-14.26A11.24,11.24,0,0,1,73.52,3.93c.94-.17,5.3-.74,7.83,3.05,3.07,4.62,1.59,9.77.61,13.17a8.26,8.26,0,0,0-.55,2.73,7.86,7.86,0,0,0,2.77,4.55l.27.21-.1.35c-.1.32-.24.71-9.7.84v-1c3.75-.06,6.71-.2,8.13-.32a9.44,9.44,0,0,1-2.32-4.37A7.15,7.15,0,0,1,81,19.88c.93-3.23,2.34-8.12-.49-12.35-2.44-3.66-6.76-2.64-6.94-2.6L73.4,5l-.17-.09A10.06,10.06,0,0,0,62.3,6.3c-3.72,3.17-3.2,9.58-2.88,13.42,0,.63.09,1.2.11,1.67.11,2.36-1.31,4.88-2.11,6.11C58.84,27.56,61.74,27.68,64.84,27.76Zm0,0V26.7a11.33,11.33,0,0,1-3.34-7.87L60.71,18V15.27c0-1.23,1.37-1.66,3.45-2.31,1-.31,2.17-.69,3.51-1.22,2.37-1,4.85-4,4.87-4l.15-.18h.23c2.08,0,5.31,3.79,5.31,5.7,0,0,.13,2.84,0,5.38a11.35,11.35,0,0,1-3.61,8.25V30h.61a7.92,7.92,0,0,1,7.92,7.91V52.61a4.14,4.14,0,0,1,2.94,3.94,4.7,4.7,0,0,1-1.36,2.78l-.12.09L54.18,75.26l-2.72,0L30.9,68H25.41v.72A1.71,1.71,0,0,1,23.7,70.4H9.13v-1H23.7a.72.72,0,0,0,.72-.72V46.84a.72.72,0,0,0-.72-.72H9.13v-1H23.7a1.69,1.69,0,0,1,1.48.87V36.32a8.17,8.17,0,0,1,8.17-8.16h1.16V24.61a11.79,11.79,0,0,1-3.37-8.09l-.82-.82V6.47a3,3,0,0,1,3-2.95h.36a3,3,0,0,1,2.92-2.46h9a3.78,3.78,0,0,1,3.78,3.78V15.7l-.83.82a11.75,11.75,0,0,1-3.36,8.09v3.55h.71A8.53,8.53,0,0,1,52,30.68l-.11.12a1.84,1.84,0,0,1,.41-.05h5.88a2.59,2.59,0,0,1,1.52.5A7.42,7.42,0,0,1,63.82,30h1V27.76Zm5-.17c5.58,0,7.27-5.88,7.39-9,.1-2.5,0-5.28,0-5.31,0-1.49-2.63-4.44-4.1-4.72A16,16,0,0,1,68,12.66c-1.37.54-2.59.93-3.58,1.24-1.59.5-2.75.87-2.75,1.37v2.36l.79.78v.21C62.49,22.09,64.5,27.59,69.88,27.59Zm0,1a7.42,7.42,0,0,1-4-1.14v3.87c.43.48,2.11,2.21,4,2.21a5.29,5.29,0,0,0,3.82-2.19V27.59A7.4,7.4,0,0,1,69.88,28.58Zm-9.11,4.81v7.15l-.54.54a8.3,8.3,0,0,1-1.51,4.51,5.19,5.19,0,0,1,4.37,5.11v3h0a4.14,4.14,0,0,1,1.17,2.88,4,4,0,0,1-.32,1.59l18-5.73.21,0V37.88A6.93,6.93,0,0,0,75.26,31h-.61v.68l-.08.13c-.08.11-1.89,2.74-4.73,2.74-2.68,0-4.8-2.6-4.89-2.71l-.11-.14V31h-1a6.43,6.43,0,0,0-3.47,1A2.62,2.62,0,0,1,60.77,33.39ZM49.54,40.67v.2c0,2.29,1.32,5.92,4.86,5.92s4.85-3.63,4.85-5.92v-.2l.53-.54V38.19l-.11.05c-.05-.08-1.1-2.14-5-2.28A7,7,0,0,0,49,38.81v1.32Zm4.86,7.11A5.4,5.4,0,0,1,52,47.24v.56a3.67,3.67,0,0,0,2.36,1.29,3.11,3.11,0,0,0,2.24-1.27v-.5A5.28,5.28,0,0,1,54.4,47.78Zm-3.76-1.29a4,4,0,0,0-4,3.95v1l2.6.94H60.13a4,4,0,0,1,2,.53V50.7a4.22,4.22,0,0,0-4.21-4.21,3.47,3.47,0,0,1-.29.25v1.4l-.09.12a4.23,4.23,0,0,1-3.14,1.82,4.82,4.82,0,0,1-3.25-1.79l-.1-.13V46.59l-.12-.1Zm.51-13.14h-1A1.11,1.11,0,0,0,49,34.46v2.83A7.64,7.64,0,0,1,54.43,35h.28a7.37,7.37,0,0,1,5.07,1.85V33.39a1.65,1.65,0,0,0-1.64-1.65H52.26a1.11,1.11,0,0,0-1.11,1.11ZM31.31,12.5c.68-.13,1.47-.64,1.47-1.11V9.75a2.14,2.14,0,0,1,2.14-2.13h6.44l3.89-1.95v2a2.13,2.13,0,0,1,1.64,2.07v1.64A1.15,1.15,0,0,0,48,12.54h.33V4.84a2.79,2.79,0,0,0-2.79-2.79h-9a2,2,0,0,0-2,2v.49H33.28a2,2,0,0,0-2,2Zm8.52,13.15c5.62,0,7.71-5.73,7.71-9.34v-.2l.82-.82V13.53H48a2.14,2.14,0,0,1-2.13-2.14V9.75a1.15,1.15,0,0,0-1.15-1.14h-.49V7.28L41.59,8.61H34.92a1.15,1.15,0,0,0-1.15,1.14v1.64c0,1.13-1.37,2-2.46,2.11v1.79l.82.82v.2C32.13,19.92,34.22,25.65,39.83,25.65Zm0,1a7.64,7.64,0,0,1-4.33-1.26v4.21C36,30.11,37.82,32,39.94,32s3.85-1.93,4.23-2.42V25.38A7.65,7.65,0,0,1,39.83,26.64ZM26.17,47.56l9.84,0,9.69,3.52v-.67a4.94,4.94,0,0,1,4.35-4.88,8.26,8.26,0,0,1-1.49-4.48L48,40.54V34.46a2.1,2.1,0,0,1,2.1-2.1h.1a2.13,2.13,0,0,1,.8-1.2,7.54,7.54,0,0,0-5.15-2h-.71v.78l-.09.12c-.08.13-2,3-5.13,3-2.92,0-5.22-2.82-5.32-2.94L34.51,30v-.8H33.35a7.18,7.18,0,0,0-7.18,7.17Zm59,9a3.15,3.15,0,0,0-3.07-3.15l-19,6.05v0a4.13,4.13,0,0,1-3,1.26H46.77a3.15,3.15,0,0,0-3.15,3.15h-1a4.15,4.15,0,0,1,4.14-4.14H60.13a3.15,3.15,0,0,0,0-6.3l-11.1,0L35.76,48.55H25.41V67l5.74,0,20.56,7.26h2.22L84.11,58.58A3.6,3.6,0,0,0,85.13,56.55Z"/>
</svg>
