<svg id="Layer_1" data-name="Layer 1" xmlns="http://www.w3.org/2000/svg" width="1.32in" height="1.06in" viewBox="0 0 94.75 76.32">
  <defs>
    <style>
      .muw-svg {
        fill: #9296c5;
      }
    </style>
  </defs>
  <title>Icon_Artboard 18 copy 18</title>
  <path id="Icon_Farmersfeedingfamilies" class="muw-svg" d="M86.22,64.8l2-14.78a10.46,10.46,0,0,0-2.48-8.29,10.58,10.58,0,0,0-4-2.82l6-13.68a35.73,35.73,0,0,0,1.56-5.81c.83-4.42.21-5.31-.43-5.59-2.28-1-7.36,7.91-7.63,8.53L79.92,25.1V21.4c0-.68-1.09-10.89-3.55-10.89S72.81,20.72,72.81,21.4v3.23l-1-2.26c-.28-.63-5.38-9.53-7.64-8.54-.64.28-1.26,1.17-.43,5.59a35.73,35.73,0,0,0,1.56,5.81l6,13.68a10.58,10.58,0,0,0-4,2.82A10.46,10.46,0,0,0,64.82,50l2,14.78H56.88l2-14.78a10.46,10.46,0,0,0-2.48-8.29,10.58,10.58,0,0,0-4-2.82l6-13.68A35.73,35.73,0,0,0,60,19.42c.83-4.42.21-5.31-.43-5.59-2.28-1-7.36,7.91-7.63,8.53L50.58,25.1V21.4c0-.68-1.09-10.89-3.55-10.89S43.47,20.72,43.47,21.4v3.23l-1-2.26c-.28-.63-5.37-9.53-7.64-8.54S35.69,24.6,36,25.23l6,13.68a10.58,10.58,0,0,0-4,2.82A10.46,10.46,0,0,0,35.48,50l2,14.78H27.54l2-14.78a10.46,10.46,0,0,0-2.48-8.29,10.58,10.58,0,0,0-4-2.82l6-13.68c.28-.63,3.38-10.41,1.13-11.4s-7.36,7.91-7.63,8.53L21.24,25.1V21.4c0-.68-1.09-10.89-3.55-10.89S14.13,20.72,14.13,21.4v3.23l-1-2.26c-.28-.63-5.39-9.53-7.64-8.54-.64.28-1.26,1.17-.43,5.59a35.73,35.73,0,0,0,1.56,5.81l6,13.68a10.58,10.58,0,0,0-4,2.82A10.46,10.46,0,0,0,6.14,50l2,14.78H.71v1H94v-1Zm-6-38,1.92-4c1.57-3.58,5.74-8.22,6.31-8,.61.34-.16,6.72-1.63,10.09l-6,13.75c-.31-.09-.61-.17-.93-.23a.48.48,0,0,0,.07-.24v-11A.48.48,0,0,0,80.22,26.81ZM73.81,21.4c0-3.67,1.87-9.83,2.56-9.89s2.55,6.22,2.55,9.89V38.11s0,.07,0,.1a9.64,9.64,0,0,0-1.08-.06H75.18a9.33,9.33,0,0,0-1.4.11.4.4,0,0,0,0-.15Zm-7.59,3.43c-1.47-3.37-2.24-9.75-1.63-10.09s4.74,4.45,6.31,8l1.68,3.81a.45.45,0,0,0,.23.24V38.11a.48.48,0,0,0,.1.29c-.22.05-.43.12-.65.18Zm.91,34.8h5.22v-1H67l-1.18-8.75a9.36,9.36,0,0,1,.25-3.73h8v-1h-7.7a9.1,9.1,0,0,1,1.67-2.76,9.43,9.43,0,0,1,7.12-3.24h2.68a9.46,9.46,0,0,1,9.37,10.73l-.49,3.61h-7v1h6.84L85.21,64.8H67.83ZM50.88,26.81l1.92-4c1.47-3.36,5.65-8.25,6.31-8S59,21.46,57.48,24.83l-6,13.75c-.31-.09-.61-.17-.93-.23a.48.48,0,0,0,.07-.24v-11A.48.48,0,0,0,50.88,26.81ZM44.47,21.4c0-3.67,1.87-9.83,2.56-9.89s2.55,6.22,2.55,9.89V38.11s0,.07,0,.1a9.77,9.77,0,0,0-1.08-.06H45.84a9.33,9.33,0,0,0-1.4.11.4.4,0,0,0,0-.15Zm-7.59,3.43c-1.47-3.36-2.24-9.75-1.63-10.09s4.84,4.67,6.31,8l1.68,3.81a.45.45,0,0,0,.23.24V38.11a.48.48,0,0,0,.1.29c-.22.05-.43.12-.65.18Zm.91,34.8H43v-1H37.65l-1.18-8.75a9.36,9.36,0,0,1,.25-3.73h8v-1h-7.7a9.1,9.1,0,0,1,1.67-2.76,9.43,9.43,0,0,1,7.12-3.24h2.68a9.46,9.46,0,0,1,9.37,10.73l-.49,3.61h-7v1h6.84L55.87,64.8H38.49ZM21.54,26.81l1.92-4c1.47-3.36,5.61-8.27,6.31-8,.54.3-.06,6.51-1.63,10.09l-6,13.75c-.31-.09-.61-.17-.93-.23a.48.48,0,0,0,.07-.24v-11A.48.48,0,0,0,21.54,26.81ZM15.13,21.4c0-3.67,1.87-9.82,2.56-9.89s2.55,6.22,2.55,9.89V38.11s0,.07,0,.1a9.64,9.64,0,0,0-1.08-.06H16.5a9.33,9.33,0,0,0-1.4.11.4.4,0,0,0,0-.15ZM7.54,24.83C6.07,21.46,5.3,15.08,5.91,14.74s4.84,4.67,6.31,8l1.68,3.81a.45.45,0,0,0,.23.24V38.11a.48.48,0,0,0,.1.29c-.22.05-.43.12-.65.18Zm.91,34.8h5.21v-1H8.31L7.13,49.88a9.36,9.36,0,0,1,.25-3.73h8v-1H7.71a9.1,9.1,0,0,1,1.67-2.76,9.43,9.43,0,0,1,7.12-3.24h2.68a9.46,9.46,0,0,1,9.37,10.73l-.49,3.61h-7v1h6.85L26.53,64.8H9.15Z"/>
</svg>
