<svg id="Layer_1" data-name="Layer 1" xmlns="http://www.w3.org/2000/svg" width="1.32in" height="1.06in" viewBox="0 0 94.75 76.32">
  <defs>
    <style>
      .muw-svg {
        fill: #9296c5;
      }
    </style>
  </defs>
  <title>Icon_Artboard 18 copy 19</title>
  <path id="Icon_Food" class="muw-svg" d="M73.3,33.84C78.28,17,78,2.59,72.54,1c-4.88-1.45-12,8.19-17,22.5-.5-2.25-.77-2.83-1-3.06a6.8,6.8,0,0,0-2.77-1.71,6.2,6.2,0,0,1-1.34-.66,3.53,3.53,0,0,1-1-1.5l.41-.09a1.42,1.42,0,0,0,1.09-1.68l-.34-1.57a1.39,1.39,0,0,0-.62-.89,1.37,1.37,0,0,0-1.06-.2l-9.75,2.1A1.41,1.41,0,0,0,38,15.91l.34,1.58a1.41,1.41,0,0,0,.62.89,1.38,1.38,0,0,0,.76.23,1,1,0,0,0,.3,0l1-.21a4.53,4.53,0,0,1-.66,1.88,8.1,8.1,0,0,1-.72.81A5.06,5.06,0,0,0,38,23.91a3,3,0,0,0,0,.67,9.33,9.33,0,0,0-2.15-.87,5.52,5.52,0,0,0-2.45-.15,6.15,6.15,0,0,0-3.49,1.6,7.08,7.08,0,0,0-.73.78l-.09.11a3.39,3.39,0,0,1-.65.54,4.6,4.6,0,0,0-1.56-3c-1.69-1.32-5-.47-5.14-.43l.25,1c.82-.21,3.2-.58,4.28.26A3.87,3.87,0,0,1,27.43,27a3.85,3.85,0,0,1-.68.1h-.13a7,7,0,0,0-1.06.06,6.05,6.05,0,0,0-3.39,1.66,5.46,5.46,0,0,0-1.48,2,7.48,7.48,0,0,0-.76,3.49,9.63,9.63,0,0,0,.67,2.92H17.86l4.08,32.17a7.1,7.1,0,0,0,7,6H62.32a7.1,7.1,0,0,0,7-6l5.51-32.2H72.19C72.57,36.2,72.94,35.06,73.3,33.84ZM72.26,2C77,3.34,77,17.82,72.34,33.56c-.39,1.32-.8,2.56-1.21,3.71H69l-.1.38a4.65,4.65,0,0,1-9,0l-.09-.38H56.27l-.1.38a4.67,4.67,0,0,1-3.66,3.42c0-.31,0-.61,0-.94A55.21,55.21,0,0,1,55,28.42C59.65,12.68,67.56.56,72.26,2ZM39.85,17.6a.42.42,0,0,1-.31-.06.37.37,0,0,1-.18-.26L39,15.7a.39.39,0,0,1,0-.31.48.48,0,0,1,.26-.18l9.75-2.1h.09a.38.38,0,0,1,.22.07.4.4,0,0,1,.18.26L49.91,15a.42.42,0,0,1-.06.31.37.37,0,0,1-.26.18ZM38.94,24a4.2,4.2,0,0,1,1.45-2.27,9.54,9.54,0,0,0,.82-.92,5.58,5.58,0,0,0,.84-2.36l6.38-1.62a4.67,4.67,0,0,0,1.4,2,6.4,6.4,0,0,0,1.57.78,5.92,5.92,0,0,1,2.4,1.46c.08.1.39.71,1.09,4.23h0c-.3.92-.6,1.85-.88,2.81a56.6,56.6,0,0,0-2.5,11.93c0,.38,0,.73,0,1.07a4.65,4.65,0,0,1-4.34-3.49l-.1-.38H43.55l-.1.38A4.64,4.64,0,0,1,40.13,41a15.34,15.34,0,0,0,1.16-12.32l-.44-.91A9.29,9.29,0,0,0,39,25.39,6.11,6.11,0,0,1,38.94,24ZM21.61,31.26a4.44,4.44,0,0,1,1.24-1.69,5.07,5.07,0,0,1,2.85-1.4,6.26,6.26,0,0,1,.92-.05h.18a4.2,4.2,0,0,0,2.9-1.32l.18-.21a6.66,6.66,0,0,1,.65-.7,5.18,5.18,0,0,1,2.95-1.34,4.65,4.65,0,0,1,2,.12,7,7,0,0,1,2.58,1.23v0h0l.14.11A8.26,8.26,0,0,1,40,28.2l.41.87a14.16,14.16,0,0,1-1.23,11.64.47.47,0,0,0,0,.43H39a4.67,4.67,0,0,1-4.51-3.5l-.09-.38H30.84l-.1.38a4.65,4.65,0,0,1-9,0l-.1-.38h-.05a.54.54,0,0,0,0-.28,8.58,8.58,0,0,1-.63-2.71A6.51,6.51,0,0,1,21.61,31.26Zm52.07,7-5.31,31a6.09,6.09,0,0,1-6.05,5.18H29a6.11,6.11,0,0,1-6.06-5.18L19,38.27h1.87a5.65,5.65,0,0,0,10.73,0h2a5.64,5.64,0,0,0,10.72,0h2a5.65,5.65,0,0,0,10.73,0h2a5.64,5.64,0,0,0,10.72,0Zm-12-19.06-.34-.94,11-3.93.34.94Zm-1.8,7.42-.33-.94,11-3.94.33.95ZM57.66,34l-.34-.94,11-3.93.33.94ZM27.71,68.75H43.34v1H27.71Zm13-4.21h-13v-1h13Zm-3.9-5.21H27.71v-1h9.12Z"/>
</svg>
