<svg id="Layer_1" data-name="Layer 1" xmlns="http://www.w3.org/2000/svg" width="1.32in" height="1.06in" viewBox="0 0 94.75 76.32">
  <defs>
    <style>
      .muw-svg {
        fill: #9296c5;
      }
    </style>
  </defs>
  <title>Icon_Artboard 18 copy 8</title>
  <path id="Icon_GovernmentLaw" class="muw-svg" d="M90.75,68.75V65.19H88.44V61.62h-4V35.44h1.86V31.76h4.4v-9H80V15.19H49.82V8l3.25-.86V8.78L61.26,6,55.08,3.64V2.76L48.84,1.58V15.19H15.15V22.8H4v9H9.28v3.68h2V61.62H6.66v3.57H4v3.56H1V73.3H93.8V68.75ZM58.37,5.92,54.05,7.41V6.9l1-.27V4.68ZM49.82,2.76l4.28.81v2.3l-1,.27h0L49.82,7ZM83.51,61.62H79V35.44h4.54Zm1.86-27.16H77V32.09h8.4Zm-7.38,1V61.62H67.81V35.44h1.87V31.76H76v3.68ZM51.13,61.62V35.44H53V31.76h6.31v3.68h2V61.62Zm-16.67,0V35.44h1.86V31.76h6.31v3.68h2V61.62ZM26.94,32.09h8.4v2.37h-8.4Zm2,3.35h4.55V61.62H28.93ZM52,32.09v2.37H43.61V32.09Zm-6.41,3.35h4.54V61.62H45.61ZM68.7,32.09v2.37H60.29V32.09Zm-6.41,3.35h4.54V61.62H62.29ZM16.13,16.17H79V22.8H16.13ZM5,23.78H89.77v7H5Zm21,8v3.68h2V61.62H17.78V35.44h1.86V31.76Zm-15.7,2.7V32.09h8.4v2.37h-8.4Zm2,1H16.8V61.62H12.25ZM7.64,62.6H87.46v2.59H7.64ZM5,66.17H89.77v2.58H5Zm87.84,6.15H1.93V69.73H92.82Z"/>
</svg>
