<svg id="Layer_1" data-name="Layer 1" xmlns="http://www.w3.org/2000/svg" width="1.32in" height="1.06in" viewBox="0 0 94.75 76.32">
  <defs>
    <style>
      .muw-svg {
        fill: #9296c5;
      }
    </style>
  </defs>
  <title>Icon_Artboard 18 copy 11</title>
  <path id="Icon_HealthyBabies" class="muw-svg" d="M69,45.38A16.58,16.58,0,0,0,80.69,29.55V17.14A16.56,16.56,0,0,0,64.14.59H55.48v16.7s0,0,0,0A4.69,4.69,0,0,0,51,22a4.91,4.91,0,0,0,.08.86H25.45L19.21,13a3.06,3.06,0,1,0-2.15.88,3.11,3.11,0,0,0,1.18-.24l6.2,9.82v6.11A16.55,16.55,0,0,0,35.14,45h0l16.38,10-7.19,4.57a9.6,9.6,0,1,0,1.8,6.2H59.66a9.58,9.58,0,1,0,1.71-6.09l-7.65-4.7ZM15.16,10.79a1.9,1.9,0,1,1,1.9,1.9A1.9,1.9,0,0,1,15.16,10.79ZM60.38,21.46l18.4-9a15.4,15.4,0,0,1,.74,4.73v5l-19.15.42a3.93,3.93,0,0,0,.06-.59A4.93,4.93,0,0,0,60.38,21.46Zm18-10.15-18.27,9a4.5,4.5,0,0,0-.4-.79l0,0,9.8-16.73A15.42,15.42,0,0,1,78.37,11.31ZM56.65,1.75h7.49a15.34,15.34,0,0,1,4.26.62l-9.49,16.2a4.64,4.64,0,0,0-2.28-1.18s0-.07,0-.1Zm-.92,16.72A3.53,3.53,0,1,1,52.2,22,3.53,3.53,0,0,1,55.73,18.47ZM25.61,29.55V24h25.9a4.68,4.68,0,0,0,8.57-.26l19.44-.43v6.22A15.4,15.4,0,0,1,64.14,44.93H41A15.4,15.4,0,0,1,25.61,29.55ZM38.88,46A16.25,16.25,0,0,0,41,46.1H64.14A14.88,14.88,0,0,0,65.78,46L52.61,54.37ZM36.55,73.7a8.44,8.44,0,1,1,6.78-13.44l-7.1,4.51a.58.58,0,0,0-.25.65.6.6,0,0,0,.57.42H45A8.44,8.44,0,0,1,36.55,73.7ZM44,61.24a8.21,8.21,0,0,1,1,3.44h-6.4Zm25.27-4.42a8.44,8.44,0,1,1-8.41,9h8.41a.58.58,0,0,0,.56-.42.59.59,0,0,0-.25-.66l-7.17-4.39A8.4,8.4,0,0,1,69.23,56.82Zm-8.41,7.86a8.44,8.44,0,0,1,.94-3.32l5.4,3.32Zm-.06-3.93a9.45,9.45,0,0,0-1.1,3.93H46.12A9.57,9.57,0,0,0,45,60.62l7.67-4.87Z"/>
</svg>
