<svg id="Layer_1" data-name="Layer 1" xmlns="http://www.w3.org/2000/svg" width="1.32in" height="1.06in" viewBox="0 0 94.75 76.32">
  <defs>
    <style>
      .muw-svg {
        fill: #9296c5;
      }
    </style>
  </defs>
  <title>Icon_Artboard 18 copy 4</title>
  <path id="Icon_Healthcare" class="muw-svg" d="M82,43.13a7.06,7.06,0,0,0-7,6.56H56.27V42.83c2.27-1.25,17.5-10.07,17.5-21.08v-12a4.86,4.86,0,0,0-4.42-4.83,3.77,3.77,0,1,0,0,1,3.87,3.87,0,0,1,3.43,3.84v12a14.76,14.76,0,0,1-3,8.38l0,0s-4.57,3.18-13.93,3.18S41.88,30.13,41.84,30.1l0,0a19.17,19.17,0,0,1-1.59-2.67l.19-.2c2.57-2.57,4.06-4.73,4.06-8.18A10.29,10.29,0,0,0,38.4,9.72h.36A3.88,3.88,0,0,1,42.2,5.88a3.79,3.79,0,1,0,0-1,4.85,4.85,0,0,0-4.4,4.58,10.23,10.23,0,0,0-3.6-.67c-2.73,0-5.48,1.37-8.17,4.06l-.95,1-1-1c-2.69-2.69-5.44-4.06-8.17-4.06A10.3,10.3,0,0,0,5.66,19.08a9.57,9.57,0,0,0,2.73,6.85L25.07,42.61l14.39-14.4c4.06,7.87,14,13.63,15.81,14.62v6.86H43.73A12.54,12.54,0,1,0,56.27,62.23V50.69H75a7.06,7.06,0,1,0,7-7.56Zm-16.41-35A2.78,2.78,0,1,1,68.4,5.34,2.79,2.79,0,0,1,65.61,8.12ZM45.92,2.56a2.78,2.78,0,1,1-2.78,2.78A2.77,2.77,0,0,1,45.92,2.56ZM25.07,41.19,9.13,25.26a8.54,8.54,0,0,1-2.47-6.18A9.29,9.29,0,0,1,15.94,9.8c2.49,0,4.93,1.24,7.47,3.77l1.66,1.66,1.65-1.66c2.54-2.53,5-3.77,7.47-3.77a9.29,9.29,0,0,1,9.28,9.28c0,3.12-1.32,5-3.77,7.47Zm30.2,21A11.54,11.54,0,1,1,43.73,50.69H55.27ZM55.77,42a50.05,50.05,0,0,1-12.5-10,30.72,30.72,0,0,0,12.5,2.29A30.76,30.76,0,0,0,68.27,32,50.17,50.17,0,0,1,55.77,42ZM82,56.26a6.07,6.07,0,1,1,6.07-6.07A6.07,6.07,0,0,1,82,56.26Z"/>
</svg>
