<svg id="Layer_1" data-name="Layer 1" xmlns="http://www.w3.org/2000/svg" width="1.32in" height="1.06in" viewBox="0 0 94.75 76.32">
  <defs>
    <style>
      .muw-svg {
        fill: #9296c5;
      }
    </style>
  </defs>
  <title>Icon_Artboard 18 copy 20</title>
  <path id="Icon_Housing" class="muw-svg" d="M48.32,3.54,28.55,17.23V5.54H19.33V23.62l-10,7.18h5.32V72.46H80.28V30.54h5.08ZM65.5,71.46H50V44a7.55,7.55,0,0,1,7.54-7.55H58A7.56,7.56,0,0,1,65.5,44Zm13.78,0H66.5V44A8.57,8.57,0,0,0,58,35.4h-.39A8.56,8.56,0,0,0,49,44V71.46H15.69V30.56L48.3,8l31,22.58Zm.3-41.92L48.32,6.76,15,29.8H12.47l7.86-5.67V6.54h7.22v12.6L48.3,4.77l34,24.77ZM28.32,57.06h12V35.4h-12Zm1-20.66h10V56.06h-10Z"/>
</svg>
