<svg id="Layer_1" data-name="Layer 1" xmlns="http://www.w3.org/2000/svg" width="1.32in" height="1.06in" viewBox="0 0 94.75 76.32">
  <defs>
    <style>
      .muw-svg {
        fill: #9296c5;
      }
    </style>
  </defs>
  <title>Icon_Artboard 18 copy 5</title>
  <path id="Icon_MentalhealthAddictions" class="muw-svg" d="M81.93,39.62l-5.16-10.3A29.08,29.08,0,0,0,27.12,9.11a48.58,48.58,0,0,0-3.91,4.6l-.58.79,19.54.09a15,15,0,0,1,0,30H15.58v1H22A31.65,31.65,0,0,0,28,51.15l1.24,1V62l-6-6.83a6,6,0,0,0-8.49-.55,6,6,0,0,0-.55,8.48l9.31,10.61a6,6,0,0,0,10-1.4,6.76,6.76,0,0,0,1,.09A6.4,6.4,0,1,0,31.1,60.5a7.32,7.32,0,0,0-.89.66V51.67l-1.61-1.3a36.67,36.67,0,0,1-5.3-4.76H42.17a16,16,0,0,0,0-32L25.55,13.5h-.93c1-1.24,2.35-2.83,3.2-3.69a28.1,28.1,0,0,1,48,19.63v.12L81,40.07a.49.49,0,0,1-.19.64l-5.06,3V59.39a.5.5,0,0,1-.5.5H65.16v8h1v-7h9.12a1.5,1.5,0,0,0,1.5-1.5V44.32l4.58-2.75A1.51,1.51,0,0,0,81.93,39.62Zm-67,22.8a5,5,0,0,1,.46-7.07,5,5,0,0,1,7.08.46l4.33,4.92-7.54,6.62ZM31.3,73.49A5,5,0,0,1,24.22,73L19.9,68.1l7.54-6.62L28.76,63a6.4,6.4,0,0,0-.56,1.46,6.32,6.32,0,0,0,.74,4.84,6.4,6.4,0,0,0,3.49,2.77A5.18,5.18,0,0,1,31.3,73.49Zm7.75-10.26a5.39,5.39,0,0,1-8.68,6.31Zm-4.64-2.65a5.18,5.18,0,0,1,1.29.16,5.35,5.35,0,0,1,2.76,1.68l-8.68,6.31a5.35,5.35,0,0,1-.61-4A5.41,5.41,0,0,1,34.41,60.58Zm5-38.13v4.43H35v5.43h4.43v4.44h5.43V32.31h4.43V26.88H44.88V22.45Zm8.86,5.43v3.43H43.88v4.44H40.45V31.31H36V27.88h4.43V23.45h3.43v4.43Zm-16.11,0H30v-1H32.2Zm-4.43,0H25.55v-1h2.22Zm-4.44,0H21.12v-1h2.21ZM30,31.31H32.2v1H30Zm-4.43,0h2.22v1H25.55Zm-2.22,1H21.12v-1h2.21Z"/>
</svg>
