<svg id="Layer_1" data-name="Layer 1" xmlns="http://www.w3.org/2000/svg" width="1.32in" height="1.06in" viewBox="0 0 94.75 76.32">
  <defs>
    <style>
      .muw-svg {
        fill: #9296c5;
      }
    </style>
  </defs>
  <title>Icon_Artboard 18 copy 10</title>
  <path id="Icon_Mentalhealth" class="muw-svg" d="M82,45.33,77.32,48.1V63.33a1.51,1.51,0,0,1-1.5,1.51H66.6v7.07h-1V63.84H75.82a.51.51,0,0,0,.5-.51V47.54l5.12-3.07a.52.52,0,0,0,.19-.66L76.32,33.2v-.12A28.38,28.38,0,0,0,27.88,13.25,49.14,49.14,0,0,0,24.64,17h.95l16.78.1a16.16,16.16,0,1,1,0,32.32H23.3a37.1,37.1,0,0,0,5.37,4.83l1.62,1.3V71.91h-1V56L28,55c-2.67-2.14-4.63-3.72-6-5.61H15.52v-1H42.37a15.16,15.16,0,1,0,0-30.32L22.65,18l.57-.79a49.62,49.62,0,0,1,4-4.65A29.38,29.38,0,0,1,77.32,33l5.2,10.4A1.52,1.52,0,0,1,82,45.33ZM45.11,26V30.5h4.47V36H45.11v4.47H39.63V36H35.15V30.5h4.48V26Zm-1,5.47V27H40.63V31.5H36.15V35h4.48v4.47h3.48V35h4.47V31.5Zm-11.81-1H30.06v1H32.3Zm-4.48,0H25.59v1h2.23Zm-4.47,0H21.11v1h2.24ZM30.06,36H32.3V35H30.06Zm-4.47,0h2.23V35H25.59Zm-2.24-1H21.11v1h2.24Z"/>
</svg>
