<svg id="Layer_1" data-name="Layer 1" xmlns="http://www.w3.org/2000/svg" width="1.32in" height="1.06in" viewBox="0 0 94.75 76.32">
  <defs>
    <style>
      .muw-svg {
        fill: #9296c5;
      }
    </style>
  </defs>
  <title>Icon_Artboard 18 copy 15</title>
  <path id="Icon_SeniorServices" class="muw-svg" d="M73.37,43.14H71.86V41.69c2.66-1.95,4.7-5.43,4.9-10.63.12-3.23,0-6.82-.05-6.86l0-.71-.66.28c-.09,0-2.15.87-5.44-1.11a9,9,0,0,1-2.52-2.77,7.57,7.57,0,0,0-1-1.23c.4-.58,1.14-1.64,1.87-2.56a5.73,5.73,0,0,0,1.34-3,12.26,12.26,0,0,1,7.43,11.25,12,12,0,0,1-.41,3.11,2.16,2.16,0,0,0-.51-.06v1a1.39,1.39,0,0,1,0,2.77v1a2.39,2.39,0,0,0,2.38-2.39,2.36,2.36,0,0,0-.95-1.88,13.15,13.15,0,0,0-3.72-13.2V12.64a7.27,7.27,0,0,0-7.26-7.26H65.17a7.27,7.27,0,0,0-7.26,7.26v.86h0a13.25,13.25,0,0,0-5.08,14.82,2.37,2.37,0,0,0,1.86,3.86v-1a1.39,1.39,0,0,1,0-2.77V30a15.85,15.85,0,0,0,3,8.69,13.49,13.49,0,0,0,2.1,2.32h-.14v2.09h-.81c-6.25,0-13.24,4.25-13.24,9.94V70.44h1V53.08c0-4.68,5.84-8.94,12.24-8.94h.81v2.22l.11.14c.11.14,2.77,3.39,6.12,3.39,3.56,0,5.82-3.29,5.92-3.42l.08-.13v-2.2h1.51c6.38,0,12.19,4.26,12.19,8.94V70.44h1V53.08C86.56,47.39,79.6,43.14,73.37,43.14ZM58.91,12.64a6.27,6.27,0,0,1,6.26-6.26h2.11a6.27,6.27,0,0,1,6.26,6.26v1.22a13.14,13.14,0,0,0-14.63-1ZM54.69,26.77v.64a2.48,2.48,0,0,0-1,.23,12.42,12.42,0,0,1-.45-3.28,12.23,12.23,0,0,1,16.1-11.62,4.58,4.58,0,0,1-1.15,2.74c-.88,1.1-1.74,2.36-2.07,2.85h0l-.14.28S64.18,22,61.18,23.24c-1.83.73-3.12,1.11-4.06,1.39C55.45,25.12,54.69,25.34,54.69,26.77Zm1,3.27V26.77c0-.63,0-.68,1.71-1.18,1-.29,2.28-.67,4.15-1.42a11.37,11.37,0,0,0,5-4.63,10.24,10.24,0,0,1,.66.91,10,10,0,0,0,2.83,3.07,8.11,8.11,0,0,0,5.68,1.35c0,1.17.11,3.76,0,6.15-.11,2.95-1.34,7.84-4.87,10.2h0v0a8.14,8.14,0,0,1-4.63,1.34C59.79,42.58,55.69,35.15,55.69,30ZM65.86,48.89c-2.52,0-4.72-2.31-5.23-2.89V41.73a9.34,9.34,0,0,0,10.23.61V46C70.44,46.58,68.53,48.89,65.86,48.89Zm-.11,2.35a2.06,2.06,0,1,0,2,2A2.05,2.05,0,0,0,65.75,51.24Zm0,3.11a1.06,1.06,0,1,1,1-1.06A1.06,1.06,0,0,1,65.75,54.35ZM70.18,50a1.74,1.74,0,1,0,1.74,1.74A1.74,1.74,0,0,0,70.18,50Zm0,2.48a.74.74,0,1,1,.74-.74A.74.74,0,0,1,70.18,52.48ZM61.31,50a1.74,1.74,0,1,0,1.74,1.74A1.74,1.74,0,0,0,61.31,50Zm0,2.48a.74.74,0,1,1,.74-.74A.74.74,0,0,1,61.31,52.48Zm12.24-5.9a1.5,1.5,0,1,0,1.5,1.5A1.5,1.5,0,0,0,73.55,46.58Zm0,2a.49.49,0,0,1-.49-.49.5.5,0,1,1,1,0A.49.49,0,0,1,73.55,48.57Zm-15.49-2a1.5,1.5,0,1,0,1.5,1.5A1.5,1.5,0,0,0,58.06,46.58Zm0,2a.49.49,0,0,1-.49-.49.5.5,0,0,1,.49-.5.51.51,0,0,1,.5.5A.5.5,0,0,1,58.06,48.57Zm6.79-18.13h1.77a3.28,3.28,0,0,0,6.52-.5,1.9,1.9,0,0,0,0-.25l1.94-1.1a.5.5,0,1,0-.49-.87l-1.68,1a3.28,3.28,0,0,0-6.26.77H64.85a3.27,3.27,0,0,0-6.21-.86l-1-.82a.5.5,0,0,0-.62.79l1.38,1.09c0,.1,0,.2,0,.3a3.27,3.27,0,0,0,6.51.5Zm5-2.78a2.29,2.29,0,1,1-2.28,2.28A2.29,2.29,0,0,1,69.85,27.66ZM59.34,29.94a2.28,2.28,0,1,1,2.28,2.29A2.28,2.28,0,0,1,59.34,29.94ZM31.85,56.88a2.94,2.94,0,0,0,2.94,2.94h1.15a2.94,2.94,0,0,0,2.94-2.94V52.79h-7Zm1-3.09h5v3.09a1.94,1.94,0,0,1-1.94,1.94H34.79a1.94,1.94,0,0,1-1.94-1.94ZM39,44.39,35.38,43.3l-4.45-3.61v0c3.66-1.68,5.9-5.29,6-10.12A2.71,2.71,0,0,0,39.11,27a7.23,7.23,0,0,0,0-.78A3.52,3.52,0,0,0,39,25a11.24,11.24,0,0,0,0-6.49c-1.59-4.31-3.54-5.36-4.47-5.62l0,0a10.78,10.78,0,0,0-8.37-3.55,11,11,0,0,0-7.72,2.84c-.21.21-.41.42-.59.64-.42,0-3,.33-5,5.71a11.1,11.1,0,0,0-.08,6.3,3,3,0,0,0-.25,1.48,7.41,7.41,0,0,0,0,.78,2.73,2.73,0,0,0,2.09,2.5c.16,4.56,2.15,8,5.43,9.81v.5L16,43.14l-4.16,1.25a5.15,5.15,0,0,0-3.68,5V70.44h1V49.35a4.14,4.14,0,0,1,3-4l4-1.19L22.77,51l1.77-1.4-.08.08h.68v6.68h1V49.63h.63L28.44,51,35,44.23l3.7,1.12a4.15,4.15,0,0,1,3,4V70.44h1V49.35A5.15,5.15,0,0,0,39,44.39ZM38,18.81A9.78,9.78,0,0,1,38.19,24s0,0-.06-.06L38,24a3.85,3.85,0,0,0-1.48-.33h-.33c0-1.12-.16-3.38-.68-4.22a2.76,2.76,0,0,0-1.67-.92c-1-.3-1.61-.52-1.61-1.11a4,4,0,0,1,1.8-3.65C34.51,13.85,36.4,14.43,38,18.81ZM26.13,10.28a10,10,0,0,1,7.22,2.77,5.08,5.08,0,0,0-2.08,4.37c0,1.37,1.34,1.78,2.32,2.07.42.13,1,.3,1.11.48a12,12,0,0,1,.53,4L33,25.7a3.26,3.26,0,0,0-6.1,1.07H25.15a3.27,3.27,0,0,0-6.21-.86L16.59,24A12.72,12.72,0,0,1,17.12,20c.11-.18.69-.35,1.11-.48,1-.29,2.32-.7,2.32-2.07a5.15,5.15,0,0,0-1.82-4.17c.12-.14.24-.28.37-.41A10.21,10.21,0,0,1,26.13,10.28Zm6.31,17A2.29,2.29,0,1,1,30.15,25,2.29,2.29,0,0,1,32.44,27.27Zm-8.24,0A2.28,2.28,0,1,1,21.92,25,2.28,2.28,0,0,1,24.2,27.27ZM13.81,18.81c1.62-4.39,3.51-5,3.94-5a4.08,4.08,0,0,1,1.8,3.65c0,.59-.61.81-1.61,1.11a2.8,2.8,0,0,0-1.67.91c-.51.83-.64,3-.67,4.18a3.48,3.48,0,0,0-1.89.42L13.63,24A9.78,9.78,0,0,1,13.81,18.81ZM15.66,29l.05-.65h-.54a1.67,1.67,0,0,1-1.6-1.64c0-.17,0-.31,0-.45,0-.8.25-1,.48-1.17l.17-.15a2,2,0,0,1,1.63-.21L18.67,27c0,.1,0,.2,0,.3a3.27,3.27,0,0,0,6.51.5h1.77a3.28,3.28,0,0,0,6.52-.5,3.68,3.68,0,0,0-.06-.58l2.38-1.89.12,0a2.45,2.45,0,0,1,1.51,0h0a1.74,1.74,0,0,0,.3.26c.22.17.46.37.47,1.17a3.77,3.77,0,0,1,0,.45,1.66,1.66,0,0,1-1.59,1.64h-.43l-.09.61c0,4.87-2.1,8.37-5.69,9.91h-.38V39a11.79,11.79,0,0,1-4.1.7C19.55,39.71,15.66,35.58,15.66,29ZM25.83,40.71a12.72,12.72,0,0,0,4.1-.66v4.12l-4.28,4.24L21.1,44.16V39.82A12.46,12.46,0,0,0,25.83,40.71ZM17,43.63l3.09-2.5V44.6l4.17,3.89-1.42,1.12Zm11.35,6L27,48.51l4-3.92V41l3.28,2.65Z"/>
</svg>
