<svg id="Layer_1" xmlns="http://www.w3.org/2000/svg" xmlns:xlink="http://www.w3.org/1999/xlink" width="1.32in" height="1.06in"
	 viewBox="0 0 94.8 76.3" style="enable-background:new 0 0 94.8 76.3;">
<style type="text/css">
	.muw-svg {
		fill:#9296C5;
	}
</style>
<path id="Icon_x5F_SocialDevelopment" class="muw-svg" d="M52.1,13.2c1.1,0,2.1-0.9,2.1-2c0-1.1-0.9-2-2.1-2c-1.1,0-1.9,0.9-1.9,2
	C50.2,12.3,51,13.2,52.1,13.2z M52.1,10.2c0.6,0,1.1,0.5,1.1,1c0,0.6-0.5,1-1.1,1c-0.6,0-0.9-0.5-0.9-1
	C51.2,10.6,51.6,10.2,52.1,10.2z M58.8,13.2c1.1,0,2.1-0.9,2.1-2c0-1.1-0.9-2-2.1-2c-1.1,0-2.1,0.9-2.1,2
	C56.7,12.3,57.6,13.2,58.8,13.2z M58.8,10.2c0.6,0,1.1,0.5,1.1,1c0,0.6-0.5,1-1.1,1c-0.6,0-1.1-0.4-1.1-1
	C57.7,10.6,58.2,10.2,58.8,10.2z M65.5,13.2c1.1,0,1.9-0.9,1.9-2c0-1.1-0.8-2-1.9-2c-1.1,0-2.1,0.9-2.1,2
	C63.4,12.3,64.3,13.2,65.5,13.2z M65.5,10.2c0.5,0,0.9,0.4,0.9,1c0,0.5-0.3,1-0.9,1c-0.6,0-1.1-0.5-1.1-1
	C64.4,10.6,64.9,10.2,65.5,10.2z M27.6,15.7c-1.1,0-1.9,0.9-1.9,2c0,1.1,0.8,2,1.9,2c1.1,0,2.1-0.9,2.1-2
	C29.6,16.6,28.7,15.7,27.6,15.7z M27.6,18.7c-0.6,0-0.9-0.5-0.9-1c0-0.6,0.4-1,0.9-1c0.6,0,1.1,0.5,1.1,1
	C28.6,18.3,28.1,18.7,27.6,18.7z M34.3,15.7c-1.1,0-2.1,0.9-2.1,2c0,1.1,0.9,2,2.1,2c1.1,0,2.1-0.9,2.1-2
	C36.4,16.6,35.4,15.7,34.3,15.7z M34.3,18.7c-0.6,0-1.1-0.5-1.1-1s0.5-1,1.1-1c0.6,0,1.1,0.5,1.1,1S34.9,18.7,34.3,18.7z M41,15.7
	c-1.1,0-2.1,0.9-2.1,2c0,1.1,0.9,2,2.1,2c1.1,0,1.9-0.9,1.9-2C42.9,16.6,42.1,15.7,41,15.7z M41,18.7c-0.6,0-1.1-0.5-1.1-1
	c0-0.6,0.5-1,1.1-1c0.5,0,0.9,0.4,0.9,1C41.9,18.2,41.6,18.7,41,18.7z M68.9,20.8l3.6,2.2h0.1c0.3,0,0.5-0.1,0.7-0.3
	c0.4-0.5,0.2-1.4-0.2-2.7c-0.1-0.4-0.3-0.9-0.3-1.1V3.4c0-1.1-1.1-1.9-2.4-1.9H47.3c-1.3,0-2.4,0.9-2.4,1.9v5.1H23.6
	c-1.3,0-2.4,0.9-2.4,1.9v14.3c0,0.2-0.1,0.7-0.3,1.1c-0.4,1.3-0.6,2.2-0.2,2.7c0.2,0.2,0.4,0.3,0.7,0.3h0.1l3.5-2.2h21.7
	c1.4,0,2.4-0.9,2.4-1.9v-4H68.9z M45.9,3.4c0-0.5,0.7-0.9,1.4-0.9h23.1c0.8,0,1.4,0.4,1.4,0.9v15.5c0,0.3,0.1,0.7,0.3,1.4
	c0.1,0.4,0.4,1.2,0.4,1.6l-3.4-2.1H47.3c-0.8,0-1.4-0.4-1.4-0.9V3.4z M48.1,24.9c0,0.5-0.7,0.9-1.4,0.9h-22l-3.2,2.1
	c0-0.4,0.3-1.2,0.4-1.6c0.2-0.7,0.3-1.1,0.3-1.4V10.5c0-0.5,0.7-0.9,1.4-0.9h21.3v9.3c0,1.1,1.1,1.9,2.4,1.9h0.8V24.9z M70.1,58.8
	v-2.9c2.7-2.4,3.8-6.3,3.8-9.1l0.9-0.9V33.7c0-2.3-1.9-4.2-4.2-4.2H60.6c-1.6,0-3,1.2-3.2,2.8h-0.5c-1.8,0-3.3,1.5-3.3,3.3v10.3
	l0.9,0.9c0,2.6,0.9,5.3,2.3,7.3c0.4,0.5,0.9,1.1,1.4,1.7v3.1c-5,0.1-9,4.1-9,9.1v6.4h1v-6.4c0-4.4,3.6-8,8-8.1v1.9l0.1,0.1
	c0.1,0.1,2.7,3.3,5.9,3.3c3.4,0,5.6-3.2,5.7-3.3l0.1-0.1v-1.9c4.4,0.1,8,3.7,8,8.1v6.4h1v-6.4C79,63,75,58.9,70.1,58.8z M56.9,33.3
	h1.4v-0.5c0-1.2,1-2.3,2.3-2.3h10.1c1.8,0,3.2,1.4,3.2,3.2v8.7h-0.4c-0.7,0-1.3-0.6-1.3-1.3v-1.8c0-1.1-0.8-2.1-1.8-2.3v-2.2
	L66,36.9h-7.2c-1.3,0-2.3,1-2.3,2.3v1.8c0,0.6-1,1.2-1.8,1.3v-6.8C54.6,34.3,55.6,33.3,56.9,33.3z M57.6,53.6
	c-1.3-1.9-2.1-4.5-2.1-7v-0.2l-0.9-0.9v-2.1c1.2-0.1,2.8-1.1,2.8-2.3v-1.8c0-0.7,0.6-1.3,1.3-1.3h7.5l3.1-1.5v1.5h0.5
	c0.7,0,1.3,0.6,1.3,1.3v1.8c0,1.3,1,2.3,2.3,2.3h0.4v2.1l-0.9,0.9v0.2c0,4.1-2.4,10.5-8.7,10.5C60.8,57.1,58.7,55.2,57.6,53.6z
	 M64.3,64.1c-2.4,0-4.5-2.2-5-2.8v-4.8c1.3,0.9,2.9,1.5,5,1.5c1.9,0,3.5-0.5,4.9-1.4v4.7C68.7,61.9,66.8,64.1,64.3,64.1z M41.2,50.9
	c-0.1-0.4,0.2-1.5,0.5-2.7c1-3.3,2.4-8.4-0.6-12.9c-2.5-3.7-6.7-3.2-7.7-3c-1-0.5-6.6-2.7-11.7,1.6c-4,3.4-3.5,10-3.2,14
	c0,0.6,0.1,1.2,0.1,1.6c0.1,2.8-2.4,6.1-2.4,6.1l-0.6,0.8l1,0c0,0,3.9,0.2,8.2,0.3v2.8l0.1,0.1c0.1,0.1,2.2,2.7,4.8,2.7
	c2.8,0,4.6-2.6,4.7-2.7l0.1-0.1v-0.8c4.3,0.2,7.7,3.8,7.7,8.1v7.5h1v-7.5c0-4.9-3.9-8.9-8.7-9.1v-1c9.3-0.1,9.4-0.5,9.5-0.8l0.1-0.4
	l-0.3-0.2C42.3,54.2,41.7,52.8,41.2,50.9z M21.8,45.8v-2.3c0-0.5,1.2-0.9,2.7-1.3c1-0.3,2.2-0.7,3.5-1.2c2.2-0.9,4.4-3.3,5-4
	c1.4,0.3,4,3.2,4,4.6c0,0,0.1,2.8,0,5.2c-0.1,3-1.8,8.8-7.2,8.8c-5.3,0-7.2-5.4-7.2-8.8v-0.2L21.8,45.8z M29.8,61.3
	c-1.9,0-3.5-1.7-3.9-2.2v-3.8c1.1,0.7,2.4,1.1,4,1.1c1.4,0,2.6-0.4,3.7-1v3.6C33.2,59.7,31.8,61.3,29.8,61.3z M34.5,55.8v-0.9
	c2.3-1.9,3.4-5.1,3.5-8.1c0.1-2.5,0-5.3,0-5.3c0-1.9-3.2-5.6-5.2-5.6h-0.2l-0.2,0.2c0,0-2.5,3-4.8,3.9c-1.3,0.5-2.5,0.9-3.4,1.2
	c-2,0.6-3.4,1.1-3.4,2.3v2.7l0.8,0.8c0.1,2.4,1,5.7,3.3,7.7v1c-3-0.1-5.8-0.2-7.2-0.3c0.8-1.2,2.2-3.7,2.1-6c0-0.5-0.1-1-0.1-1.6
	c-0.3-3.8-0.8-10,2.8-13.2c5-4.3,10.5-1.5,10.7-1.4l0.2,0.1l0.2,0c0,0,4.4-1.1,6.8,2.5C43,40,41.7,44.8,40.7,48
	c-0.4,1.5-0.7,2.5-0.5,3.2c0.5,1.7,1.1,3.1,2.3,4.3C41.1,55.6,38.2,55.7,34.5,55.8z M24.8,57.7v1c-4.5,0-8.1,3.6-8.1,8.1v7.5h-1
	v-7.5C15.7,61.8,19.8,57.7,24.8,57.7z"/>
</svg>
