<svg id="Layer_1" data-name="Layer 1" xmlns="http://www.w3.org/2000/svg" width="1.32in" height="1.06in" viewBox="0 0 94.75 76.32">
  <defs>
    <style>
      .muw-svg {
        fill: #9296c5;
      }
    </style>
  </defs>
  <title>Icon_Artboard 18 copy 16</title>
  <path id="Icon_Summerlearning" class="muw-svg" d="M21,16.06a6.56,6.56,0,0,0-6.56,6.56h-1A7.55,7.55,0,0,1,21,15.08ZM22.64,3.22h-1V8.51h1ZM15,10.14,12.36,5.56l-.85.5,2.66,4.57ZM4.17,13.56,8.76,16.2l.49-.85L4.66,12.72Zm2.69,9.19H1.57v1H6.86ZM3.91,33l.49.85L9,31.2l-.49-.85Zm7.15,7.7.85.49,2.64-4.59-.85-.49ZM39.8,14l-.49-.85-4.58,2.66.49.85Zm-7.15-7.7-.85-.49-2.64,4.59.85.49ZM46.38,36.39H29.53v1H46.38Zm0-5.87H29.53v1H46.38Zm25.12,0H54.65v1H71.5Zm0,5.87H54.65v1H71.5Zm0,5.87H54.65v1H71.5Zm0,5.87H54.65v1H71.5Zm-5,5.87H54.65v1H66.47ZM46.38,42.26H29.53v1H46.38Zm0,5.87H29.53v1H46.38Zm0,5.87H29.53v1H46.38ZM93.62,43l-2.31,4.31.09.1-9.68,9.07v6.86H74.41L66.19,71h0l-1.54,1.45h0l-.58.55a2.13,2.13,0,0,1-1.43.56,2.06,2.06,0,0,1-1.51-.66,2.2,2.2,0,0,1-.62-1.61,2.16,2.16,0,0,1,.7-1.54l.48-.46h0l.14-.12.58-.55h0L64,67.2h0l4.14-3.88H53l-1.27.56a3.62,3.62,0,0,1-1.44.31,3.52,3.52,0,0,1-1.49-.33l-1.18-.54H18.81V35.06a11.75,11.75,0,0,1-1.55-.52A12,12,0,1,1,33.79,23H47.85l2.46,1.32L52.77,23h26.4v2.88h2.55V50.53l6.72-6.3.1.1,4.45-2a.49.49,0,0,1,.56.11A.5.5,0,0,1,93.62,43ZM79.17,26.9v26l1.57-1.48V26.9ZM47.61,24H22.34V59.46H47.86l2.41,1.32,2.5-1.32H72a.45.45,0,0,1,.16,0l6-5.64V24H53l-2.71,1.45Zm-28.8,10V25.92h2.55V23H32.81a11,11,0,1,0-15.18,10.6A11.74,11.74,0,0,0,18.81,34.05ZM69.13,62.34l2-1.9H53l-2.76,1.45L47.6,60.44H21.36V26.9H19.79V62.34H47.84l1.37.63a2.57,2.57,0,0,0,2.12,0l1.56-.64Zm-6,8.55L62.36,70l-.48.45a1.23,1.23,0,0,0-.39.86,1.22,1.22,0,0,0,.33.89,1.09,1.09,0,0,0,.79.37,1.19,1.19,0,0,0,.79-.3l.58-.55Zm1.54-1.45-.81-.86-.82.78.81.86.81.86.82-.77Zm16-12.06-5.28,5h5.28Zm9.28-10L88.4,45.62,64.62,67.91l.81.86.81.87Zm2-3.54-2.82,1.29,1.35,1.44Z"/>
</svg>
