<svg id="Layer_1" data-name="Layer 1" xmlns="http://www.w3.org/2000/svg" width="1.32in" height="1.06in" viewBox="0 0 94.75 76.32">
  <defs>
    <style>
      .muw-svg {
        fill: #9296c5;
      }
    </style>
  </defs>
  <title>Icon_Artboard 18 copy 13</title>
  <path id="Icon_OutofSchoolPrograms" class="muw-svg" d="M75.45,11.49V.58h-9.8V8.22H61.48V8.05A5.08,5.08,0,0,0,56.41,3H55.07A5.08,5.08,0,0,0,50,8.05v.17H46.85c-.34,0-.68,0-1,0V.58H36v11.5a17.13,17.13,0,0,0-6.32,13.27v4.88a2.23,2.23,0,0,0-2.16-1.72H25.77a3.07,3.07,0,0,1,.36-1,.54.54,0,0,0,.34-.2l.18-.27-.31-1.57a.61.61,0,0,0-.59-.49H22.23a.61.61,0,0,0-.59.48l-.26,1.35,0,.31.36.39h.13a3.11,3.11,0,0,1,.34,1H20.53a2.22,2.22,0,0,0-.31,4.41.61.61,0,0,1-.07.1,1.32,1.32,0,0,1-.92.38H19.1A4.29,4.29,0,0,0,15,37.69v1.06a7.63,7.63,0,0,0,.92,3.61,6.4,6.4,0,0,1,1.42,3.86,5.24,5.24,0,0,1-1.5,3.85,4.59,4.59,0,0,0-1.19,2.4,9.23,9.23,0,0,0-.16,1.74V72.87a2.91,2.91,0,0,0,2.9,2.74H30.69a2.76,2.76,0,0,0,1.18-.27.4.4,0,0,0,.15.1,3.63,3.63,0,0,0,1.46.3h43A3.77,3.77,0,0,0,80.27,72V21.9A13.66,13.66,0,0,0,75.45,11.49Zm-8.8-9.91h7.8v9.14a13.65,13.65,0,0,0-7.8-2.5ZM51,8.05A4.08,4.08,0,0,1,55.07,4h1.34a4.08,4.08,0,0,1,4.07,4.07v.17h-1V8.16a3.32,3.32,0,0,0-3.32-3.32h-.83A3.33,3.33,0,0,0,52,8.16v.06H51Zm7.48.11v.06H53V8.16a2.32,2.32,0,0,1,2.33-2.32h.83A2.32,2.32,0,0,1,58.48,8.16ZM37,1.58h7.79V8.35a17.06,17.06,0,0,0-7.79,3ZM29.72,31.23v2.28a4.49,4.49,0,0,0-.83-.11h-.14a1.31,1.31,0,0,1-.91-.38l-.06-.09A2.2,2.2,0,0,0,29.72,31.23ZM22.56,26h2.86l.14.7a2.79,2.79,0,0,0-.76,1.6l-1.65,0a4.81,4.81,0,0,0-.18-.7,2,2,0,0,0-.55-.91Zm-3.25,4.78a1.22,1.22,0,0,1,1.22-1.22h7a1.22,1.22,0,1,1,0,2.44h-7A1.22,1.22,0,0,1,19.31,30.73Zm13.2,42.06a1.82,1.82,0,0,1-1.82,1.82H17.38a1.94,1.94,0,0,1-1.9-1.82V54.21a9,9,0,0,1,.14-1.56,3.6,3.6,0,0,1,.93-1.88,6.23,6.23,0,0,0,1.78-4.57,7.31,7.31,0,0,0-1.59-4.39A6.65,6.65,0,0,1,16,38.75V37.69a3.28,3.28,0,0,1,3.14-3.29h.11a2.26,2.26,0,0,0,1.61-.67,2.3,2.3,0,0,0,.49-.72h5.31a2.3,2.3,0,0,0,.49.72,2.27,2.27,0,0,0,1.62.67h.11A3.28,3.28,0,0,1,32,37.69V39a5.62,5.62,0,0,1-.65,2.63c-.06.1-.13.2-.2.3a6.91,6.91,0,0,0-1.51,4.24v.1a6.17,6.17,0,0,0,1.79,4.49,3.64,3.64,0,0,1,.95,1.91,9,9,0,0,1,.14,1.56ZM79.27,72a2.77,2.77,0,0,1-2.76,2.76h-43a2.6,2.6,0,0,1-.68-.1,2.76,2.76,0,0,0,.71-1.85V54.21a9.23,9.23,0,0,0-.16-1.74h0A4.58,4.58,0,0,0,32.09,50a5.19,5.19,0,0,1-1.46-3.75v-.1a6,6,0,0,1,1.29-3.62,2.47,2.47,0,0,0,.31-.46A6.66,6.66,0,0,0,33,39V37.69a4.32,4.32,0,0,0-2.27-3.78V25.35A16.15,16.15,0,0,1,46.85,9.22H66.59A12.7,12.7,0,0,1,79.27,21.9ZM65.42,42.64H47.61a9.26,9.26,0,0,0-9.25,9.25v8a9.26,9.26,0,0,0,9.25,9.25H65.42a9.26,9.26,0,0,0,9.25-9.25v-8A9.26,9.26,0,0,0,65.42,42.64Zm8.25,17.21a8.26,8.26,0,0,1-8.25,8.25H47.61a8.26,8.26,0,0,1-8.25-8.25v-8a8.26,8.26,0,0,1,8.25-8.25H65.42a8.26,8.26,0,0,1,8.25,8.25ZM41.25,52.8H66.7a1.64,1.64,0,0,0-.17.74V56.2a1.75,1.75,0,1,0,3.49,0V53.54a1.79,1.79,0,0,0-.17-.74h1.93v-1H41.25Zm26.28.74a.75.75,0,0,1,1.49,0V56.2a.75.75,0,1,1-1.49,0Zm-6-29.61-5.81-5.81-5.81,5.81,5.81,5.8Zm-5.81-4.4,4.39,4.4-4.39,4.39-4.39-4.39ZM19.49,43.78h9.12v1H19.49Zm0,1.86h9.12v1H19.49Z"/>
</svg>
