<svg id="Layer_1" data-name="Layer 1" xmlns="http://www.w3.org/2000/svg" width="1.32in" height="1.06in" viewBox="0 0 94.75 76.32">
  <defs>
    <style>
      .muw-svg {
        fill: #9296c5;
      }
    </style>
  </defs>
  <title>Icon_Artboard 18 copy 7</title>
  <path id="Icon_TargetGroups" class="muw-svg" d="M43.87,73l-.1,1A36,36,0,0,1,11.65,42.09l1-.11A35,35,0,0,0,43.87,73Zm7,0,.1,1A36.1,36.1,0,0,0,83.09,42.17v-.08l-1,.06A35,35,0,0,1,50.88,73Zm31.25-38.2,0,.15,1-.24a36,36,0,0,0-32-32.2H51v1A35,35,0,0,1,82.13,34.78ZM43.6,3.5l.24,0-.1-1-.25,0A36,36,0,0,0,11.61,34.77l1,.09A35,35,0,0,1,43.6,3.5Zm17.88,36V40h.27a5.71,5.71,0,0,1,5.71,5.71v8.68H53.11A4.92,4.92,0,0,1,53.36,56v4.26H40.85V55.7a4.63,4.63,0,0,1,.2-1.29H26.45V44.63a5.89,5.89,0,0,1,5.88-5.88H33V36.49a8.46,8.46,0,0,1-2.37-5.69l-.57-.58V23.68a2.22,2.22,0,0,1,2.22-2.22h.13a2.24,2.24,0,0,1,2.17-1.73h6.33a2.8,2.8,0,0,1,2.8,2.8v7.69l-.57.58a8.46,8.46,0,0,1-2.37,5.69v2.26h.35a6.22,6.22,0,0,1,4.4,1.84l.08,0h4.13a2,2,0,0,1,1.07.32A5.37,5.37,0,0,1,53.72,40h.56v-.55c-3-.09-5.72-.21-5.72-.21l-1,0,.59-.76s1.76-2.32,1.67-4.26c0-.32,0-.71-.08-1.14-.23-2.86-.62-7.63,2.32-10.13a8,8,0,0,1,8.45-1.18A5.54,5.54,0,0,1,66.15,24c2.2,3.29,1.1,7.09.45,9.37a6.06,6.06,0,0,0-.39,1.82,5.43,5.43,0,0,0,1.89,3.12l.28.22-.1.35C68.16,39.18,68.06,39.43,61.48,39.53Zm-7.2-1.06V38a8.15,8.15,0,0,1-2.34-5.53l-.55-.56v-2c0-1,1-1.29,2.52-1.77.68-.22,1.52-.48,2.45-.85a10.81,10.81,0,0,0,3.36-2.76l.15-.18h.24C61.67,24.3,64,27,64,28.45c0,.06.1,2,0,3.78a8.13,8.13,0,0,1-2.53,5.86v.44c2.35,0,4.19-.12,5.22-.2a7.09,7.09,0,0,1-1.45-2.9,5.1,5.1,0,0,1,.39-2.38c.64-2.24,1.62-5.63-.32-8.54a4.57,4.57,0,0,0-4.71-1.76l-.19.05-.17-.09a6.89,6.89,0,0,0-7.5,1c-2.55,2.17-2.19,6.62-2,9.29,0,.45.07.84.08,1.18A8,8,0,0,1,49.5,38.3ZM52.94,32v.21c0,2.37,1.37,6.14,5,6.14s5-4,5-6.16c.07-1.75,0-3.7,0-3.72,0-.95-1.7-2.88-2.67-3.14a11.17,11.17,0,0,1-3.58,2.83c-1,.39-1.84.66-2.53.88-.85.27-1.82.58-1.82.82v1.59Zm2.34,9a4.15,4.15,0,0,0,2.66,1.46,3.57,3.57,0,0,0,2.54-1.43V38.76a5.69,5.69,0,0,1-5.2-.08Zm-9.7,11.58a2.38,2.38,0,0,0,1.5.81,2,2,0,0,0,1.43-.79v-.07a3.88,3.88,0,0,1-1.4.25,4,4,0,0,1-1.53-.29Zm4.78-4.8v-.21l.37-.38V46l-.06,0c0-.06-.75-1.43-3.38-1.52a4.69,4.69,0,0,0-3.81,1.9v.81l.37.38v.21c0,1.54.89,4,3.26,4S50.36,49.37,50.36,47.83Zm-.63-6.26H45.6a.63.63,0,0,0-.62.63v.5H44.1a.62.62,0,0,0-.62.62V45a5.42,5.42,0,0,1,3.85-1.44,5.53,5.53,0,0,1,3.4,1.12V42.57A1,1,0,0,0,49.73,41.57ZM31.06,23.68v4c.38-.12.72-.4.72-.58V26a1.66,1.66,0,0,1,1.65-1.66h4.49l2.92-1.46v1.54A1.66,1.66,0,0,1,42,26v1.15a.66.66,0,0,0,.65.65h.07V22.53a1.8,1.8,0,0,0-1.8-1.8H34.58A1.23,1.23,0,0,0,33.36,22v.5H32.28A1.22,1.22,0,0,0,31.06,23.68ZM36.88,37c3.83,0,5.26-3.93,5.26-6.4v-.21l.57-.57v-1h-.07A1.65,1.65,0,0,1,41,27.14V26a.66.66,0,0,0-.65-.66h-.5v-.84l-1.69.84H33.43a.66.66,0,0,0-.65.66v1.15c0,.85-.93,1.45-1.72,1.61v1.06l.57.57v.21C31.63,33.06,33.06,37,36.88,37ZM34,37.24v2.61a4.53,4.53,0,0,0,3,1.63,3.92,3.92,0,0,0,2.81-1.6V37.24a5.92,5.92,0,0,1-5.77,0ZM27.45,53.41h14A4.83,4.83,0,0,1,44,51.23,5.91,5.91,0,0,1,42.86,48l-.38-.38V43.32a1.62,1.62,0,0,1,1.58-1.62,1.53,1.53,0,0,1,.46-.68,5.23,5.23,0,0,0-3.4-1.27h-.35v.44l-.08.13A5,5,0,0,1,37,42.48c-2.12,0-3.78-2-3.85-2.13L33,40.22v-.47h-.67a4.89,4.89,0,0,0-4.88,4.88ZM52.36,56a4,4,0,0,0-2.85-3.84V53l-.09.13a3.14,3.14,0,0,1-2.34,1.34,3.52,3.52,0,0,1-2.39-1.31L44.58,53v-.91a3.81,3.81,0,0,0-2.39,2,3.74,3.74,0,0,0-.34,1.58v3.51H52.36ZM61.48,41v.38l-.09.12a4.62,4.62,0,0,1-3.45,2,5.33,5.33,0,0,1-3.55-1.95l-.11-.14V41h-.56a4.33,4.33,0,0,0-2.23.62,2,2,0,0,1,.24.93v5.09l-.38.38a6,6,0,0,1-1.14,3.26,5,5,0,0,1,2.46,2.11H66.46V45.73A4.71,4.71,0,0,0,61.75,41Zm-17-38a2.9,2.9,0,1,1,2.89,2.89A2.9,2.9,0,0,1,44.48,3Zm1,0a1.9,1.9,0,1,0,1.89-1.89A1.89,1.89,0,0,0,45.48,3Zm4.79,70.86A2.9,2.9,0,1,1,47.37,71,2.9,2.9,0,0,1,50.27,73.89Zm-1,0a1.9,1.9,0,1,0-1.9,1.89A1.9,1.9,0,0,0,49.27,73.89ZM85.69,38.46a2.89,2.89,0,1,1-2.89-2.89A2.89,2.89,0,0,1,85.69,38.46Zm-1,0a1.89,1.89,0,1,0-1.89,1.89A1.89,1.89,0,0,0,84.69,38.46ZM12,41.35a2.89,2.89,0,1,1,2.89-2.89A2.89,2.89,0,0,1,12,41.35Zm0-1a1.89,1.89,0,1,0-1.89-1.89A1.89,1.89,0,0,0,12,40.35Z"/>
</svg>
