<svg id="Layer_1" data-name="Layer 1" xmlns="http://www.w3.org/2000/svg" width="1.32in" height="1.06in" viewBox="0 0 94.75 76.32">
  <defs>
    <style>
      .muw-svg {
        fill: #9296c5;
      }
    </style>
  </defs>
  <title>Icon_Artboard 18 copy 14</title>
  <path id="Icon_Tutoring" class="muw-svg" d="M93.48,50a1,1,0,0,1-.83.43,1,1,0,0,1-.37-.07L76.52,44.48H50.27v19.1a2.59,2.59,0,0,1-2.58,2.58H8.17a2,2,0,0,1-2-2V38L1.29,31.85a1,1,0,0,1,1.1-1.52l14,5.23H43V12.46a2.3,2.3,0,0,1,2.3-2.3H85.76A2.21,2.21,0,0,1,88,12.37V41.84l5.49,6.91A1,1,0,0,1,93.48,50ZM49.29,44.48h-4A2.26,2.26,0,0,1,43,42.22V36.54l-26.88,0L2.05,31.25l5.08,6.38V64.14a1,1,0,0,0,1,1H47.69a1.6,1.6,0,0,0,1.6-1.6Zm43.78,4.57-.39.31L87,42.18V12.37a1.23,1.23,0,0,0-1.22-1.23H45.3A1.32,1.32,0,0,0,44,12.46V42.22a1.28,1.28,0,0,0,1.27,1.28l31.53,0,15.84,5.91Zm-58.51-4.2c0,2.59-1.22,4-2.39,5.28S30,52.52,30,54.71v1.41H27V54.44c0-2.8,1.39-4.47,2.62-5.94.95-1.13,1.77-2.11,1.77-3.41A2.48,2.48,0,0,0,29,42.45a2.73,2.73,0,0,0-2.86,2.08,3.62,3.62,0,0,1,.19,1.13,1.74,1.74,0,0,1-1.62,1.89c-.69,0-1.85-.31-1.85-2.36A5.91,5.91,0,0,1,29,39.56,5.45,5.45,0,0,1,34.56,44.85Zm-1,0A4.47,4.47,0,0,0,29,40.54a4.94,4.94,0,0,0-5.16,4.65c0,1.38.59,1.38.87,1.38.46,0,.64-.56.64-.91a2.48,2.48,0,0,0-.17-.9l-.05-.12,0-.13a3.68,3.68,0,0,1,3.85-3,3.47,3.47,0,0,1,3.38,3.62c0,1.65-1,2.81-2,4C29.21,50.54,28,52,28,54.44v.7h1.06v-.43c0-2.56,1.21-3.92,2.38-5.23S33.58,47.07,33.58,44.85ZM31,59.34a2.5,2.5,0,1,1-2.5-2.43A2.49,2.49,0,0,1,31,59.34Zm-1,0a1.52,1.52,0,0,0-3,0,1.52,1.52,0,0,0,3,0ZM57.8,27.88a3,3,0,0,1-3,3A2.77,2.77,0,0,1,52,27.91a2.86,2.86,0,0,1,2.78-3A3.05,3.05,0,0,1,57.8,27.88Zm-1,0a2.06,2.06,0,0,0-2.07-2,1.87,1.87,0,0,0-1.8,2,1.81,1.81,0,0,0,1.8,2A2,2,0,0,0,56.82,27.88Zm11.9,0a3.05,3.05,0,0,1-6.1,0,3.05,3.05,0,0,1,6.1,0Zm-1,0a2.07,2.07,0,0,0-4.14,0,2.07,2.07,0,0,0,4.14,0Zm11.63,0a2.77,2.77,0,0,1-2.78,2.94,3,3,0,0,1-3-3,3.05,3.05,0,0,1,3-3A2.86,2.86,0,0,1,79.37,27.91Zm-1,0a1.87,1.87,0,0,0-1.8-2,2.06,2.06,0,0,0-2.07,2,2,2,0,0,0,2.07,2A1.81,1.81,0,0,0,78.39,27.91Z"/>
</svg>
