<svg id="Layer_1" data-name="Layer 1" xmlns="http://www.w3.org/2000/svg" width="1.32in" height="1.06in" viewBox="0 0 94.75 76.32">
  <defs>
    <style>
      .muw-svg {
        fill: #9296c5;
      }
    </style>
  </defs>
  <title>Icon_Artboard 18 copy 21</title>
  <path id="Icon_Work" class="muw-svg" d="M71.25,47V44.86L69.31,44V42.25c3-2.69,4.21-7,4.27-10.24l1-1V17.28A4.65,4.65,0,0,0,70,12.63H58.55A3.62,3.62,0,0,0,55,15.74H54.4a3.59,3.59,0,0,0-2.65,1.18,3,3,0,0,1,.89-2.33l3.21-3.21a1.24,1.24,0,0,0,.36-.85,1.18,1.18,0,0,0-.36-.85l-4.1-4.1a1.15,1.15,0,0,0-.84-.35h0a1.19,1.19,0,0,0-.85.35L46.84,8.79a3,3,0,0,1-5.2-2.15V2.09A1.21,1.21,0,0,0,40.43.89H34.64a1.2,1.2,0,0,0-1.2,1.2V6.64a3.05,3.05,0,0,1-5.21,2.15L25,5.58a1.19,1.19,0,0,0-.85-.35h0a1.19,1.19,0,0,0-.85.35l-4.1,4.1a1.15,1.15,0,0,0-.35.85,1.19,1.19,0,0,0,.35.85l3.22,3.21a3,3,0,0,1-2.16,5.2H15.73a1.2,1.2,0,0,0-1.2,1.2v5.8a1.2,1.2,0,0,0,1.2,1.2h4.55a3,3,0,0,1,2.16,5.2l-3.22,3.22a1.17,1.17,0,0,0-.35.85,1.19,1.19,0,0,0,.35.85l4.1,4.1a1.23,1.23,0,0,0,.85.35h0a1.19,1.19,0,0,0,.85-.35L28.23,39a3.07,3.07,0,0,1,3.33-.66,3,3,0,0,1,1.88,2.82V45.7a1.2,1.2,0,0,0,1.2,1.2h5.8a1.2,1.2,0,0,0,1.2-1.2V41.15A3,3,0,0,1,46.84,39l3.21,3.22a1.23,1.23,0,0,0,.85.35h0a1.17,1.17,0,0,0,.85-.35l2.37-2.37c.08.14.17.29.26.42A11.34,11.34,0,0,0,56,42.12h0v1.82l-2,.92V47a10.22,10.22,0,0,0-9.3,10.17V74.35h1V57.14A9.22,9.22,0,0,1,54,48v2.55l5.2,4,.05-.07V73.28l3.53,2.92,3.53-2.92V54.39l5-3.87V48a9.22,9.22,0,0,1,8.34,9.17V74.35h1V57.14A10.22,10.22,0,0,0,71.25,47ZM51.79,19.35a2.61,2.61,0,0,1,2.61-2.61h1.54v-.5a2.61,2.61,0,0,1,2.61-2.61H70a3.64,3.64,0,0,1,3.65,3.65v9.87h-.53a1.57,1.57,0,0,1-1.58-1.57V23.5A2.57,2.57,0,0,0,69.43,21V18.54l-4.77,2.39H56.48A2.58,2.58,0,0,0,53.9,23.5v2.08c0,.69-1.16,1.42-2.11,1.55ZM51.05,41.5a.24.24,0,0,1-.15.06.2.2,0,0,1-.14-.06l-3.21-3.21a4,4,0,0,0-6.91,2.86V45.7a.2.2,0,0,1-.2.2h-5.8a.2.2,0,0,1-.2-.2V41.15a4,4,0,0,0-2.5-3.74,4,4,0,0,0-4.41.88L24.31,41.5a.19.19,0,0,1-.28,0l-4.1-4.1a.19.19,0,0,1,0-.28l3.21-3.22A4,4,0,0,0,20.28,27H15.73a.2.2,0,0,1-.2-.2V21a.2.2,0,0,1,.2-.2h4.55a4,4,0,0,0,2.86-6.9l-3.21-3.22a.2.2,0,0,1-.06-.14.21.21,0,0,1,.06-.15L24,6.28a.18.18,0,0,1,.14,0h0a.18.18,0,0,1,.14,0L27.53,9.5a4,4,0,0,0,6.91-2.86V2.09a.2.2,0,0,1,.2-.2h5.79a.2.2,0,0,1,.21.2V6.64A4,4,0,0,0,47.55,9.5l3.21-3.21a.17.17,0,0,1,.14-.06.18.18,0,0,1,.15.06l4.1,4.1a.2.2,0,0,1,.06.14.27.27,0,0,1-.06.14l-3.22,3.22A4,4,0,0,0,51,18.16a3.35,3.35,0,0,0-.22,1.19V31l1,1A15.73,15.73,0,0,0,53.6,39Zm4.15-1.81a14.45,14.45,0,0,1-2.38-7.89v-.2l-1-1V28.13C53.13,28,54.9,27,54.9,25.58V23.5a1.57,1.57,0,0,1,1.58-1.57h8.41l3.54-1.77v1.77h.5A1.57,1.57,0,0,1,70.5,23.5v2.08a2.58,2.58,0,0,0,2.58,2.57h.53v2.41l-1,1v.2c0,4.63-2.68,12-9.88,12A8.83,8.83,0,0,1,55.2,39.69Zm13.11,3.36v3.06L62.55,51l-5.61-4.9V42.93a9.51,9.51,0,0,0,5.76,1.83A9.6,9.6,0,0,0,68.31,43.05Zm-9.1,10.28L55,50V45.5l1-.46v1.53l5.57,4.87h-2.3Zm6.06,19.48L62.74,74.9l-2.53-2.09V56.56l2.53,2.09,2.53-2.09Zm0-17.55-2.53,2.09-2.53-2.09V52.44h5.06Zm5-5.23-4,3.09V51.44H63.6l5.71-4.87V45.06l.94.44Zm-1.12,8.83H74.7v1H69.13ZM37.54,15.29a8.6,8.6,0,1,0,8.6,8.6A8.61,8.61,0,0,0,37.54,15.29Zm0,16.2a7.6,7.6,0,1,1,7.6-7.6A7.61,7.61,0,0,1,37.54,31.49ZM33,51.86l-2.5.36a1.45,1.45,0,0,1-1.48-.7,1.47,1.47,0,0,1,.09-1.64l1.52-2a.9.9,0,0,0-.18-1.25l-2.58-1.93a.92.92,0,0,0-.66-.17.87.87,0,0,0-.59.35l-1.52,2a1.46,1.46,0,0,1-2.63-.67l-.36-2.51a.89.89,0,0,0-1-.75l-3.19.46a.83.83,0,0,0-.59.35.91.91,0,0,0-.17.66l.36,2.5a1.47,1.47,0,0,1-2.34,1.39l-2-1.52a.88.88,0,0,0-1.24.18L9.91,49.55a.9.9,0,0,0,.18,1.25l2,1.52A1.47,1.47,0,0,1,11.44,55l-2.5.36a.91.91,0,0,0-.76,1l.46,3.19a.9.9,0,0,0,1,.76l2.51-.36a1.46,1.46,0,0,1,1.47.71,1.43,1.43,0,0,1-.09,1.63l-1.51,2a.88.88,0,0,0,.18,1.24l2.58,1.94a.87.87,0,0,0,.66.16.86.86,0,0,0,.59-.34l1.51-2a1.43,1.43,0,0,1,1.55-.54,1.45,1.45,0,0,1,1.09,1.22l.36,2.5a.89.89,0,0,0,.35.59.9.9,0,0,0,.53.17h.13l3.19-.45a.9.9,0,0,0,.76-1l-.36-2.51a1.43,1.43,0,0,1,.7-1.47,1.46,1.46,0,0,1,1.64.08l2,1.52a.92.92,0,0,0,.66.17.87.87,0,0,0,.59-.35l1.93-2.58a.89.89,0,0,0-.18-1.25l-2-1.51a1.47,1.47,0,0,1,.67-2.64l2.51-.36a.89.89,0,0,0,.75-1L34,52.62A.9.9,0,0,0,33,51.86ZM31,56.19a2.47,2.47,0,0,0-1.13,4.43l1.94,1.45L30,64.48,28.09,63a2.46,2.46,0,0,0-2.75-.14,2.42,2.42,0,0,0-1.18,2.48l.34,2.39-3,.43-.34-2.4a2.43,2.43,0,0,0-1.84-2,2.27,2.27,0,0,0-.63-.08l-.34,0a2.48,2.48,0,0,0-1.62,1L15.3,66.59l-2.41-1.8,1.46-1.94A2.48,2.48,0,0,0,12,58.92l-2.39.34-.43-3,2.4-.35a2.41,2.41,0,0,0,2-1.83,2.44,2.44,0,0,0-.91-2.59l-1.94-1.45,1.8-2.41,1.94,1.45a2.47,2.47,0,0,0,3.93-2.33l-.34-2.4,3-.43.35,2.4a2.47,2.47,0,0,0,4.42,1.13l1.45-1.94,2.41,1.81-1.45,1.93A2.45,2.45,0,0,0,28.11,52a2.42,2.42,0,0,0,2.48,1.18l2.4-.34.42,3ZM21.3,51.88a4.19,4.19,0,1,0,4.19,4.19A4.19,4.19,0,0,0,21.3,51.88Zm0,7.37a3.19,3.19,0,1,1,3.19-3.18A3.19,3.19,0,0,1,21.3,59.25Z"/>
</svg>
