<svg id="Layer_1" data-name="Layer 1" xmlns="http://www.w3.org/2000/svg" viewBox="0 0 94.8 73.2">
  <path id="government-legal" class="cls-0" d="M84.8,34.1V61.8H79.2V34.1Zm-7.7-3.5h9.6V34H77.1ZM6.3,61.8H88.7v3.6H6.3ZM3.6,65.4H91.1V69H3.6ZM.5,69.1H94.3v3.6H.5ZM15,14.4H80.1v7.8H15ZM3.6,22.2H91.1v8.1H3.6Zm45.8-7.8V.6l5.4,1V4.8L49.4,6.2M53.7,5V6.6l6.4-2.2-5.3-2V4.7Zm-37,29.1V61.8H11V34.1ZM9,30.6h9.6V34H9Zm24.7,3.5V61.8H28V34.1ZM26,30.6h9.6V34H26Zm24.7,3.5V61.8H45.1V34.1ZM43,30.6h9.6V34H43Zm24.7,3.5V61.8H62.1V34.1Zm-7.6-3.5h9.6V34H60.1Z" transform="translate(0 0)"/>
</svg>
