<svg id="Layer_1" data-name="Layer 1" xmlns="http://www.w3.org/2000/svg" viewBox="0 0 76.7 76.7">
  <path id="target-populations" class="cls-0" d="M34.8,73.3A35.35,35.35,0,0,1,3.1,41.9m70.4,0v.2A35.53,35.53,0,0,1,41.8,73.4m.1-70.6h0A35.47,35.47,0,0,1,73.6,34.6v.2M3,34.7A35.55,35.55,0,0,1,34.5,2.9h.2m17.4,36c3.7,0,6.9-.2,6.7-.4a5.53,5.53,0,0,1-2.1-3.4c-.4-1.3,2.9-6.6,0-11.1a5.09,5.09,0,0,0-5.2-2,7.51,7.51,0,0,0-8.1,1c-3.2,2.7-2.2,8.5-2.1,10.9.1,2.2-1.8,4.6-1.8,4.6l6.1.2m-14.4.4h.9A5.69,5.69,0,0,1,36.3,41M32.5,53.8H17.9V44.5a5.38,5.38,0,0,1,5.4-5.4h1.2M52,40.4h.6a5.16,5.16,0,0,1,5.2,5.2v8.2H43.3M41.8,41.3a4.68,4.68,0,0,1,2.8-.9h1M31.2,36.2v3.7a4.54,4.54,0,0,1-3.3,1.9c-1.9,0-3.5-1.9-3.5-1.9V36.2m27.5,1.5v3.4a4.5,4.5,0,0,1-3,1.8,5.2,5.2,0,0,1-3.2-1.8V37.6m-2.9-7.9v1.8l.5.6c0,2.8,1.7,6.6,5.5,6.6s5.4-3.9,5.5-6.6c.1-1.8,0-3.8,0-3.8,0-1.2-2.2-3.7-3.4-3.7a11.24,11.24,0,0,1-3.6,2.9C44.7,28.7,42.8,28.8,42.8,29.7ZM40.4,51.4a4.5,4.5,0,0,1,3.4,4.4v3.8H32.3v-4a4.28,4.28,0,0,1,3.4-4.2m4.3.2v1.1a2.43,2.43,0,0,1-2,1.1,3.09,3.09,0,0,1-2-1.1v-1m-2.1-8.5v4.1l.4.4c0,1.9,1.1,4.5,3.8,4.5s3.8-2.6,3.8-4.5l.4-.4V42.4a1.54,1.54,0,0,0-1.5-1.5H36.7A1.11,1.11,0,0,0,35.6,42H35A1.28,1.28,0,0,0,33.9,43.2Zm0,2.9a5.26,5.26,0,0,1,4.3-2.2c3,.1,3.8,1.8,3.8,1.8M38.3.5a2.43,2.43,0,0,1,2.4,2.4,2.4,2.4,0,0,1-4.8,0A2.43,2.43,0,0,1,38.3.5Zm0,70.9a2.4,2.4,0,1,1-2.4,2.4A2.43,2.43,0,0,1,38.3,71.4ZM73.8,35.9a2.4,2.4,0,1,1-2.4,2.4A2.37,2.37,0,0,1,73.8,35.9Zm-70.9,0a2.4,2.4,0,0,1,0,4.8,2.4,2.4,0,0,1,0-4.8ZM21.5,23.5v6.3l.6.6c0,2.9,1.7,6.9,5.8,6.9s5.8-4,5.8-6.9l.6-.6V22.3A2.26,2.26,0,0,0,32,20H25.7A1.75,1.75,0,0,0,24,21.7h-.6a2,2,0,0,0-1.9,1.8Zm12.7,4.6h-.6A1.11,1.11,0,0,1,32.5,27V25.8a1.11,1.11,0,0,0-1.1-1.1V23.6L29,24.7H24.4a1.11,1.11,0,0,0-1.1,1.1V27c0,.6-1,1.1-1.6,1.1"/>
</svg>
