<svg id="Layer_1" data-name="Layer 1" xmlns="http://www.w3.org/2000/svg" viewBox="0 0 74.75 77.05">
  <path id="employment-income-support" class="cls-0" d="M14,41.25V.5H59.57L74.21,15.11l0,61.44H20.33m16.47-57H63m-26.21,4H63m-26.21,4H63M25.54,31.31,63,31.6M25.54,35.74,63,36M25.38,40.16,63,40.44M25.46,44.58,63,44.86M36.8,51.06H63M36.8,55.41H48.36M28.06,17.12A3.87,3.87,0,0,1,32,20.85v7.51H18.85V20.64C18.85,18.68,21,17,23,17m4.64-1.11v1.72a3,3,0,0,1-2.19,1.28,3.5,3.5,0,0,1-2.28-1.28V15.89M59.48.5V15H74m-49.94,36a9.62,9.62,0,1,1-10.22-9.6h.6A9.61,9.61,0,0,1,24.07,51.06Zm-7.79-1.84a1.83,1.83,0,0,0-3.66,0c0,1,1.83,1.84,1.83,1.84s1.83.82,1.83,1.83a1.83,1.83,0,0,1-3.66,0m1.83-5.5V46m0,8.7v1.37M2.82,60.9h19.8V66H2.82Zm5.26,5.27h19.8v5.12H8.08ZM.5,71.43H20.3v5.12H.5ZM5.71,64v2m3.48-2v2m3.47-2v2m3.48-2v2m3.47-2v2m-8.45,3v2m3.48-2v2m3.47-2v2m3.48-2v2m3.47-2v2M3.42,74.35v2m3.48-2v2m3.47-2v2m3.48-2v2m3.47-2v2M21.09,7.23v4.3l.39.39c0,1.95,1.17,4.68,3.9,4.68s3.9-2.73,3.9-4.68l.39-.39V6.45a1.56,1.56,0,0,0-1.56-1.56H23.82a1.17,1.17,0,0,0-1.17,1.17h-.39a1.17,1.17,0,0,0-1.17,1.17Zm8.58,3.13h-.39a.78.78,0,0,1-.78-.78h0V8.8a.77.77,0,0,0-.74-.8h0V7.23L26.16,8H23a.76.76,0,0,0-.78.76v.8c0,.43-.66.78-1.09.78"/>
</svg>
