<svg id="Layer_1" data-name="Layer 1" xmlns="http://www.w3.org/2000/svg" viewBox="0 0 79.4 76.5">
  <path id="individual-family-support" class="cls-0" d="M67,28.1c5.5-.1,10.3-.3,10-.5a8.42,8.42,0,0,1-3-5c-.6-1.9,4.3-9.8,0-16.2-2.7-4.1-7.7-2.8-7.7-2.8A10.64,10.64,0,0,0,54.5,5c-4.7,4-3.2,12.5-3,16,.1,3.2-2.6,6.8-2.6,6.8s4.2.2,8.9.3m-21.2.3h1.2a8.16,8.16,0,0,1,5.9,2.5M17,48.3v-12a7.92,7.92,0,0,1,7.9-7.9h1.7m10-4.3v5.5s-1.9,2.8-4.9,2.8c-2.8,0-5.1-2.8-5.1-2.8V24.1M22.4,5.6v9.3l.9.9c0,4.2,2.5,10.1,8.5,10.1s8.5-5.9,8.5-10.1l.8-.9V3.9A3.37,3.37,0,0,0,37.7.5H28.4A2.48,2.48,0,0,0,25.9,3h-.8a2.49,2.49,0,0,0-2.7,2.6C22.3,5.5,22.3,5.6,22.4,5.6Zm18.5,6.7h-.8a1.75,1.75,0,0,1-1.7-1.7V9a1.75,1.75,0,0,0-1.7-1.7V5.6L33.3,7.3H26.5A1.75,1.75,0,0,0,24.8,9v1.8c0,.9-1.4,1.7-2.4,1.7M67,30.3h1.1A7.7,7.7,0,0,1,75.8,38h0V53.5M52,31.7a7.36,7.36,0,0,1,4.3-1.4h1.3m9.4-4v5S65.3,34,62.6,34,58,31.4,58,31.4V26.2M53.7,14.6v2.6l.8.8c0,4.1,2.4,9.8,8.1,9.8s8-5.7,8.1-9.8c.1-2.6,0-5.5,0-5.5,0-1.8-3.2-5.4-5-5.4,0,0-2.6,3.2-5.2,4.3C56.4,13.1,53.7,13.3,53.7,14.6ZM50,46.3h.2A4.8,4.8,0,0,1,55,51.1v3.1m-16.8-2V50.8a4.65,4.65,0,0,1,4.6-4.6h.5m6.2.6v1.6A4,4,0,0,1,46.7,50a4.17,4.17,0,0,1-2.9-1.7V46.6M40.6,34.4v6.1l.5.5c0,2.8,1.7,6.6,5.5,6.6s5.5-3.8,5.5-6.6l.5-.5V33.3a2.22,2.22,0,0,0-2.2-2.2H44.3a1.67,1.67,0,0,0-1.7,1.6h-.5A1.73,1.73,0,0,0,40.6,34.4Zm0,4.3A7.4,7.4,0,0,1,47,35.5c4.4.2,5.6,2.7,5.6,2.7m2.9,21.5,19.6-6.3a3.8,3.8,0,0,1,3.8,3.8,4.07,4.07,0,0,1-1.3,2.5L46.3,76H43.8L22.5,68.4H16.4M0,45.9H15a1.22,1.22,0,0,1,1.2,1.2V69.6A1.24,1.24,0,0,1,15,70.9H0M16.3,48.4H27.6l13.8,5H52.7a3.75,3.75,0,1,1,.3,7.5H38.8A3.71,3.71,0,0,0,35,64.6v.1" transform="translate(0 0)"/>
</svg>
