<svg id="Layer_1" data-name="Layer 1" xmlns="http://www.w3.org/2000/svg" viewBox="0 0 69.47 75.17">
  <path id="mental-health-addictions" class="cls-0" d="M2.9,44.5H29.5a15.51,15.51,0,0,0,1.2-31H29.6L13,13.4H11a42,42,0,0,1,3.9-4.5,28.49,28.49,0,0,1,40.4,0,28.84,28.84,0,0,1,8.4,20l5.2,10.4a1,1,0,0,1-.4,1.3l-4.8,2.9V58.8a.94.94,0,0,1-1,1H53v7.5M36.2,26.8H31.8V22.4H27.4v4.4H23v4.4h4.4v4.4h4.4V31.2h4.4Zm-16.7,0H17.3m-2.2,0H12.9m-2.2,0H8.4m11.1,4.4H17.3m-2.2,0H12.9m-2.2,0H8.4M17,61.8V51.3c-3.5-2.8-5.9-4.6-7.5-6.9m11,26.8A5.11,5.11,0,0,1,19,73.3h0a5.53,5.53,0,0,1-7.8-.5h0L1.9,62.2a5.53,5.53,0,0,1,.5-7.8h0a5.53,5.53,0,0,1,7.8.5h0l6.5,7.4m-1.9-2.1L6.5,67.5m15.3-8a5.9,5.9,0,1,1-5.9,5.9A5.85,5.85,0,0,1,21.8,59.5ZM17,68.8,26.4,62" transform="translate(-0.03 0)"/>
</svg>
