<svg id="Layer_1" data-name="Layer 1" xmlns="http://www.w3.org/2000/svg" viewBox="0 0 68.23 76.86">
  <path id="community-services" class="cls-0" d="M22.72,61.92c.05-1,2.7-.4,5.19.51,6.91,2.5,16.08,8.19,18.33,2.06C48,59.65,40.06,57.57,37,57c-4.25-.81-7.17-3.92-10.85-5.9-5.54-3-9.82-3.07-13-2.5C9.77,49.2,4.91,52,2,53.74c-2,1.21-1.89,3,.11,5.91a39,39,0,0,0,65.18-1.9c1.53-2.45-.88-5.07-4.38-3.82-1.47.54-4.19,3.23-5.44,4.33l-.33.06c.43-.49,2.32-2.88,2.81-3.7,1.49-2.46-1.32-4.8-4.42-3-1.41,1.09-2.77,2.24-4.07,3.47l-.31.08a41.93,41.93,0,0,0,2.65-3.44c1.35-2-1.49-3.9-3.93-2.43a46.7,46.7,0,0,0-4.59,3.58l-.25.06c.4-.38,1.36-1.52,1.73-1.93,1.44-1.61-.63-3.47-2.8-2.35s-6.53,5-9.81,7.08M26.24,39.36A4.36,4.36,0,0,1,25,36.21a4.73,4.73,0,0,1,4.71-4.72,5.58,5.58,0,0,1,3.78,1.89l.63.63.63-.63a5.55,5.55,0,0,1,3.77-1.89,4.72,4.72,0,0,1,4.72,4.72h0c0,1.55-.63,2.52-1.88,3.78l-.22.22-7,7-6-6ZM45.5,14.86c0,1-2.7.4-5.19-.51C33.4,11.85,24.23,6.16,22,12.29c-1.78,4.84,6.18,6.92,9.22,7.51,4.25.81,7.17,3.92,10.85,5.9,5.54,3,9.82,3.07,13,2.5,3.41-.62,8.27-3.4,11.22-5.16,2-1.21,1.89-3.05-.11-5.91A39,39,0,0,0,1,19c-1.53,2.45.88,5.07,4.37,3.82,1.48-.54,4.2-3.23,5.45-4.33l.33-.06c-.43.49-2.32,2.88-2.81,3.69-1.49,2.47,1.32,4.81,4.42,3,1.41-1.09,2.77-2.24,4.07-3.47l.31-.08A41.93,41.93,0,0,0,14.49,25c-1.35,2,1.49,3.9,3.93,2.43A46,46,0,0,0,23,23.92l.25-.06c-.4.38-1.36,1.52-1.73,1.93-1.44,1.61.63,3.47,2.8,2.35s6.53-5,9.81-7.08" transform="translate(-0.03 0.05)"/>
</svg>
