<svg id="Layer_1" data-name="Layer 1" xmlns="http://www.w3.org/2000/svg" viewBox="0 0 105.94 74.82">
  <path id="education" class="cls-0" d="M54.33,35.28h9.51m38.6-5.5h3V73.32H71.62L70,74a3.65,3.65,0,0,1-3,0l-1.53-.7h-34V36.76m3,.14v33H65.44l3,1.65,3.15-1.65h30.82V26.35H71.62L68.53,28l-3.09-1.65H56.27m17.45,8.93H93.86m-20.14,7H93.86m-20.14,7H93.86m-20.14,7H93.86m-20.14,7H87.85M43.69,42.3H63.84m-20.15,7H63.84m-20.15,7H63.84m-20.15,7H63.84M14.48,22.67,1.22,17.14,35.49.56,69.77,17.14,56.5,22.67m0,10.92V22.67c0-2.21-7.74-6.64-21-6.64s-21,4.43-21,6.64v11M5.64,19.35V35.93m0,0a3.32,3.32,0,1,1-3.32,3.32A3.32,3.32,0,0,1,5.64,35.93Zm29.88-4.74c11.69,0,21.16,1.23,21.16,2.75s-9.47,2.75-21.16,2.75-21.16-1.23-21.16-2.75S23.83,31.19,35.52,31.19Z" transform="translate(0 0)"/>
</svg>
