<svg xmlns="http://www.w3.org/2000/svg" viewBox="0 0 83.5 73.2">
  <path id="health-care" class="cls-0" d="M33.9,25.8C38,34.6,50.1,41,50.1,41s17.5-9.3,17.5-20.8V8.2a4.44,4.44,0,0,0-4.4-4.4M37,3.8a4.37,4.37,0,0,0-4.4,4.4h0M60,.5a3.33,3.33,0,0,1,3.3,3.3,3.3,3.3,0,1,1-6.6,0A3.27,3.27,0,0,1,60,.5ZM40.3.5a3.33,3.33,0,0,1,3.3,3.3,3.3,3.3,0,0,1-6.6,0A3.27,3.27,0,0,1,40.3.5ZM50.1,41v7.7m0,.3V60.7a12,12,0,1,1-12-12H69.8M35.9,29s4.5,3.3,14.2,3.3S64.3,29,64.3,29M76.4,42.1a6.6,6.6,0,1,1-6.6,6.6A6.59,6.59,0,0,1,76.4,42.1ZM3.1,24A9.23,9.23,0,0,1,.5,17.5a9.82,9.82,0,0,1,9.8-9.8h0c3.2,0,5.9,1.9,7.8,3.9l1.3,1.3,1.3-1.3c2-2,4.6-3.9,7.8-3.9a9.82,9.82,0,0,1,9.8,9.8c0,3.2-1.3,5.2-3.9,7.8l-.5.5L19.4,40.3,7,28Z"/>
</svg>
