<svg id="Layer_1" data-name="Layer 1" xmlns="http://www.w3.org/2000/svg" viewBox="0 0 94.22 74.97">
  <path id="basic-needs" class="cls-0" d="M18,37V29.09L54,4.11l34.28,25V74.47H18V62.91m13.79,0H4.16V45l-3,.91-.6-8.78,12-3.64S14.57,37,18.1,37c3.81,0,5.9-3.48,5.9-3.48l11.36,3.64-.3,8.78L31.74,45Zm23-4.24c.91,4.71,1.83,9.44,1.83,9.44a12.77,12.77,0,0,0,6.91.08,19.46,19.46,0,0,0,4-1.74M66,48.64a13.26,13.26,0,0,0-.92-3.44c-1-1.09-2.29-1.16-3.11-1.77a3.55,3.55,0,0,1-1-1.7l-5.51,1.4a4.16,4.16,0,0,1-.6,1.9c-.53.72-1.68,1.47-1.81,2.63a6.58,6.58,0,0,0,.11,1.47m26.24,6c-3.7,12.52-7.89,12.53-11.78,11.38s-6-3-2.28-15.55S75.2,29.23,79.08,30.38,83.11,42.61,79.4,55.14ZM70.73,43.65l8.46-3m-9.84,8.71,8.46-3M67.62,55l8.46-3M53.69,60.73a1.78,1.78,0,0,1-1.34.78,2.18,2.18,0,0,1-.51,0,2.38,2.38,0,0,0-1.39.18,2.3,2.3,0,0,0-1,1,2.53,2.53,0,0,1-.31.42,1.81,1.81,0,0,1-1.46.54,11.35,11.35,0,0,1-7.82-5.09l-.33-.69a7.5,7.5,0,0,1-.51-2.2,5.54,5.54,0,0,1,.56-2.5,3.83,3.83,0,0,1,1-1.42A4.32,4.32,0,0,1,43,50.51h.89a2.85,2.85,0,0,0,2-1h0l.07-.08a5.68,5.68,0,0,1,.53-.57A4.29,4.29,0,0,1,49,47.73a4,4,0,0,1,1.73.1A5.53,5.53,0,0,1,53,49a6.94,6.94,0,0,1,1.37,1.77l.33.68A11.36,11.36,0,0,1,53.69,60.73ZM40.06,47.42s2.45-.64,3.62.26a3.79,3.79,0,0,1,1.11,2.79m9-9.95L60.88,39a.9.9,0,0,1,1.08.69l.17.81a.9.9,0,0,1-.69,1.08L54.36,43.1a.9.9,0,0,1-1.08-.69l-.18-.81A.92.92,0,0,1,53.8,40.52ZM18,29.09H13.3l9.71-7V2.66h9V15.89L54,.61l38.69,28.2h-4.8" transform="translate(-0.03 0)"/>
</svg>
