<?xml version="1.0" encoding="utf-8"?>
<!-- Generator: Adobe Illustrator 22.1.0, SVG Export Plug-In . SVG Version: 6.00 Build 0)  -->
<svg version="1.1" id="Layer_1" xmlns="http://www.w3.org/2000/svg" xmlns:xlink="http://www.w3.org/1999/xlink" x="0px" y="0px"
	 viewBox="0 0 226 147" style="enable-background:new 0 0 226 147;" xml:space="preserve">
<style type="text/css">
	.st0{fill:#FFFFFF;}
	.st1{fill:#549ECF;}
	.st2{fill:#005290;}
	.st3{fill:#FBB253;}
	.st4{fill:#EF4865;}
</style>
<path id="white-rectangle_1_" class="st0" d="M10.4,10.4h205.3v94H10.4V10.4z"/>
<rect id="blue-square" x="130.9" y="17" class="st1" width="78.2" height="80.9"/>
<path id="blue-rectangle" class="st2" d="M16.9,17h114v80.9h-114V17z"/>
<path id="circle" class="st0" d="M202.3,56.9c0,17.8-14.5,32.3-32.3,32.3s-32.3-14.5-32.3-32.3s14.4-32.3,32.3-32.3
	C187.8,24.6,202.3,39.1,202.3,56.9z"/>
<path id="hand" class="st2" d="M192.4,70c-1.1,0.4-3.3,2.5-4.2,3.4h-0.3c0.3-0.4,1.8-2.2,2.2-2.9c1.2-1.9-1-3.7-3.4-2.4
	c-0.9,0.5-2.4,2.1-3.2,2.7l-0.2,0.1c0.3-0.3,1.7-2.1,2-2.7c1.1-1.6-1.1-3-3-1.9c-1.3,0.8-2.4,1.9-3.6,2.8l-0.2,0.1
	c0.3-0.3,1.1-1.2,1.3-1.5c1.1-1.3-0.5-2.7-2.2-1.8c-1.6,0.8-4,3.2-6.5,4.8c1.2,0.6,3.3,0.7,6.6,2.2c3.3,1.4,4.4,4.7,2.2,7.3
	c-2,2.4-5.1,1.6-7.7,0.8c-3-1-4.1-1.9-7.8-3.2c-2.4-0.8-3.4-0.8-3.3-1.5c0-0.8,2.1-0.3,4,0.4c5.4,2,12.5,6.4,14.3,1.6
	c1.4-3.8-4.8-5.4-7.2-5.8c-3.3-0.6-5.6-3.1-8.4-4.6c-4.3-2.3-7.7-2.4-10.1-1.9c-2.7,0.5-6.4,2.6-8.7,4c-1.6,0.9-1.5,2.4,0.1,4.6
	c5.5,7.8,14.6,13,24.9,13c10.9,0,20.5-5.8,25.9-14.4C197.1,71,195.2,69,192.4,70z"/>
<path id="trademark" class="st0" d="M197.6,90.6c0-1.3,1.1-2.3,2.3-2.3c1.3,0,2.3,1,2.3,2.3s-1.1,2.3-2.3,2.3
	C198.7,92.9,197.6,91.9,197.6,90.6z M201.8,90.6c0-1.1-0.8-1.9-1.9-1.9c-1,0-1.9,0.8-1.9,1.9s0.8,1.9,1.9,1.9S201.8,91.7,201.8,90.6
	z M199.5,92h-0.4v-2.7h1c0.6,0,0.9,0.2,0.9,0.8c0,0.5-0.3,0.7-0.7,0.7L201,92h-0.5l-0.7-1.2h-0.4L199.5,92L199.5,92z M199.5,90.4
	h0.4c0.5,0,0.7-0.1,0.7-0.4s-0.2-0.4-0.6-0.4h-0.5L199.5,90.4L199.5,90.4z"/>
<path id="sun" class="st3" d="M153.3,63.2c0.3-0.2,1.1-0.5,1.4-0.7c0.4-0.2,0.3-0.4,0.2-0.7c-0.5-1.6-0.8-3.2-0.8-4.9
	c0-8.8,7.1-15.9,15.9-15.9c8.7,0,15.9,7.1,15.9,15.9c0,2.2-0.5,4.4-1.3,6.3c-0.1,0.1-0.1,0.4,0.1,0.5c0.3,0.1,1.2,0.5,1.5,0.7
	c0.3,0.1,0.5,0,0.6-0.3c1-2.2,1.5-4.7,1.5-7.2c0-10.1-8.2-18.3-18.3-18.3s-18.3,8.2-18.3,18.3c0,2.1,0.3,4.1,1,5.9
	C152.8,63.2,152.9,63.4,153.3,63.2z M148.6,65.4c0.4-0.2,1.7-0.8,2-1c0.4-0.1,0.3-0.4,0.2-0.6c-0.8-2.1-1.2-4.4-1.2-6.8
	c0-11.2,9.1-20.4,20.3-20.4s20.3,9.1,20.3,20.4c0,2.9-0.6,5.6-1.7,8.1c-0.1,0.1-0.2,0.4,0.2,0.6c0.3,0.1,1.8,0.8,2,0.9
	c0.3,0.1,0.5,0.1,0.6-0.3c1.2-2.8,1.9-6,1.9-9.3c0-12.9-10.5-23.5-23.4-23.5S146.4,44,146.4,57c0,2.8,0.5,5.6,1.5,8.1
	C148.1,65.3,148.2,65.6,148.6,65.4z M142.3,68.3c0.5-0.2,3.2-1.5,3.7-1.7s0.3-0.6,0.2-0.8c-1-2.7-1.6-5.7-1.6-8.8
	c0-14,11.4-25.4,25.4-25.4S195.4,43,195.4,57c0,3.5-0.7,6.9-2,10c-0.1,0.2-0.2,0.6,0.3,0.8c0.4,0.2,3.1,1.4,3.5,1.5
	c0.4,0.2,0.6,0.1,0.9-0.4c1.6-3.7,2.4-7.7,2.4-11.9c0-16.8-13.6-30.5-30.4-30.5S139.7,40.2,139.7,57c0,3.9,0.7,7.6,2,10.9
	C141.7,68.1,141.8,68.5,142.3,68.3z"/>
<path id="person" class="st4" d="M170,50.4c1.8,0,3.3-1.5,3.3-3.3s-1.5-3.3-3.3-3.3s-3.3,1.4-3.3,3.3
	C166.8,48.9,168.2,50.4,170,50.4z M171.2,67.5c0.6,0,1.1-0.5,1.1-1.2v-7.2c0-0.9,0.7-2.1,1.3-2.7l6.7-6.7c0.5-0.5,0.5-1.2,0-1.6
	l-1.2-1.2c-0.4-0.5-1.2-0.5-1.6,0l-6.1,6.1c-0.4,0.4-0.7,0.6-1.4,0.6c-0.8,0-1.1-0.2-1.4-0.6l-6.1-6.1c-0.5-0.5-1.2-0.5-1.6,0
	l-1.2,1.2c-0.5,0.4-0.5,1.2,0,1.6l6.7,6.7c0.6,0.7,1.3,1.8,1.3,2.7v7.2c0,0.6,0.5,1.2,1.2,1.2H171.2z"/>
<path id="metro-united-way" class="st2" d="M23.8,116.1l2.3,8.7c0.3,1.2,0.4,1.8,0.6,2.7c0.1-0.9,0.4-1.8,0.6-2.8l2.3-8.6H34
	l1.5,17.4h-3.4l-0.6-9.3c-0.1-1.1-0.1-2-0.1-2.9c-0.2,1-0.4,1.6-0.6,2.7l-2.7,9.5h-3l-2.5-9.1c-0.2-0.9-0.5-2.1-0.7-3.1
	c0,1,0,2-0.1,3.1l-0.6,9.1h-3.5l1.6-17.4L23.8,116.1L23.8,116.1z M49,132c-1.5,1.2-3,1.8-4.8,1.8c-3.7,0-6-2.6-6-6.6
	c0-2.3,0.5-3.8,1.6-5.1c1-1.2,2.3-1.7,4-1.7c1.5,0,2.9,0.5,3.7,1.3c1.2,1.2,1.7,2.9,1.7,5.6c0,0.3,0,0.5,0,0.8h-7.4v0.1
	c0,2,1,3.1,2.7,3.1c1.1,0,2.2-0.4,3.2-1.3L49,132z M45.7,125.6v-0.2c0-0.9-0.1-1.4-0.4-1.9c-0.3-0.5-0.8-0.8-1.5-0.8
	c-1.3,0-2,1-2,2.8l0,0L45.7,125.6L45.7,125.6z M57,122.9h-2.1v6.4c0,1.6,0.3,2,1.4,2c0.3,0,0.6-0.1,1.2-0.2l0.4,2
	c-1,0.4-1.8,0.6-2.7,0.6c-1.7,0-3-0.8-3.4-1.9c-0.2-0.5-0.2-0.8-0.2-2v-6.9h-1.3v-2.3h1.3c0-1.2,0-2.1,0.1-3l3.4-0.8
	c-0.1,1.2-0.2,2.6-0.2,3.9h3L57,122.9z M62.6,120.3c0.3,0.5,0.5,1.1,0.5,1.8c0.5-0.6,1.3-1.3,1.9-1.6c0.3-0.1,0.7-0.2,1.1-0.2
	c0.5,0,0.7,0,1.2,0.3l-0.9,2.9c-0.3-0.2-0.6-0.2-1-0.2c-0.7,0-1.4,0.3-2,1.1v9h-3.3v-8.5c0-1.7-0.2-3-0.5-3.7L62.6,120.3z
	 M77.8,122.3c1,1.2,1.5,2.6,1.5,4.7c0,2.2-0.5,3.7-1.6,4.9c-1,1.1-2.2,1.8-4.2,1.8c-3.5,0-5.7-2.6-5.7-6.6c0-4,2.3-6.7,5.7-6.7
	C75.3,120.4,76.7,121,77.8,122.3z M71.8,124.2c-0.2,0.7-0.4,1.6-0.4,2.8c0,1.5,0.1,2.6,0.4,3.2c0.3,0.7,1,1,1.7,1
	c1.4,0,2.1-1.3,2.1-4.3c0-1.7-0.2-2.8-0.7-3.4c-0.3-0.4-0.8-0.7-1.4-0.7C72.7,122.9,72,123.4,71.8,124.2z M91.3,116.1v11.4
	c0,1.1,0.1,1.7,0.3,2.1c0.4,0.8,1.2,1.2,2.4,1.2c1.5,0,2.5-0.7,2.6-2c0-0.4,0-0.6,0-1.5v-11.1h3.5v11.7c0,1.6,0,2-0.3,2.7
	c-0.5,1.4-2.1,3.3-5.9,3.3c-2.6,0-4.6-0.8-5.6-2.3c-0.6-0.9-0.8-1.6-0.8-3.3v-12.1h3.8V116.1z M106.5,120.3c0.3,0.5,0.5,1.1,0.5,1.6
	c0.5-0.4,0.9-0.7,1.5-1c0.7-0.3,1.5-0.5,2.3-0.5c1.4,0,2.7,0.8,3.1,1.8c0.2,0.5,0.2,1,0.2,1.8v9.3h-3.3V125c0-1.5-0.2-1.9-1.1-1.9
	c-0.7,0-1.5,0.5-2.3,1.1v9h-3.3v-9.3c0-1.1-0.1-2.1-0.4-3L106.5,120.3z M121.2,117.1c0,1.1-0.9,2.1-2.1,2.1c-1.1,0-2.1-0.9-2.1-2.1
	s1-2.1,2.1-2.1C120.3,115,121.2,116,121.2,117.1z M120.8,120.3v13.1h-3.3v-12.6L120.8,120.3z M129.6,122.9h-2.1v6.4
	c0,1.6,0.3,2,1.4,2c0.3,0,0.6-0.1,1.2-0.2l0.4,2c-1,0.4-1.8,0.6-2.7,0.6c-1.7,0-3-0.8-3.4-1.9c-0.2-0.5-0.2-0.8-0.2-2v-6.9h-1.3
	v-2.3h1.3c0-1.2,0-2.1,0.1-3l3.4-0.8c-0.1,1.2-0.2,2.6-0.2,3.9h3L129.6,122.9z M142.7,132c-1.5,1.2-3,1.8-4.8,1.8
	c-3.7,0-6-2.6-6-6.6c0-2.3,0.5-3.8,1.6-5.1c1-1.2,2.3-1.7,4-1.7c1.5,0,2.9,0.5,3.7,1.3c1.2,1.2,1.7,2.9,1.7,5.6c0,0.3,0,0.5,0,0.8
	h-7.4v0.1c0,2,1,3.1,2.7,3.1c1.2,0,2.2-0.4,3.2-1.3L142.7,132z M139.4,125.6v-0.2c0-0.9-0.1-1.4-0.4-1.9c-0.3-0.5-0.8-0.8-1.5-0.8
	c-1.3,0-2,1-2,2.8l0,0L139.4,125.6L139.4,125.6z M155.5,128.8c0,3.1,0.2,4.2,0.5,4.7h-3c-0.1-0.2-0.2-0.4-0.2-0.8
	c-0.8,0.7-1.8,1.1-2.9,1.1c-3.2,0-5.3-2.5-5.3-6.5s2.2-6.7,5.5-6.7c0.9,0,1.6,0.2,2.3,0.7c0-0.3-0.1-1.1-0.1-1.9V115l3.3,0.5v13.3
	H155.5z M150.4,123.2c-1.5,0-2.2,1.2-2.2,4.1c0,2.7,0.6,3.6,2.3,3.6c0.6,0,1.3-0.4,1.7-0.8V124C151.6,123.5,151,123.2,150.4,123.2z
	 M166.5,116.1l1.5,6.8c0.7,3.2,0.9,5.7,0.9,5.7c0.1-0.7,0.4-3.1,0.9-5.5l1.5-7h3.8l1.6,7.8c0.3,1.6,0.8,4.6,0.8,4.6
	c0-0.5,0.6-4.1,0.9-5.8l1.4-6.6h3.7l-4.2,17.5h-3.8l-1.5-7.1c-0.5-2.3-0.8-4.6-0.8-5c0,0-0.3,2.4-0.8,5l-1.4,7.1h-4l-4.1-17.5
	C162.9,116.1,166.5,116.1,166.5,116.1z M186,121.1c1.2-0.5,2.3-0.8,3.5-0.8c2.1,0,3.6,0.8,4.1,2.2c0.2,0.5,0.2,0.9,0.2,2.3l-0.1,4.3
	c0,0.1,0,0.2,0,0.2c0,1.4,0.2,1.9,1.2,2.6l-1.8,2c-0.8-0.3-1.5-0.9-1.8-1.5c-0.2,0.2-0.5,0.5-0.8,0.7c-0.6,0.4-1.5,0.7-2.6,0.7
	c-2.8,0-4.4-1.4-4.4-4c0-3,2.1-4.4,6.1-4.4c0.2,0,0.5,0,0.8,0V125c0-1.4-0.3-1.9-1.5-1.9c-1.1,0-2.3,0.5-3.7,1.4l-1.4-2.4
	C184.6,121.7,185.1,121.5,186,121.1z M190.4,127.8c-2.3,0-3.1,0.4-3.1,1.9c0,1,0.6,1.7,1.5,1.7c0.6,0,1.2-0.3,1.7-0.9l0.1-2.7H190.4
	z M198.9,120.4l2.2,7.5c0.2,0.8,0.7,2.6,0.7,2.6s0.2-1.4,0.4-2c0.1-0.4,0.3-1.2,0.5-1.8l1.9-6.1h3.5l-4.6,13
	c-0.9,2.5-1.5,3.5-2.4,4.2c-0.9,0.6-2,1-3.1,1.2l-1.2-2.2c0.7-0.2,1.6-0.5,2.1-0.8c0.4-0.3,0.7-0.6,1-1c0.3-0.5,0.4-0.8,0.7-1.5
	h-0.8c-0.4-1.2-1.1-3.2-1.2-3.6l-3-9L198.9,120.4z"/>
<path id="united-way" class="st0" d="M105.2,90.9c0,0.9,3.1,1.8,4.8,1.8c1.6,0,3.9-0.6,5.1-3.5c1.2-3.1,6.4-20.7,6.4-20.7h0.6
	c1.2-0.2,1.6-0.9,1.6-2.7c0-0.6-0.1-0.7-0.6-0.7h-4.2c-0.4,0-0.4,0.1-0.6,0.5l-3.5,13.6l-3.6-13.6c-0.1-0.4-0.2-0.5-0.6-0.5h-4.2
	c-0.5,0-0.6,0.1-0.6,0.7c0,1.8,0.4,2.5,1.6,2.7h0.6c0,0,3.4,11.8,5.2,16.8l-0.3,1c-0.6,1.9-1.6,2.7-3.1,2.7c-0.4,0-2.5-0.3-2.5-0.3
	c-1.2-0.1-1.5,0.4-1.6,0.8C105.4,90.1,105.2,90.8,105.2,90.9z M90.8,58.6h-5c-0.4,0-0.4,0-0.5,0.5l-2.8,17.6L79,59.2
	c-0.1-0.5-0.2-0.6-0.7-0.6H76c-0.8,0-0.9,0.1-1,0.6l-3.6,17.5l-2.7-17.6c-0.1-0.4-0.1-0.5-0.5-0.5H63c-0.5,0-0.6,0.1-0.6,0.7
	c0,1.9,0.5,2.6,1.8,2.8h0.5l3.9,21.7c0.1,0.5,0.2,0.6,0.7,0.6h3.4c0.6,0,0.6,0,0.7-0.6L76.9,67l2.9,16.9c0.1,0.6,0.1,0.6,0.7,0.6H84
	c0.5,0,0.5-0.1,0.7-0.6L89,62.1h0.5c1.4-0.2,1.8-0.9,1.8-2.8C91.3,58.7,91.2,58.6,90.8,58.6z M104,81c-0.2-0.8-0.4-1.7-0.4-3.4v-6.8
	c0-4.3-1.9-6.2-6.1-6.2c-2.9,0-6.1,1.3-6.1,2.1c0,0.1,0.1,0.7,0.3,1.3c0.1,0.2,0.3,0.8,1.5,0.7c0.5,0,2.7-0.5,3.6-0.5
	c2.4,0,2.6,1.4,2.6,3v1.4c-3,0-9.4,0-9.4,6.5c0,3.7,2,5.9,5.3,5.9c2.5,0,3.7-1.4,4.5-2.2l0.3-0.3l0.1,0.5c0.2,0.8,0.3,1.3,0.9,1.3
	h4.3c0.5,0,0.6,0,0.6-0.7C106,81.8,105.6,81.1,104,81z M99.5,80.1c-0.5,0.5-1.5,1.6-2.8,1.6c-1.4,0-2.5-1.2-2.5-2.8
	c0-3.6,4.2-3.3,5.4-3.3L99.5,80.1L99.5,80.1z M73.4,49.1h-0.5V33.7c0-0.4,0-0.4-0.4-0.4h-6.1c-0.5,0-0.6,0-0.6,0.7
	c0,2.1,0.6,2.7,2.4,2.7h0.4v12.4h-0.5c-1.8,0-2.4,0.6-2.4,2.7c0,0.6,0.1,0.7,0.6,0.7H75c0.5,0,0.6-0.1,0.6-0.7
	C75.8,49.7,75.2,49.1,73.4,49.1z M70.8,26c-1.5,0-2.6,1.2-2.6,2.8c0,1.5,1.2,2.8,2.6,2.8s2.5-1.3,2.5-2.8C73.3,27.2,72.2,26,70.8,26
	z M42,30.9L42,30.9c1.9,0,2.5-0.7,2.5-2.8c0-0.6-0.1-0.7-0.6-0.7h-8.4c-0.5,0-0.5,0.1-0.6,0.4v0.3c0,2.1,0.6,2.8,2.4,2.8h0.1v12.6
	c0,2.4,0,5.7-3.9,5.7c-3.6,0-3.9-2.6-3.9-5.7V30.9h0.1c1.8,0,2.4-0.7,2.4-2.8v-0.4c-0.1-0.2-0.1-0.3-0.6-0.3h-8.4
	c-0.5,0-0.6,0.1-0.6,0.7c0,2.2,0.6,2.8,2.4,2.8H25v12.6c0,6.8,2.5,9.7,8.4,9.7s8.4-2.9,8.4-9.7V30.9H42z M61.4,49.1V38.7
	c0-4.2-1.4-6.1-4.5-6.1c-2.8,0-4.3,1.6-5.5,2.8c-0.1-0.4-0.2-0.8-0.2-0.8c-0.2-0.8-0.3-1.4-0.9-1.4h-4.7c-0.5,0-0.6,0-0.6,0.7
	c0,2,0.5,2.7,2.2,2.7c0.2,0.8,0.4,1.5,0.4,3.5V49c-1.8,0-2.3,0.7-2.3,2.7c0,0.6,0.1,0.7,0.6,0.7h5.6c0.3,0,0.4-0.1,0.4-0.4V38.2
	c0.5-0.5,1.7-1.7,3.2-1.7c2.1,0,2.1,2.4,2.1,3.5v12.1c0,0.4,0,0.4,0.4,0.4h5.6c0.5,0,0.6-0.1,0.6-0.7C63.7,49.8,63.1,49.1,61.4,49.1
	z M83.9,53.2c2.5,0,4.5-0.6,4.5-1.2c0-0.1-0.1-0.8-0.2-1.2c-0.3-1.4-0.5-2-3.1-1.6c-0.3,0-0.6,0-0.8-0.2c-0.5-0.5-0.5-1.6-0.5-2.6
	v-9.7H86c1.8,0,2.4-0.6,2.4-2.7c0-0.6-0.1-0.7-0.6-0.7h-4.1v-5.4c0-0.5,0-0.5-0.2-0.5s-1.1,0.1-1.5,0.2c-1.2,0.2-2.5,1.1-2.5,3.3
	v2.4H77c-0.5,0-0.6,0-0.6,0.7c0,2.1,0.6,2.7,2.4,2.7h0.7v9C79.4,49.4,79.4,53.2,83.9,53.2z M104.5,43.2c0-7-2.4-10.6-7-10.6
	s-7.6,4.2-7.6,10.5c0,8.3,4.2,10.1,7.8,10.1c2.9,0,6.2-1.4,6.2-2.2c0-0.1-0.1-0.8-0.3-1.4c-0.1-0.4-0.4-0.9-1.6-0.8
	c-0.9,0-2.4,0.5-3.8,0.5c-2.7,0-4-1.7-4-5.2h9.7C104.4,44.1,104.5,43.9,104.5,43.2z M94.3,40.7v-0.3c0.1-1.3,0.4-4.4,3.1-4.4
	s2.7,3.1,2.7,4.7H94.3z M121.7,49.1c-0.2-0.8-0.4-1.5-0.4-3.4V26.5c0-0.4,0-0.4-0.4-0.4h-5.6c-0.5,0-0.6,0.1-0.6,0.7
	c0,2,0.5,2.7,2.2,2.7h0.1v4.4l-0.3-0.2c-0.6-0.5-1.5-1.1-3.4-1.1c-4.4,0-6.7,3.8-6.7,11.1c0,6.1,2.1,9.5,5.9,9.5c3,0,5-2.2,5-2.2
	l0.2,0.8c0.2,0.6,0.2,0.7,0.7,0.7h4.9c0.5,0,0.6-0.1,0.6-0.7C124.1,49.8,123.6,49.1,121.7,49.1z M114,49.5c-2.6,0-3.1-2.4-3.1-6.5
	c0-4.4,0.5-6.7,3.3-6.7c1.1,0,1.9,0.2,2.8,0.8V48C116.5,48.7,115.7,49.5,114,49.5z"/>
</svg>
