<?xml version="1.0" encoding="utf-8"?>
<!-- Generator: Adobe Illustrator 22.1.0, SVG Export Plug-In . SVG Version: 6.00 Build 0)  -->
<svg version="1.1" id="Layer_1" xmlns="http://www.w3.org/2000/svg" xmlns:xlink="http://www.w3.org/1999/xlink" x="0px" y="0px"
	 viewBox="0 0 205.3 128.6" style="enable-background:new 0 0 205.3 128.6;" xml:space="preserve">
<style type="text/css">
	.st0{fill:#FFFFFF;}
	.st1{fill:#549ECF;}
	.st2{fill:#005290;}
	.st3{fill:#FBB253;}
	.st4{fill:#EF4865;}
	.st5{fill:none;}
</style>
<title>MUW-logo-color</title>
<path id="white-rectangle" class="st0" d="M0,0h205.3v94H0V0z"/>
<rect id="blue-square" x="120.5" y="6.6" class="st1" width="78.2" height="80.9"/>
<path id="blue-rectangle" class="st2" d="M6.5,6.6h114v80.9H6.5V6.6z"/>
<path id="circle" class="st0" d="M191.9,46.5c0,17.8-14.5,32.3-32.3,32.3s-32.3-14.5-32.3-32.3c0-17.8,14.5-32.3,32.3-32.3
	C177.4,14.2,191.9,28.7,191.9,46.5z"/>
<path id="hand" class="st2" d="M182,59.6c-1.1,0.4-3.3,2.5-4.2,3.4h-0.3c0.3-0.4,1.8-2.2,2.2-2.9c1.2-1.9-1-3.7-3.4-2.4
	c-1.1,0.8-2.2,1.7-3.2,2.7l-0.2,0.1c0.7-0.8,1.4-1.7,2-2.7c1.1-1.6-1.1-3-3-1.9c-1.3,0.8-2.4,1.9-3.6,2.8l-0.2,0.1
	c0.5-0.5,0.9-1,1.3-1.5c1.1-1.3-0.5-2.7-2.2-1.8s-4,3.2-6.5,4.8c1.2,0.6,3.3,0.7,6.6,2.2s4.4,4.7,2.2,7.3c-2,2.4-5.1,1.6-7.7,0.8
	c-3-1-4.1-1.9-7.8-3.2c-2.4-0.8-3.4-0.8-3.3-1.5s2.1-0.3,4,0.4c5.4,2,12.5,6.4,14.3,1.6c1.4-3.8-4.8-5.4-7.2-5.8
	c-3.3-0.6-5.6-3.1-8.4-4.6c-4.3-2.3-7.7-2.4-10.1-1.9c-2.7,0.5-6.4,2.6-8.7,4c-1.6,0.9-1.5,2.4,0.1,4.6c9.6,13.8,28.6,17.1,42.4,7.5
	c3.4-2.4,6.3-5.4,8.4-8.9C186.7,60.6,184.8,58.6,182,59.6z"/>
<path id="trademark" class="st0" d="M187.2,80.2c0-1.3,1-2.3,2.3-2.3c1.2,0,2.3,1,2.3,2.2c0,0,0,0.1,0,0.1c0,1.3-1,2.3-2.3,2.3
	S187.2,81.5,187.2,80.2z M191.4,80.2c0-1-0.8-1.9-1.8-1.9c0,0-0.1,0-0.1,0c-1,0-1.9,0.9-1.9,1.9s0.9,1.9,1.9,1.9
	C190.5,82.1,191.4,81.2,191.4,80.2L191.4,80.2L191.4,80.2z M189.1,81.6h-0.4v-2.7h1c0.6,0,0.9,0.2,0.9,0.8c0,0.3-0.2,0.7-0.6,0.7
	c0,0-0.1,0-0.1,0l0.7,1.2h-0.5l-0.7-1.2H189L189.1,81.6L189.1,81.6z M189.1,80h0.4c0.5,0,0.7-0.1,0.7-0.4s-0.2-0.4-0.6-0.4h-0.5
	L189.1,80L189.1,80z"/>
<path id="sun" class="st3" d="M142.9,52.8c0.3-0.2,1.1-0.5,1.4-0.7c0.3-0.2,0.3-0.4,0.2-0.7c-0.5-1.6-0.8-3.2-0.8-4.9
	c0-8.8,7.1-15.9,15.9-15.9c8.8,0,15.9,7.1,15.9,15.9c0,2.2-0.5,4.3-1.3,6.3c-0.1,0.2-0.1,0.4,0.1,0.5c0,0,0,0,0,0
	c0.5,0.2,1,0.4,1.5,0.7c0.2,0.1,0.5,0,0.6-0.2c0,0,0-0.1,0-0.1c1-2.3,1.5-4.7,1.5-7.2c0-10.1-8.2-18.3-18.3-18.3
	c-10.1,0-18.3,8.2-18.3,18.3c0,2,0.3,4,1,5.9C142.4,52.8,142.5,53,142.9,52.8z M138.2,55c0.4-0.2,1.7-0.8,2-1s0.3-0.4,0.2-0.6
	c-0.8-2.2-1.2-4.5-1.2-6.8c0-11.2,9.1-20.3,20.3-20.3s20.3,9.1,20.3,20.3c0,2.8-0.6,5.5-1.7,8.1c-0.1,0.1-0.2,0.4,0.2,0.6
	s1.8,0.8,2,0.9s0.5,0.1,0.6-0.3c1.3-2.9,1.9-6.1,1.9-9.3c0-12.9-10.5-23.4-23.4-23.4c-12.9,0-23.4,10.5-23.4,23.4
	c0,2.8,0.5,5.5,1.5,8.1C137.7,54.9,137.8,55.2,138.2,55z M131.9,57.9c0.5-0.2,3.2-1.5,3.7-1.7s0.3-0.6,0.2-0.8
	c-4.9-13.1,1.8-27.8,15-32.6s27.8,1.8,32.6,15c1,2.8,1.6,5.8,1.6,8.8c0,3.4-0.7,6.8-2,10c-0.2,0.2-0.1,0.6,0.2,0.7
	c0,0,0.1,0.1,0.1,0.1c0.4,0.2,3.1,1.4,3.5,1.5s0.6,0.1,0.9-0.4c1.6-3.8,2.4-7.8,2.4-11.9c0-16.8-13.6-30.4-30.4-30.4
	s-30.4,13.6-30.4,30.4c0,3.7,0.7,7.4,2,10.9C131.3,57.7,131.4,58.1,131.9,57.9z"/>
<path id="person" class="st4" d="M159.6,40c1.8,0,3.3-1.5,3.3-3.3c0-1.8-1.5-3.3-3.3-3.3c0,0,0,0,0,0c-1.8,0-3.3,1.4-3.3,3.2
	c0,0,0,0,0,0.1C156.4,38.5,157.8,39.9,159.6,40z M160.8,57.1c0.6,0,1.1-0.5,1.1-1.2c0,0,0,0,0,0v-7.2c0.1-1,0.6-2,1.3-2.7l6.7-6.7
	c0.4-0.3,0.5-1,0.2-1.4c-0.1-0.1-0.1-0.1-0.2-0.2l-1.2-1.2c-0.3-0.4-1-0.5-1.4-0.2c-0.1,0.1-0.1,0.1-0.2,0.2l-6.1,6.1
	c-0.3,0.4-0.9,0.6-1.4,0.6c-0.5,0.1-1.1-0.2-1.4-0.6l-6.1-6.1c-0.3-0.4-1-0.5-1.4-0.2c-0.1,0.1-0.1,0.1-0.2,0.2l-1.2,1.2
	c-0.4,0.3-0.5,1-0.2,1.4c0.1,0.1,0.1,0.1,0.2,0.2L156,46c0.7,0.7,1.2,1.7,1.3,2.7v7.2c0,0.7,0.5,1.2,1.2,1.2H160.8z"/>
<path id="metro-united-way" class="st2" d="M13.4,105.7l2.3,8.7c0.3,1.2,0.4,1.8,0.6,2.7c0.1-0.9,0.4-1.8,0.6-2.8l2.3-8.6h4.4
	l1.5,17.4h-3.4l-0.6-9.3c-0.1-1.1-0.1-2-0.1-2.9c-0.2,1-0.4,1.6-0.6,2.7l-2.7,9.5h-3l-2.5-9.1c-0.2-0.9-0.5-2.1-0.7-3.1
	c0,1,0,2-0.1,3.1l-0.6,9.1H7.3l1.6-17.4L13.4,105.7z M38.6,121.6c-1.3,1.2-3,1.8-4.8,1.8c-3.7,0-6-2.6-6-6.6
	c-0.1-1.8,0.4-3.7,1.6-5.1c1-1.2,2.5-1.8,4-1.7c1.4-0.1,2.7,0.4,3.7,1.3c1.2,1.2,1.7,2.9,1.7,5.6v0.8h-7.4v0.1c0,2,1,3.1,2.7,3.1
	c1.2,0,2.3-0.5,3.2-1.3L38.6,121.6z M35.3,115.2V115c0.1-0.7-0.1-1.3-0.4-1.9c-0.3-0.5-0.9-0.8-1.5-0.8c-1.3,0-2,1-2,2.8L35.3,115.2
	L35.3,115.2z M46.6,112.5h-2.1v6.4c0,1.6,0.3,2,1.4,2c0.4,0,0.8-0.1,1.2-0.2l0.4,2c-0.9,0.4-1.8,0.6-2.7,0.6
	c-1.4,0.1-2.8-0.6-3.4-1.9c-0.2-0.6-0.3-1.3-0.2-2v-6.9h-1.3v-2.3h1.3c0-1,0-2,0.1-3l3.4-0.8c-0.1,1.2-0.2,2.6-0.2,3.9h3L46.6,112.5
	z M52.2,109.9c0.3,0.5,0.5,1.2,0.5,1.8c0.5-0.6,1.2-1.2,1.9-1.6c0.4-0.1,0.7-0.2,1.1-0.2c0.4,0,0.8,0.1,1.2,0.3l-0.9,2.9
	c-0.3-0.2-0.7-0.2-1-0.2c-0.8,0-1.6,0.4-2,1.1v9h-3.3v-8.5c0.1-1.3-0.1-2.5-0.5-3.7L52.2,109.9z M67.4,111.9c2,2.9,2,6.8-0.1,9.6
	c-1,1.2-2.6,1.9-4.2,1.8c-3.5,0-5.7-2.6-5.7-6.6s2.3-6.7,5.7-6.7C64.8,109.9,66.3,110.6,67.4,111.9z M61.4,113.8
	c-0.3,0.9-0.4,1.9-0.4,2.8c-0.1,1.1,0.1,2.2,0.4,3.2c0.3,0.6,1,1,1.7,1c1.4,0,2.1-1.3,2.1-4.3c0-1.7-0.2-2.8-0.7-3.4
	c-0.3-0.4-0.8-0.7-1.4-0.7C62.3,112.5,61.6,113,61.4,113.8z M80.9,105.7v11.4c-0.1,0.7,0,1.4,0.3,2.1c0.5,0.8,1.4,1.3,2.4,1.2
	c1.5,0,2.5-0.7,2.6-2v-12.6h3.5v11.7c0.1,0.9,0,1.8-0.3,2.7c-0.5,1.4-2.1,3.3-5.9,3.3c-2.6,0-4.6-0.8-5.6-2.3
	c-0.6-1-0.9-2.1-0.8-3.3v-12.1L80.9,105.7L80.9,105.7z M96.1,109.9c0.3,0.5,0.5,1,0.5,1.6c0.5-0.4,1-0.7,1.5-1
	c0.7-0.3,1.5-0.5,2.3-0.5c1.3,0,2.5,0.7,3.1,1.8c0.2,0.6,0.3,1.2,0.2,1.8v9.3h-3.3v-8.3c0-1.5-0.2-1.9-1.1-1.9
	c-0.9,0.1-1.7,0.5-2.3,1.1v9h-3.3v-9.3c0-1-0.1-2-0.4-3L96.1,109.9z M110.8,106.7c0,1.2-0.9,2.1-2.1,2.1s-2.1-0.9-2.1-2.1
	s0.9-2.1,2.1-2.1l0,0C109.9,104.6,110.8,105.5,110.8,106.7z M110.4,109.9V123h-3.3v-12.6L110.4,109.9z M119.2,112.5h-2.1v6.4
	c0,1.6,0.3,2,1.4,2c0.4,0,0.8-0.1,1.2-0.2l0.4,2c-0.9,0.4-1.8,0.6-2.7,0.6c-1.4,0.1-2.8-0.6-3.4-1.9c-0.2-0.6-0.3-1.3-0.2-2v-6.9
	h-1.3v-2.3h1.3c0-1,0-2,0.1-3l3.4-0.8c-0.1,1.2-0.2,2.6-0.2,3.9h3L119.2,112.5z M132.3,121.6c-1.3,1.2-3,1.8-4.8,1.8
	c-3.7,0-6-2.6-6-6.6c-0.1-1.8,0.4-3.7,1.6-5.1c1-1.2,2.5-1.8,4-1.7c1.4-0.1,2.7,0.4,3.7,1.3c1.2,1.2,1.7,2.9,1.7,5.6v0.8h-7.4v0.1
	c0,2,1,3.1,2.7,3.1c1.2,0,2.3-0.5,3.2-1.3L132.3,121.6z M129,115.2V115c0.1-0.7-0.1-1.3-0.4-1.9c-0.3-0.5-0.9-0.8-1.5-0.8
	c-1.3,0-2,1-2,2.8L129,115.2L129,115.2z M145.1,118.4c0,3.1,0.2,4.2,0.5,4.7h-3c-0.1-0.2-0.2-0.5-0.2-0.8c-0.8,0.7-1.8,1.1-2.9,1.1
	c-3.2,0-5.3-2.5-5.3-6.5s2.2-6.7,5.5-6.7c0.8,0,1.6,0.2,2.3,0.7c0-0.3-0.1-1.1-0.1-1.9v-4.4l3.3,0.5v13.3H145.1z M140,112.8
	c-1.5,0-2.2,1.2-2.2,4.1c0,2.7,0.6,3.6,2.3,3.6c0.6-0.1,1.2-0.3,1.7-0.8v-6.1C141.3,113.1,140.7,112.8,140,112.8z M156.1,105.7
	l1.5,6.8c0.4,1.9,0.7,3.8,0.9,5.7c0.1-0.7,0.4-3.1,0.9-5.5l1.5-7h3.8l1.6,7.8c0.3,1.6,0.8,4.6,0.8,4.6c0-0.5,0.6-4.1,0.9-5.8
	l1.4-6.6h3.7l-4.2,17.5h-3.8l-1.5-7.1c-0.4-1.6-0.6-3.3-0.8-5c0,0-0.3,2.4-0.8,5l-1.4,7.1h-4l-4.1-17.5H156.1z M175.6,110.7
	c1.1-0.5,2.3-0.8,3.5-0.8c2.1,0,3.6,0.8,4.1,2.2c0.2,0.7,0.3,1.5,0.2,2.3l-0.1,4.3v0.2c0,1.4,0.2,1.9,1.2,2.6l-1.8,2
	c-0.8-0.3-1.4-0.8-1.8-1.5c-0.2,0.3-0.5,0.5-0.8,0.7c-0.8,0.5-1.7,0.7-2.6,0.7c-2.8,0-4.4-1.4-4.4-4c0-3,2.1-4.4,6.1-4.4h0.8v-0.4
	c0-1.4-0.3-1.9-1.5-1.9c-1.3,0.1-2.6,0.6-3.7,1.4l-1.4-2.4C174.2,111.3,174.7,111.1,175.6,110.7z M180,117.4c-2.3,0-3.1,0.4-3.1,1.9
	c-0.1,0.8,0.5,1.6,1.4,1.7c0,0,0.1,0,0.1,0c0.7,0,1.3-0.4,1.7-0.9l0.1-2.7H180z M188.5,110l2.2,7.5c0.2,0.8,0.7,2.6,0.7,2.6
	c0.1-0.7,0.2-1.3,0.4-2c0.1-0.4,0.3-1.2,0.5-1.8l1.9-6.1h3.5l-4.6,13c-0.9,2.5-1.5,3.5-2.4,4.2c-0.9,0.6-2,1-3.1,1.2l-1.2-2.2
	c0.7-0.2,1.4-0.5,2.1-0.8c0.4-0.3,0.7-0.6,1-1c0.3-0.5,0.5-1,0.7-1.5h-0.8c-0.4-1.2-1.1-3.2-1.2-3.6l-3-9L188.5,110z"/>
<path id="united-way" class="st0" d="M94.8,80.5c0,0.9,3.1,1.8,4.8,1.8c2.3,0.1,4.3-1.4,5.1-3.5c1.2-3.1,6.4-20.7,6.4-20.7h0.6
	c1.2-0.2,1.6-0.9,1.6-2.7c0-0.6-0.1-0.7-0.6-0.7h-4.2c-0.4,0-0.4,0.1-0.6,0.5l-3.5,13.6l-3.6-13.6c-0.1-0.4-0.2-0.5-0.6-0.5H96
	c-0.5,0-0.6,0.1-0.6,0.7c0,1.8,0.4,2.5,1.6,2.7h0.6c0,0,3.4,11.8,5.2,16.8l-0.3,1c-0.6,1.9-1.6,2.7-3.1,2.7c-0.4,0-2.5-0.3-2.5-0.3
	c-1.2-0.1-1.5,0.4-1.6,0.8C95.1,79.5,94.9,80,94.8,80.5z M80.4,48.2h-5c-0.4,0-0.4,0-0.5,0.5l-2.8,17.6l-3.5-17.5
	c-0.1-0.5-0.2-0.6-0.7-0.6h-2.3c-0.8,0-0.9,0.1-1,0.6L61,66.3l-2.7-17.6c-0.1-0.4-0.1-0.5-0.5-0.5h-5.2c-0.5,0-0.6,0.1-0.6,0.7
	c0,1.9,0.5,2.6,1.8,2.8h0.5l3.9,21.7c0.1,0.5,0.2,0.6,0.7,0.6h3.4c0.6,0,0.6,0,0.7-0.6l3.5-16.8l2.9,16.9c0.1,0.6,0.1,0.6,0.7,0.6
	h3.5c0.5,0,0.5-0.1,0.7-0.6l4.3-21.8h0.5c1.4-0.2,1.8-0.9,1.8-2.8C80.9,48.3,80.8,48.2,80.4,48.2z M93.6,70.6
	c-0.3-1.1-0.4-2.3-0.4-3.4v-6.8c0-4.3-1.9-6.2-6.1-6.2c-2.9,0-6.1,1.3-6.1,2.1c0.1,0.4,0.2,0.9,0.3,1.3c0.1,0.2,0.3,0.8,1.5,0.7
	c0.5,0,2.7-0.5,3.6-0.5c2.4,0,2.6,1.4,2.6,3v1.4c-3,0-9.4,0-9.4,6.5c0,3.7,2,5.9,5.3,5.9c1.8,0,3.4-0.8,4.5-2.2l0.3-0.3l0.1,0.5
	c0.2,0.8,0.3,1.3,0.9,1.3H95c0.5,0,0.6,0,0.6-0.7C95.6,71.4,95.2,70.7,93.6,70.6z M89.1,69.7c-0.7,0.9-1.7,1.5-2.8,1.6
	c-1.4-0.1-2.6-1.3-2.5-2.7c0,0,0,0,0-0.1c0-3.6,4.2-3.3,5.4-3.3L89.1,69.7L89.1,69.7z M63,38.7h-0.5V23.3c0-0.4,0-0.4-0.4-0.4H56
	c-0.5,0-0.6,0-0.6,0.7c0,2.1,0.6,2.7,2.4,2.7h0.4v12.4h-0.5c-1.8,0-2.4,0.6-2.4,2.7c0,0.6,0.1,0.7,0.6,0.7h8.7
	c0.5,0,0.6-0.1,0.6-0.7C65.4,39.3,64.8,38.7,63,38.7z M60.4,15.6c-1.5,0-2.6,1.2-2.6,2.7c0,0,0,0.1,0,0.1c0,1.5,1.1,2.7,2.6,2.8
	c1.5-0.1,2.6-1.3,2.5-2.8C63,17,61.9,15.7,60.4,15.6C60.4,15.6,60.4,15.6,60.4,15.6z M31.6,20.5L31.6,20.5c1.9,0,2.5-0.7,2.5-2.8
	c0-0.6-0.1-0.7-0.6-0.7h-8.4c-0.5,0-0.5,0.1-0.6,0.4v0.3c0,2.1,0.6,2.8,2.4,2.8H27v12.6c0,2.4,0,5.7-3.9,5.7c-3.6,0-3.9-2.6-3.9-5.7
	V20.5h0.1c1.8,0,2.4-0.7,2.4-2.8v-0.4c-0.1-0.2-0.1-0.3-0.6-0.3h-8.4c-0.5,0-0.6,0.1-0.6,0.7c0,2.2,0.6,2.8,2.4,2.8h0.1v12.6
	c0,6.8,2.5,9.7,8.4,9.7s8.4-2.9,8.4-9.7V20.5H31.6z M51,38.7V28.3c0-4.2-1.4-6.1-4.5-6.1c-2.8,0-4.3,1.6-5.5,2.8l-0.2-0.8
	c-0.2-0.8-0.3-1.4-0.9-1.4h-4.7c-0.5,0-0.6,0-0.6,0.7c0,2,0.5,2.7,2.2,2.7c0.3,1.1,0.4,2.3,0.4,3.5v8.9c-1.8,0-2.3,0.7-2.3,2.7
	c0,0.6,0.1,0.7,0.6,0.7h5.6c0.3,0,0.4-0.1,0.4-0.4V27.8c0.8-1,2-1.6,3.2-1.7c2.1,0,2.1,2.4,2.1,3.5v12.1c0,0.4,0,0.4,0.4,0.4h5.6
	c0.5,0,0.6-0.1,0.6-0.7C53.3,39.4,52.7,38.7,51,38.7z M73.5,42.8c2.5,0,4.5-0.6,4.5-1.2c0-0.4-0.1-0.8-0.2-1.2
	c-0.3-1.4-0.5-2-3.1-1.6c-0.3,0-0.6,0-0.8-0.2c-0.5-0.5-0.5-1.6-0.5-2.6v-9.7h2.2c1.8,0,2.4-0.6,2.4-2.7c0-0.6-0.1-0.7-0.6-0.7h-4.1
	v-5.4c0-0.5,0-0.5-0.2-0.5c-0.5,0-1,0.1-1.5,0.2c-1.6,0.3-2.7,1.7-2.5,3.3v2.4h-2.5c-0.5,0-0.6,0-0.6,0.7c0,2.1,0.6,2.7,2.4,2.7h0.7
	v9C69,39,69,42.8,73.5,42.8z M94.1,32.8c0-7-2.4-10.6-7-10.6s-7.6,4.2-7.6,10.5c0,8.3,4.2,10.1,7.8,10.1c2.9,0,6.2-1.4,6.2-2.2
	c-0.1-0.5-0.2-0.9-0.3-1.4c-0.1-0.4-0.4-0.9-1.6-0.8c-0.9,0-2.4,0.5-3.8,0.5c-2.7,0-4-1.7-4-5.2h9.7C94,33.7,94.1,33.5,94.1,32.8z
	 M83.9,30.3V30c0.1-1.3,0.4-4.4,3.1-4.4s2.7,3.1,2.7,4.7H83.9z M111.3,38.7c-0.3-1.1-0.4-2.3-0.4-3.4V16.1c0-0.4,0-0.4-0.4-0.4h-5.6
	c-0.5,0-0.6,0.1-0.6,0.7c0,2,0.5,2.7,2.2,2.7h0.1v4.4l-0.3-0.2c-0.9-0.8-2.2-1.2-3.4-1.1c-4.4,0-6.7,3.8-6.7,11.1
	c0,6.1,2.1,9.5,5.9,9.5c1.9-0.1,3.7-0.9,5-2.2l0.2,0.8c0.2,0.6,0.2,0.7,0.7,0.7h4.9c0.5,0,0.6-0.1,0.6-0.7
	C113.7,39.4,113.2,38.7,111.3,38.7z M103.6,39.1c-2.6,0-3.1-2.4-3.1-6.5c0-4.4,0.5-6.7,3.3-6.7c1,0,2,0.2,2.8,0.8v10.9
	C105.9,38.6,104.8,39.2,103.6,39.1z"/>
<path id="border" class="st5" d="M4.8,4.9v84.3h195.5l0.1-84.3C200.4,4.9,4.8,4.9,4.8,4.9z M6.5,6.6h113.2v81H6.5V6.6z M198.7,87.6
	h-77.4l0.1-80.9h77.4L198.7,87.6L198.7,87.6z"/>
</svg>
