<?xml version="1.0" encoding="utf-8"?>
<!-- Generator: Adobe Illustrator 22.1.0, SVG Export Plug-In . SVG Version: 6.00 Build 0)  -->
<svg version="1.1" id="Layer_1" xmlns="http://www.w3.org/2000/svg" xmlns:xlink="http://www.w3.org/1999/xlink" x="0px" y="0px"
	 viewBox="0 0 226 147" style="enable-background:new 0 0 226 147;" xml:space="preserve">
<style type="text/css">
	.st0{fill:none;}
	.st1{fill:#FFFFFF;}
</style>
<g>
	<rect x="6.9" y="4.8" class="st0" width="212.4" height="101.3"/>
	<g>
		<g>
			<g>
				<g>
					<g>
						<path class="st1" d="M153.3,61.3c0.3-0.2,1.1-0.5,1.4-0.7c0.4-0.2,0.3-0.4,0.2-0.7c-0.5-1.6-0.8-3.2-0.8-4.9
							c0-8.8,7.1-15.9,15.9-15.9c8.7,0,15.9,7.1,15.9,15.9c0,2.2-0.5,4.4-1.3,6.3c-0.1,0.1-0.1,0.4,0.1,0.5c0.3,0.1,1.2,0.5,1.5,0.7
							c0.3,0.1,0.5,0,0.6-0.3c1-2.2,1.5-4.7,1.5-7.2c0-10.1-8.2-18.3-18.3-18.3c-10.1,0-18.3,8.2-18.3,18.3c0,2.1,0.3,4.1,1,5.9
							C152.8,61.2,153,61.4,153.3,61.3z"/>
						<path class="st1" d="M148.7,63.4c0.4-0.2,1.7-0.8,2-1c0.4-0.1,0.3-0.4,0.2-0.6c-0.8-2.1-1.2-4.4-1.2-6.8
							c0-11.2,9.1-20.4,20.3-20.4c11.2,0,20.3,9.1,20.3,20.4c0,2.9-0.6,5.6-1.7,8.1c-0.1,0.1-0.2,0.4,0.2,0.6c0.3,0.1,1.8,0.8,2,0.9
							c0.3,0.1,0.5,0.1,0.6-0.3c1.2-2.8,1.9-6,1.9-9.3c0-12.9-10.5-23.5-23.4-23.5c-12.9,0-23.4,10.5-23.4,23.5
							c0,2.8,0.5,5.6,1.5,8.1C148.2,63.3,148.3,63.6,148.7,63.4z"/>
						<path class="st1" d="M142.3,66.3c0.5-0.2,3.2-1.5,3.7-1.7c0.5-0.2,0.3-0.6,0.2-0.8c-1-2.7-1.6-5.7-1.6-8.8
							c0-14,11.4-25.4,25.4-25.4c14,0,25.4,11.4,25.4,25.4c0,3.5-0.7,6.9-2,10c-0.1,0.2-0.2,0.6,0.3,0.8c0.4,0.2,3.1,1.4,3.5,1.5
							c0.4,0.2,0.6,0.1,0.9-0.4c1.6-3.7,2.4-7.7,2.4-11.9c0-16.8-13.6-30.5-30.4-30.5c-16.8,0-30.4,13.7-30.4,30.5
							c0,3.9,0.7,7.6,2,10.9C141.8,66.2,141.9,66.5,142.3,66.3z"/>
					</g>
					<g>
						<path class="st1" d="M170.1,48.4c1.8,0,3.3-1.5,3.3-3.3c0-1.8-1.5-3.3-3.3-3.3c-1.8,0-3.3,1.4-3.3,3.3
							C166.8,47,168.3,48.4,170.1,48.4z"/>
						<path class="st1" d="M171.3,65.5c0.6,0,1.1-0.5,1.1-1.2v-7.2c0-0.9,0.7-2.1,1.3-2.7l6.7-6.7c0.5-0.5,0.5-1.2,0-1.6l-1.2-1.2
							c-0.4-0.5-1.2-0.5-1.6,0l-6.1,6.1c-0.4,0.4-0.7,0.6-1.4,0.6c-0.8,0-1.1-0.2-1.4-0.6l-6.1-6.1c-0.5-0.5-1.2-0.5-1.6,0l-1.2,1.2
							c-0.5,0.4-0.5,1.2,0,1.6l6.7,6.7c0.6,0.7,1.3,1.8,1.3,2.7v7.2c0,0.6,0.5,1.2,1.2,1.2H171.3z"/>
					</g>
					<path class="st1" d="M192.5,68c-1.1,0.4-3.3,2.5-4.2,3.4l-0.3,0c0.3-0.4,1.8-2.2,2.2-2.9c1.2-1.9-1-3.7-3.4-2.4
						c-0.9,0.5-2.4,2.1-3.2,2.7l-0.2,0.1c0.3-0.3,1.7-2.1,2-2.7c1.1-1.6-1.1-3-3-1.9c-1.3,0.8-2.4,1.9-3.6,2.8l-0.2,0.1
						c0.3-0.3,1.1-1.2,1.3-1.5c1.1-1.3-0.5-2.7-2.2-1.8c-1.6,0.8-4,3.2-6.5,4.8c1.2,0.6,3.3,0.7,6.6,2.2c3.3,1.4,4.4,4.7,2.2,7.3
						c-2,2.4-5.1,1.6-7.7,0.8c-3-1-4.1-1.9-7.8-3.2c-2.4-0.8-3.4-0.8-3.3-1.5c0-0.8,2.1-0.3,4,0.4c5.4,2,12.5,6.4,14.3,1.6
						c1.4-3.8-4.8-5.4-7.2-5.8c-3.3-0.6-5.6-3.1-8.4-4.6c-4.3-2.3-7.7-2.4-10.1-1.9c-2.7,0.5-6.4,2.6-8.7,4
						c-1.6,0.9-1.5,2.4,0.1,4.6c5.5,7.8,14.6,13,24.9,13c10.9,0,20.5-5.8,25.9-14.4C197.1,69.1,195.3,67.1,192.5,68z"/>
				</g>
			</g>
			<g>
				<path class="st1" d="M105.3,89c0,0.9,3.1,1.8,4.8,1.8c1.6,0,3.9-0.6,5.1-3.5c1.2-3.1,6.4-20.7,6.4-20.7l0.6,0
					c1.2-0.2,1.6-0.9,1.6-2.7c0-0.6-0.1-0.7-0.6-0.7h-4.2c-0.4,0-0.4,0.1-0.6,0.5l-3.5,13.6l-3.6-13.6c-0.1-0.4-0.2-0.5-0.6-0.5
					h-4.2c-0.5,0-0.6,0.1-0.6,0.7c0,1.8,0.4,2.5,1.6,2.7l0.6,0c0,0,3.4,11.8,5.2,16.8l-0.3,1c-0.6,1.9-1.6,2.7-3.1,2.7
					c-0.4,0-2.5-0.3-2.5-0.3c-1.2-0.1-1.5,0.4-1.6,0.8C105.4,88.2,105.3,88.9,105.3,89z"/>
				<path class="st1" d="M90.9,56.6h-5c-0.4,0-0.4,0-0.5,0.5l-2.8,17.6l-3.4-17.5c-0.1-0.5-0.2-0.6-0.7-0.6h-2.3
					c-0.8,0-0.9,0.1-1,0.6l-3.6,17.5l-2.7-17.6c-0.1-0.4-0.1-0.5-0.5-0.5h-5.2c-0.5,0-0.6,0.1-0.6,0.7c0,1.9,0.5,2.6,1.8,2.8l0.5,0
					l3.9,21.7c0.1,0.5,0.2,0.6,0.7,0.6h3.4c0.6,0,0.6,0,0.7-0.6L76.9,65l2.9,16.9c0.1,0.6,0.1,0.6,0.7,0.6h3.5
					c0.5,0,0.5-0.1,0.7-0.6l4.5-21.7l0.5,0c1.4-0.2,1.8-0.9,1.8-2.8C91.4,56.7,91.3,56.7,90.9,56.6z"/>
				<path class="st1" d="M104,79.1c-0.2-0.8-0.4-1.7-0.4-3.4v-6.8c0-4.3-1.9-6.2-6.1-6.2c-2.9,0-6.1,1.3-6.1,2.1
					c0,0.1,0.1,0.7,0.3,1.3c0.1,0.2,0.3,0.8,1.5,0.7c0.5,0,2.7-0.5,3.6-0.5c2.4,0,2.6,1.4,2.6,3v1.4c-3,0-9.4,0-9.4,6.5
					c0,3.7,2,5.9,5.3,5.9c2.5,0,3.7-1.4,4.5-2.2l0.3-0.3l0.1,0.5c0.2,0.8,0.3,1.3,0.9,1.3h4.3c0.5,0,0.6,0,0.6-0.7
					C106.1,79.8,105.6,79.1,104,79.1z M99.5,78.1c-0.5,0.5-1.5,1.6-2.8,1.6c-1.4,0-2.5-1.2-2.5-2.8c0-3.6,4.2-3.3,5.4-3.3V78.1z"/>
				<path class="st1" d="M73.5,47.1l-0.5,0V31.7c0-0.4,0-0.4-0.4-0.4h-6.1c-0.5,0-0.6,0-0.6,0.7c0,2.1,0.6,2.7,2.4,2.7h0.4v12.4
					l-0.5,0c-1.8,0-2.4,0.6-2.4,2.7c0,0.6,0.1,0.7,0.6,0.7h8.7c0.5,0,0.6-0.1,0.6-0.7C75.9,47.8,75.3,47.1,73.5,47.1z"/>
				<path class="st1" d="M70.9,24c-1.5,0-2.6,1.2-2.6,2.8c0,1.5,1.2,2.8,2.6,2.8c1.4,0,2.5-1.3,2.5-2.8C73.4,25.3,72.3,24,70.9,24z"
					/>
				<path class="st1" d="M42.1,28.9h0.1c1.8,0,2.4-0.7,2.4-2.8c0-0.6-0.1-0.7-0.6-0.7h-8.4c-0.5,0-0.5,0.1-0.6,0.4l0,0.3
					c0,2.1,0.6,2.8,2.4,2.8h0.1v12.6c0,2.4,0,5.7-3.9,5.7c-3.6,0-3.9-2.6-3.9-5.7V28.9h0.1c1.8,0,2.4-0.7,2.4-2.8l0-0.4
					c-0.1-0.2-0.1-0.3-0.6-0.3h-8.4c-0.5,0-0.6,0.1-0.6,0.7c0,2.2,0.6,2.8,2.4,2.8h0.1v12.6c0,6.8,2.5,9.7,8.4,9.7
					c5.9,0,8.4-2.9,8.4-9.7V28.9z"/>
				<path class="st1" d="M61.5,47.1V36.7c0-4.2-1.4-6.1-4.5-6.1c-2.8,0-4.3,1.6-5.5,2.8c-0.1-0.4-0.2-0.8-0.2-0.8
					c-0.2-0.8-0.3-1.4-0.9-1.4h-4.7c-0.5,0-0.6,0-0.6,0.7c0,2,0.5,2.7,2.2,2.7c0.2,0.8,0.4,1.5,0.4,3.5v8.9c-1.8,0-2.3,0.7-2.3,2.7
					c0,0.6,0.1,0.7,0.6,0.7h5.6c0.3,0,0.4-0.1,0.4-0.4V36.2c0.5-0.5,1.7-1.7,3.2-1.7c2.1,0,2.1,2.4,2.1,3.5v12.1
					c0,0.4,0,0.4,0.4,0.4h5.6c0.5,0,0.6-0.1,0.6-0.7C63.8,47.8,63.2,47.1,61.5,47.1z"/>
				<path class="st1" d="M83.9,51.2c2.5,0,4.5-0.6,4.5-1.2c0-0.1-0.1-0.8-0.2-1.2c-0.3-1.4-0.5-2-3.1-1.6c-0.3,0-0.6,0-0.8-0.2
					c-0.5-0.5-0.5-1.6-0.5-2.6v-9.7h2.4c1.8,0,2.4-0.6,2.4-2.7c0-0.6-0.1-0.7-0.6-0.7h-4.1v-5.4c0-0.5,0-0.5-0.2-0.5
					c-0.2,0-1.1,0.1-1.5,0.2c-1.2,0.2-2.5,1.1-2.5,3.3v2.4h-2.4c-0.5,0-0.6,0-0.6,0.7c0,2.1,0.6,2.7,2.4,2.7h0.7v9
					C79.5,47.4,79.5,51.2,83.9,51.2z"/>
				<path class="st1" d="M104.6,41.3c0-7-2.4-10.6-7-10.6c-4.6,0-7.6,4.2-7.6,10.5c0,8.3,4.2,10.1,7.8,10.1c2.9,0,6.2-1.4,6.2-2.2
					c0-0.1-0.1-0.8-0.3-1.4c-0.1-0.4-0.4-0.9-1.6-0.8c-0.9,0-2.4,0.5-3.8,0.5c-2.7,0-4-1.7-4-5.2h9.7
					C104.5,42.1,104.6,42,104.6,41.3z M94.4,38.7l0-0.3c0.1-1.3,0.4-4.4,3.1-4.4c2.7,0,2.7,3.1,2.7,4.7H94.4z"/>
				<path class="st1" d="M121.7,47.1c-0.2-0.8-0.4-1.5-0.4-3.4V24.5c0-0.4,0-0.4-0.4-0.4h-5.6c-0.5,0-0.6,0.1-0.6,0.7
					c0,2,0.5,2.7,2.2,2.7h0.1v4.4l-0.3-0.2c-0.6-0.5-1.5-1.1-3.4-1.1c-4.4,0-6.7,3.8-6.7,11.1c0,6.1,2.1,9.5,5.9,9.5
					c3,0,5-2.2,5-2.2l0.2,0.8c0.2,0.6,0.2,0.7,0.7,0.7h4.9c0.5,0,0.6-0.1,0.6-0.7C124.2,47.8,123.6,47.1,121.7,47.1z M114,47.5
					c-2.6,0-3.1-2.4-3.1-6.5c0-4.4,0.5-6.7,3.3-6.7c1.1,0,1.9,0.2,2.8,0.8v10.9C116.5,46.7,115.8,47.5,114,47.5z"/>
			</g>
			<g>
				<g>
					<path class="st1" d="M197.7,88.6c0-1.3,1.1-2.3,2.3-2.3c1.3,0,2.3,1,2.3,2.3c0,1.3-1.1,2.3-2.3,2.3
						C198.8,90.9,197.7,89.9,197.7,88.6z M201.9,88.6c0-1.1-0.8-1.9-1.9-1.9c-1,0-1.9,0.8-1.9,1.9c0,1.1,0.8,1.9,1.9,1.9
						C201.1,90.6,201.9,89.7,201.9,88.6z M199.6,90h-0.4v-2.7h1c0.6,0,0.9,0.2,0.9,0.8c0,0.5-0.3,0.7-0.7,0.7l0.7,1.2h-0.5l-0.7-1.2
						h-0.4V90z M199.6,88.5h0.4c0.5,0,0.7-0.1,0.7-0.4c0-0.3-0.2-0.4-0.6-0.4h-0.5V88.5z"/>
				</g>
			</g>
		</g>
	</g>
</g>
<g>
	<path class="st1" d="M15.3,13.3l0,84.3h195.5l0.1-84.3H15.3z M17,15h113.2V96H17V15z M209.2,96h-77.4l0.1-80.9h77.4V96z"/>
</g>
<g>
	<path class="st1" d="M33.7,136.6l-0.6-9.3c-0.1-1.1-0.1-2-0.1-2.9c-0.2,1-0.4,1.6-0.6,2.7l-2.7,9.5h-3l-2.5-9.1
		c-0.2-0.8-0.5-2.1-0.7-3.1c0,1,0,2.1-0.1,3.1l-0.6,9.1h-3.5l1.6-17.4h4.5l2.3,8.7c0.3,1.2,0.5,1.8,0.6,2.7c0.1-0.9,0.3-1.8,0.6-2.8
		l2.3-8.6h4.4l1.5,17.4H33.7z"/>
	<path class="st1" d="M42.9,131.3L42.9,131.3c0,2.1,1,3.2,2.7,3.2c1.1,0,2.2-0.4,3.2-1.3l1.3,2c-1.5,1.2-3,1.8-4.8,1.8
		c-3.7,0-6-2.6-6-6.6c0-2.3,0.5-3.8,1.6-5.1c1-1.2,2.3-1.7,4-1.7c1.5,0,2.9,0.5,3.7,1.4c1.2,1.2,1.7,2.9,1.7,5.6v0.8H42.9z
		 M46.8,128.7c0-0.9-0.1-1.4-0.4-1.9c-0.3-0.5-0.8-0.7-1.5-0.7c-1.3,0-2,1-2,2.8v0.1h3.9V128.7z"/>
	<path class="st1" d="M56.4,136.9c-1.7,0-3-0.8-3.4-1.9c-0.2-0.5-0.2-0.8-0.2-2v-6.9h-1.3v-2.3h1.3c0-1.2,0-2.1,0.1-3l3.4-0.8
		c-0.1,1.2-0.2,2.6-0.2,3.9h3l-0.9,2.3H56v6.4c0,1.6,0.3,2.1,1.4,2.1c0.3,0,0.6-0.1,1.2-0.2l0.4,2C58.1,136.8,57.2,136.9,56.4,136.9
		z"/>
	<path class="st1" d="M67.6,126.8c-0.3-0.2-0.6-0.2-1-0.2c-0.8,0-1.4,0.3-2,1.1v9h-3.3v-8.5c0-1.7-0.2-3-0.5-3.8l3-0.8
		c0.3,0.5,0.5,1.1,0.5,1.8c0.7-1,1.7-1.8,3-1.8c0.5,0,0.7,0,1.2,0.3L67.6,126.8z"/>
	<path class="st1" d="M78.5,135.1c-1,1.1-2.2,1.8-4.2,1.8c-3.5,0-5.7-2.6-5.7-6.6c0-4,2.3-6.7,5.7-6.7c1.8,0,3.2,0.6,4.3,1.9
		c1,1.2,1.5,2.6,1.5,4.7C80.1,132.4,79.6,133.9,78.5,135.1z M75.8,126.7c-0.3-0.4-0.8-0.7-1.4-0.7c-0.8,0-1.4,0.5-1.7,1.3
		c-0.2,0.7-0.3,1.6-0.3,2.8c0,1.5,0.1,2.6,0.4,3.2c0.3,0.7,1,1.1,1.7,1.1c1.4,0,2.1-1.3,2.1-4.3C76.4,128.4,76.2,127.3,75.8,126.7z"
		/>
	<path class="st1" d="M100.5,133.7c-0.4,1.4-2.1,3.3-5.9,3.3c-2.6,0-4.6-0.8-5.6-2.3c-0.6-0.9-0.7-1.6-0.7-3.3v-12.1h3.6v11.4
		c0,1.1,0.1,1.7,0.3,2.1c0.4,0.8,1.2,1.2,2.4,1.2c1.5,0,2.5-0.8,2.6-2c0-0.4,0-0.6,0-1.5v-11.1h3.5V131
		C100.8,132.6,100.8,132.9,100.5,133.7z"/>
	<path class="st1" d="M111,136.6v-8.3c0-1.4-0.2-1.9-1.1-1.9c-0.7,0-1.5,0.4-2.3,1.2v9h-3.3v-9.3c0-1.1-0.1-2.2-0.4-3l3-0.8
		c0.3,0.5,0.5,1.1,0.5,1.6c0.5-0.3,0.9-0.7,1.5-0.9c0.7-0.4,1.5-0.6,2.3-0.6c1.4,0,2.7,0.8,3.1,1.8c0.2,0.5,0.2,1,0.2,1.8v9.3H111z"
		/>
	<path class="st1" d="M119.5,122.4c-1.1,0-2-0.9-2-2.1s0.9-2.1,2.1-2.1c1.1,0,2,0.9,2,2.1S120.7,122.4,119.5,122.4z M117.8,136.6
		v-12.6l3.3-0.5v13.1H117.8z"/>
	<path class="st1" d="M128.4,136.9c-1.7,0-3-0.8-3.4-1.9c-0.2-0.5-0.2-0.8-0.2-2v-6.9h-1.3v-2.3h1.3c0-1.2,0-2.1,0.1-3l3.4-0.8
		c-0.1,1.2-0.2,2.6-0.2,3.9h3l-0.8,2.3H128v6.4c0,1.6,0.3,2.1,1.4,2.1c0.3,0,0.6-0.1,1.2-0.2l0.4,2
		C130.1,136.8,129.2,136.9,128.4,136.9z"/>
	<path class="st1" d="M135.6,131.3L135.6,131.3c0,2.1,1,3.2,2.7,3.2c1.1,0,2.2-0.4,3.2-1.3l1.3,2c-1.5,1.2-3,1.8-4.8,1.8
		c-3.7,0-6-2.6-6-6.6c0-2.3,0.5-3.8,1.6-5.1c1-1.2,2.3-1.7,4-1.7c1.5,0,2.9,0.5,3.7,1.4c1.2,1.2,1.7,2.9,1.7,5.6v0.8H135.6z
		 M139.5,128.7c0-0.9-0.1-1.4-0.4-1.9c-0.3-0.5-0.8-0.7-1.5-0.7c-1.3,0-2,1-2,2.8v0.1h3.9V128.7z"/>
	<path class="st1" d="M153.1,136.6c-0.1-0.2-0.1-0.4-0.2-0.8c-0.8,0.7-1.8,1.1-2.9,1.1c-3.2,0-5.3-2.5-5.3-6.5c0-4,2.2-6.7,5.5-6.7
		c0.9,0,1.6,0.2,2.3,0.7c0-0.3-0.1-1.1-0.1-1.9v-4.4l3.3,0.5V132c0,3.2,0.2,4.2,0.5,4.7H153.1z M152.3,127.2
		c-0.6-0.6-1.2-0.8-1.8-0.8c-1.5,0-2.1,1.2-2.1,4.1c0,2.8,0.6,3.7,2.3,3.7c0.6,0,1.3-0.4,1.7-0.8V127.2z"/>
	<path class="st1" d="M179.3,136.8h-3.8l-1.5-7.1c-0.5-2.2-0.8-4.3-0.8-4.9c0,0.4-0.3,2.6-0.8,4.9l-1.4,7.1h-4l-4.1-17.5h3.7
		l1.5,6.8c0.7,3.2,0.9,5.7,0.9,5.7c0.1-0.7,0.4-3.1,0.9-5.5l1.5-7h3.8l1.6,7.8c0.3,1.6,0.8,4.6,0.8,4.6c0.1-0.6,0.6-4.1,1-5.8
		l1.4-6.6h3.7L179.3,136.8z"/>
	<path class="st1" d="M193.2,137.3c-0.8-0.3-1.5-0.9-1.8-1.5c-0.2,0.2-0.5,0.5-0.8,0.7c-0.6,0.4-1.5,0.7-2.6,0.7
		c-2.8,0-4.4-1.4-4.4-4c0-3,2.1-4.4,6.1-4.4c0.2,0,0.5,0,0.8,0v-0.5c0-1.4-0.3-1.9-1.5-1.9c-1.1,0-2.3,0.5-3.7,1.4l-1.4-2.4
		c0.7-0.4,1.2-0.7,2.1-1.1c1.2-0.5,2.3-0.8,3.5-0.8c2.1,0,3.6,0.8,4.1,2.2c0.2,0.5,0.2,0.9,0.2,2.3l-0.1,4.3c0,1.4,0.1,2,1.2,2.8
		L193.2,137.3z M190.3,131c-2.3,0-3.1,0.4-3.1,1.9c0,1,0.6,1.7,1.5,1.7c0.6,0,1.2-0.3,1.7-0.9l0-2.7H190.3z"/>
	<path class="st1" d="M203.3,136.8c-0.9,2.5-1.5,3.5-2.5,4.2c-0.8,0.6-1.9,1-3.1,1.2l-1.2-2.2c0.7-0.2,1.6-0.5,2.1-0.8
		c0.4-0.3,0.7-0.6,0.9-1.1c0.3-0.5,0.4-0.8,0.7-1.5h-0.9c-0.4-1.2-1.1-3.2-1.2-3.6l-3-9l3.4-0.4l2.2,7.5c0.2,0.8,0.6,2.5,0.7,2.7
		c0-0.1,0.2-1.4,0.4-2.1c0.1-0.4,0.3-1.2,0.5-1.8l1.9-6.1h3.5L203.3,136.8z"/>
</g>
</svg>
