<svg xmlns="http://www.w3.org/2000/svg" viewBox="0 0 600 600"><style type="text/css">
	.bell{fill:#ffffff;}
	.circle{fill:#FBB23D;}
</style><path class="bell" d="M236.6 85.3c-13-30.7 0.5-57.2 18.9-69.8 18.6-12.7 45-12.2 62.6 0.4 19.5 14 30.4 41.1 18.1 69.4 2.1 0.7 4.1 1.4 6.2 2 14.3 4.4 27.7 10.7 40.4 18.7 18.2 11.5 33.1 26.3 45.1 44.1 10.4 15.6 18.1 32.5 22.6 50.6 5 20 9.5 40.1 13.4 60.3 2.4 12.5 3.6 25.3 5 37.9 1.9 16.4 5 32.5 10.1 48.2 2.4 7.6 4.7 15.4 7.6 22.8 6 15.4 15.5 28.2 28.6 38.3 4.8 3.7 9.7 7.4 14.4 11.3 10.5 8.6 17.3 19.6 20.3 33 3.3 14.8 4.5 29.7 1 44.6 -2.4 10.1-7.6 18.2-18 21.9 -2.5 0.9-5.3 1.2-8 1.2 -53.7 0.1-107.4 0.1-161 0.1 -1.2 0-2.3 0-3.7 0 -1.1 25.4-11.4 45.9-32.1 60.6 -13.5 9.5-28.7 13.3-45.2 12.9 -29.7-0.7-68.6-25.8-70.1-73.5 -1.1 0-2.2 0-3.4 0 -42.3 0-84.5 0-126.8 0 -11.4 0-22.9-0.3-34.3 0.1 -11.3 0.4-21.2-8.2-24.7-18.6 -5.2-15.7-3.9-31.5-0.9-47.3 3.3-17.3 13.2-30 27.1-40 9.9-7.1 19.2-15 26.2-25.2 6.5-9.4 11.3-19.6 14.4-30.5 3.7-12.7 7.5-25.4 10.2-38.4 2.4-11.4 3.1-23.2 4.8-34.8 1.9-12.8 3.7-25.7 6.2-38.4 2.7-13.9 5.7-27.7 9.3-41.3 2.5-9.7 5.9-19.3 9.5-28.6 5-12.9 12.1-24.6 20.5-35.6 9.2-12.1 20-22.5 32.4-31.3C198.9 99.3 216 91.3 234.4 86 235.2 86 235.9 85.6 236.6 85.3zM286.4 483.9C286.4 483.8 286.4 483.8 286.4 483.9c13.1-0.1 26.2-0.1 39.2-0.1 45.7 0 91.5 0 137.2 0 16.8 0 33.5 0 50.3 0.1 2.4 0 3.4-0.7 3.1-3.1 -0.5-5.1-0.6-10.3-1.4-15.3 -0.8-5.3-2-10.6-6-14.5 -3-2.9-6.4-5.3-9.5-8 -7.8-6.8-16.1-13-23.3-20.5 -11.8-12.3-19.9-27.1-25.5-43.2 -4-11.6-7.5-23.4-10.6-35.3 -2.6-10.1-5-20.3-6.2-30.7 -2.9-24.5-5.8-49-11.6-73.1 -3.6-15-6.4-30.3-12.1-44.8 -6.7-16.9-15.9-32-29.1-44.6 -11.6-11.1-25-19.4-40-25.2 -11.9-4.6-24.2-7.5-36.8-8.7 -16-1.6-31.9-1-47.7 2 -12.4 2.4-24.4 6.2-35.7 11.9 -18.9 9.5-34.3 23.1-45.8 40.9 -10.2 15.7-16.1 33.1-20.4 51.2 -6.1 25.7-11.5 51.6-13.9 78 -1.9 20.5-6.6 40.5-12.2 60.2 -4 14-9 27.6-16.3 40.3 -5.5 9.5-11.8 18.5-19.9 25.9 -7.7 7-16.1 13.3-24.2 19.9 -4 3.2-7.7 6.8-8.6 12 -1.3 7.1-1.9 14.3-2.8 21.5 -0.3 2.6 0.7 3.3 3.3 3.2 16-0.1 32-0.1 47.9-0.1C167.4 483.9 226.9 483.9 286.4 483.9zM250 520.7c-0.3 11.6 5.7 24.9 18.6 31.9 13.5 7.3 26.9 6.5 39.4-2.4 9.9-7 14.5-17.2 15.1-29.5C298.6 520.7 274.4 520.7 250 520.7zM286.7 42.9c-10.1-0.1-18.5 8.2-18.6 18.3 -0.1 9.8 8.4 18.3 18.3 18.3 9.7 0 18.1-8.2 18.3-18.1C305 51.5 296.7 43 286.7 42.9z"/><path class="circle" d="M427.5 124c84.2 0 152.5 68.3 152.5 152.5S511.7 429 427.5 429 275 360.7 275 276.5 343.2 124 427.5 124z"/></svg>
